<svg width="116" height="156" viewBox="0 0 116 156" fill="none" xmlns="http://www.w3.org/2000/svg">
<path d="M45.071 52.1413C44.3046 52.1413 43.5505 51.8949 42.9492 51.4143L42.7422 51.2344L30.3414 39.4276L6.07469 39.4153C2.7256 39.4153 0 36.6872 0 33.3381V6.07716C0 2.7256 2.7256 0 6.07716 0H54.7659C58.1174 0 60.843 2.7256 60.843 6.07716V32.9734C60.843 34.6048 60.2047 36.1352 59.049 37.286C57.903 38.4246 56.3825 39.0505 54.7683 39.0505H54.724L48.6345 39.0086L48.5482 48.8193C48.5408 50.0835 47.8089 51.2196 46.6383 51.784C46.1405 52.0255 45.6033 52.1413 45.0735 52.1413H45.071ZM6.16094 33.2568L30.3956 33.2691C31.7634 33.2691 33.1064 33.7398 34.176 34.59L34.383 34.7699L42.444 42.444L42.4735 38.9101C42.4785 37.286 43.1143 35.7606 44.2676 34.6147C45.4259 33.4662 46.9587 32.8477 48.5926 32.8502L54.6821 32.892V6.16094H6.16094V33.2568Z" fill="#8ABD56"/>
<path d="M51.1408 10.1533H10.7324V16.3143H51.1408V10.1533Z" fill="#8ABD56"/>
<path d="M40.1349 22.9897H10.7324V29.1507H40.1349V22.9897Z" fill="#8ABD56"/>
<path d="M115.437 156H109.276V148.711C109.276 131.709 96.5525 117.876 80.916 117.876H56.8218C41.1828 117.876 28.4617 131.709 28.4617 148.711V156H22.3008V148.711C22.3008 128.31 37.7869 111.715 56.8218 111.715H80.916C99.9509 111.715 115.437 128.31 115.437 148.711V156Z" fill="#1FA8B6"/>
<path d="M68.8685 107.351C54.4642 107.351 42.7461 95.6326 42.7461 81.2284C42.7461 66.8241 54.4642 55.106 68.8685 55.106C83.2728 55.106 94.9909 66.8241 94.9909 81.2284C94.9909 95.6326 83.2728 107.351 68.8685 107.351ZM68.8685 61.2669C57.8626 61.2669 48.907 70.2224 48.907 81.2284C48.907 92.2343 57.8626 101.19 68.8685 101.19C79.8744 101.19 88.83 92.2343 88.83 81.2284C88.83 70.2224 79.8744 61.2669 68.8685 61.2669Z" fill="#1FA8B6"/>
</svg>
