<svg width="124" height="152" viewBox="0 0 124 152" fill="none" xmlns="http://www.w3.org/2000/svg">
<path d="M101.15 79.6863L106.121 84.657L91.9657 98.8121L86.9949 103.783L82.0242 98.8121L75.1809 91.9689L80.1517 86.9981L86.9949 93.8413L101.15 79.6863ZM101.15 74.6895C99.8721 74.6895 98.5919 75.1776 97.6156 76.154L86.9949 86.7746L83.6861 83.4659C82.7098 82.4895 81.4318 82.0013 80.1517 82.0013C78.8716 82.0013 77.5936 82.4895 76.6173 83.4659L71.6465 88.4366C69.696 90.3872 69.696 93.5528 71.6465 95.5033L78.4897 102.347L83.4605 107.317C84.4369 108.294 85.7148 108.782 86.9949 108.782C88.275 108.782 89.553 108.294 90.5294 107.317L95.5001 102.347L109.655 88.1915C111.606 86.2409 111.606 83.0753 109.655 81.1248L104.684 76.154C103.708 75.1776 102.43 74.6895 101.15 74.6895Z" fill="#8ABD56"/>
<path d="M90.1221 62.6067C105.961 62.6067 118.799 75.4469 118.799 91.2835C118.799 107.12 105.959 119.96 90.1221 119.96C74.2855 119.96 61.4453 107.12 61.4453 91.2835C61.4453 75.4469 74.2855 62.6067 90.1221 62.6067ZM90.1221 57.6099C85.5788 57.6099 81.1678 58.5016 77.0128 60.2591C73.0032 61.9558 69.4015 64.3837 66.3097 67.4733C63.2179 70.5651 60.7922 74.1646 59.0955 78.1764C57.338 82.3314 56.4463 86.7423 56.4463 91.2857C56.4463 95.829 57.338 100.24 59.0955 104.395C60.7922 108.405 63.2201 112.006 66.3097 115.098C69.4015 118.19 73.0011 120.616 77.0128 122.312C81.1678 124.07 85.5788 124.961 90.1221 124.961C94.6654 124.961 99.0764 124.07 103.231 122.312C107.241 120.616 110.843 118.188 113.934 115.098C117.026 112.006 119.452 108.407 121.149 104.395C122.906 100.24 123.798 95.829 123.798 91.2857C123.798 86.7423 122.906 82.3314 121.149 78.1764C119.452 74.1668 117.024 70.5651 113.934 67.4733C110.843 64.3815 107.243 61.9558 103.231 60.2591C99.0764 58.5016 94.6654 57.6099 90.1221 57.6099Z" fill="#8ABD56"/>
<path d="M68.317 151.996C66.911 151.996 65.5354 151.505 64.5417 150.583C63.3397 149.468 62.8971 147.904 63.3592 146.396L72.1248 117.751C72.5631 116.32 74.0797 115.512 75.5117 115.953C76.9437 116.393 77.7486 117.908 77.3104 119.34L69.0503 146.329L89.0766 138.502C89.7362 138.244 90.4739 138.255 91.1248 138.533L109.22 146.233L102.299 119.965C101.917 118.515 102.783 117.033 104.23 116.651C105.677 116.272 107.161 117.135 107.543 118.582L114.883 146.441C115.284 147.96 114.781 149.509 113.536 150.585C111.969 151.942 109.567 152.276 107.558 151.423L90.0161 143.959L70.4823 151.594C69.7837 151.868 69.0438 152 68.3126 152L68.317 151.996Z" fill="#8ABD56"/>
<path d="M53.1553 108.873C53.1358 108.873 53.1163 108.873 53.0946 108.873C38.204 108.547 8.58331 108.124 3.06578 108.851C2.29337 108.953 1.51011 108.716 0.92429 108.202C0.336303 107.688 0 106.944 0 106.163V98.4538C0 77.18 16.1338 59.8745 35.9627 59.8745H61.4457C62.9428 59.8745 64.1578 61.0895 64.1578 62.5866C64.1578 64.0837 62.9428 65.2987 61.4457 65.2987H35.9627C19.1237 65.2987 5.42423 80.172 5.42423 98.4538V103.242C17.4574 102.68 51.6127 103.416 53.2117 103.451C54.7088 103.483 55.8956 104.724 55.8631 106.221C55.8306 107.699 54.622 108.875 53.1532 108.875L53.1553 108.873Z" fill="#1FA8B6"/>
<path d="M48.7052 54.1621C33.7733 54.1621 21.623 42.0139 21.623 27.0799C21.623 12.1459 33.7733 0 48.7052 0C63.637 0 75.7873 12.1481 75.7873 27.0821C75.7873 42.0161 63.6392 54.1642 48.7052 54.1642V54.1621ZM48.7052 5.42423C36.7632 5.42423 27.0473 15.1401 27.0473 27.0821C27.0473 39.0241 36.7632 48.74 48.7052 48.74C60.6472 48.74 70.363 39.0241 70.363 27.0821C70.363 15.1401 60.6472 5.42423 48.7052 5.42423Z" fill="#1FA8B6"/>
</svg>
