<svg width="146" height="156" viewBox="0 0 146 156" fill="none" xmlns="http://www.w3.org/2000/svg">
<path d="M143.193 156H25.2696C23.6973 156 22.4619 154.774 22.4619 153.214V66.8571C22.4619 65.2971 23.6973 64.0714 25.2696 64.0714C26.8419 64.0714 28.0773 65.2971 28.0773 66.8571V150.429H140.385V5.57143H53.3465C51.7742 5.57143 50.5388 4.34571 50.5388 2.78571C50.5388 1.22571 51.7742 0 53.3465 0H143.193C144.765 0 146 1.22571 146 2.78571V153.214C146 154.774 144.765 156 143.193 156Z" fill="#1FA8B6"/>
<path d="M84.2308 66.8571C76.4816 66.8571 70.1924 60.6171 70.1924 52.9286C70.1924 45.24 76.4816 39 84.2308 39C91.9801 39 98.2693 45.24 98.2693 52.9286C98.2693 60.6171 91.9801 66.8571 84.2308 66.8571ZM84.2308 44.5714C79.5701 44.5714 75.8078 48.3043 75.8078 52.9286C75.8078 57.5529 79.5701 61.2857 84.2308 61.2857C88.8916 61.2857 92.6539 57.5529 92.6539 52.9286C92.6539 48.3043 88.8916 44.5714 84.2308 44.5714Z" fill="#1FA8B6"/>
<path d="M98.2694 89.143C96.6971 89.143 95.4617 87.9173 95.4617 86.3573C95.4617 81.733 90.4078 78.0001 84.2309 78.0001C78.054 78.0001 73.0002 81.733 73.0002 86.3573C73.0002 87.9173 71.7648 89.143 70.1925 89.143C68.6202 89.143 67.3848 87.9173 67.3848 86.3573C67.3848 78.6687 74.9655 72.4287 84.2309 72.4287C93.4963 72.4287 101.077 78.6687 101.077 86.3573C101.077 87.9173 99.8417 89.143 98.2694 89.143Z" fill="#1FA8B6"/>
<path d="M84.2305 105.857C62.5552 105.857 44.9229 88.3626 44.9229 66.8569C44.9229 45.3512 62.5552 27.8569 84.2305 27.8569C105.906 27.8569 123.538 45.3512 123.538 66.8569C123.538 88.3626 105.906 105.857 84.2305 105.857ZM84.2305 33.4284C65.6436 33.4284 50.5382 48.4155 50.5382 66.8569C50.5382 85.2984 65.6436 100.286 84.2305 100.286C102.817 100.286 117.923 85.2984 117.923 66.8569C117.923 48.4155 102.817 33.4284 84.2305 33.4284Z" fill="#1FA8B6"/>
<path d="M120.731 117H64.5772C63.0049 117 61.7695 115.774 61.7695 114.214C61.7695 112.654 63.0049 111.429 64.5772 111.429H120.731C122.303 111.429 123.539 112.654 123.539 114.214C123.539 115.774 122.303 117 120.731 117Z" fill="#1FA8B6"/>
<path d="M120.731 128.143H64.5772C63.0049 128.143 61.7695 126.917 61.7695 125.357C61.7695 123.797 63.0049 122.571 64.5772 122.571H120.731C122.303 122.571 123.539 123.797 123.539 125.357C123.539 126.917 122.303 128.143 120.731 128.143Z" fill="#1FA8B6"/>
<path d="M120.731 139.286H64.5772C63.0049 139.286 61.7695 138.06 61.7695 136.5C61.7695 134.94 63.0049 133.714 64.5772 133.714H120.731C122.303 133.714 123.539 134.94 123.539 136.5C123.539 138.06 122.303 139.286 120.731 139.286Z" fill="#1FA8B6"/>
<path d="M28.0769 55.7143C12.5785 55.7143 0 43.2343 0 27.8571C0 12.48 12.5785 0 28.0769 0C43.5754 0 56.1538 12.48 56.1538 27.8571C56.1538 43.2343 43.5754 55.7143 28.0769 55.7143ZM28.0769 5.57143C15.6669 5.57143 5.61538 15.5443 5.61538 27.8571C5.61538 40.17 15.6669 50.1429 28.0769 50.1429C40.4869 50.1429 50.5385 40.17 50.5385 27.8571C50.5385 15.5443 40.4869 5.57143 28.0769 5.57143Z" fill="#8ABD56"/>
<path d="M47.7305 117C49.2812 117 50.5382 115.753 50.5382 114.214C50.5382 112.676 49.2812 111.429 47.7305 111.429C46.1799 111.429 44.9229 112.676 44.9229 114.214C44.9229 115.753 46.1799 117 47.7305 117Z" fill="#1FA8B6"/>
<path d="M47.7305 128.143C49.2812 128.143 50.5382 126.896 50.5382 125.357C50.5382 123.818 49.2812 122.571 47.7305 122.571C46.1799 122.571 44.9229 123.818 44.9229 125.357C44.9229 126.896 46.1799 128.143 47.7305 128.143Z" fill="#1FA8B6"/>
<path d="M47.7305 139.286C49.2812 139.286 50.5382 138.039 50.5382 136.5C50.5382 134.962 49.2812 133.714 47.7305 133.714C46.1799 133.714 44.9229 134.962 44.9229 136.5C44.9229 138.039 46.1799 139.286 47.7305 139.286Z" fill="#1FA8B6"/>
<path d="M28.0765 38.9999C27.3465 38.9999 26.6165 38.7213 26.1111 38.1642L17.688 29.807C16.5649 28.6927 16.5649 26.9656 17.688 25.8513C18.8111 24.737 20.5519 24.737 21.6749 25.8513L27.3465 31.4784L34.0288 18.2184C34.7026 16.8256 36.3872 16.2684 37.7911 16.9927C39.1949 17.6613 39.7565 19.3327 39.0265 20.7256L30.6034 37.4399C30.2103 38.2199 29.4242 38.777 28.5257 38.9442C28.3572 38.9442 28.2449 38.9442 28.0765 38.9442V38.9999Z" fill="#8ABD56"/>
</svg>
