<svg width="179" height="156" viewBox="0 0 179 156" fill="none" xmlns="http://www.w3.org/2000/svg">
<path d="M50.8982 148.321C50.5599 148.321 50.216 148.245 49.8928 148.084C48.7729 147.527 48.3163 146.169 48.8728 145.049L59.3808 123.903C59.7631 123.133 60.5485 122.646 61.4081 122.646H77.9909C78.836 122.646 79.6107 123.117 79.9999 123.868L90.972 145.014C91.5479 146.124 91.1147 147.49 90.0055 148.065C88.8956 148.641 87.5292 148.208 86.9533 147.099L76.6145 127.174H62.8103L52.9267 147.064C52.5312 147.86 51.7301 148.321 50.8976 148.321H50.8982Z" fill="#1FA8B6"/>
<path d="M134.427 125.968H5.43634C3.54427 125.968 2.26465 124.688 2.26465 122.796V43.4979C2.26465 41.6058 4.60192 40.3262 6.49399 40.3262H134.427C136.32 40.3262 138.657 41.6058 138.657 43.4979V122.795C138.657 124.687 136.32 125.967 134.427 125.967V125.968Z" fill="white"/>
<path d="M134.427 128.231H5.43539C2.28571 128.231 0 125.946 0 122.796V43.4979C0 41.8819 0.874039 40.362 2.39826 39.3289C3.58544 38.524 5.0776 38.0625 6.49304 38.0625H134.427C135.841 38.0625 137.334 38.524 138.521 39.3289C140.045 40.362 140.919 41.8819 140.919 43.4979V122.795C140.919 124.411 140.045 125.931 138.521 126.964C137.333 127.769 135.841 128.231 134.427 128.231V128.231ZM6.49304 42.5899C6.02458 42.5899 5.4662 42.7521 5.03673 43.0137C4.64875 43.2495 4.53494 43.4589 4.52802 43.4979V122.796C4.52802 123.432 4.79967 123.704 5.43602 123.704H134.427C134.895 123.704 135.453 123.542 135.883 123.28C136.271 123.044 136.385 122.835 136.392 122.796V43.4979C136.384 43.4583 136.27 43.2495 135.883 43.0137C135.453 42.7521 134.895 42.5899 134.427 42.5899H6.49304Z" fill="#1FA8B6"/>
<path d="M137.598 112.373H2.2637C1.01363 112.373 0 111.359 0 110.109C0 108.859 1.01363 107.846 2.2637 107.846H137.598C138.848 107.846 139.862 108.859 139.862 110.109C139.862 111.359 138.848 112.373 137.598 112.373Z" fill="#1FA8B6"/>
<path d="M102.706 149.378H35.0391C33.789 149.378 32.7754 148.364 32.7754 147.114C32.7754 145.864 33.789 144.851 35.0391 144.851H102.706C103.956 144.851 104.97 145.864 104.97 147.114C104.97 148.364 103.956 149.378 102.706 149.378Z" fill="#1FA8B6"/>
<path d="M84.7334 20.2381V88.9626H16.0088V2.26367H63.7106L84.7334 20.2381Z" fill="white"/>
<path d="M84.7334 91.2269H16.0088C14.7588 91.2269 13.7451 90.2132 13.7451 88.9632V2.26419C13.7451 1.01412 14.7588 0.000488281 16.0088 0.000488281H63.7106C64.2501 0.000488281 64.7714 0.192903 65.1814 0.543776L86.2042 18.5182C86.7072 18.9483 86.9971 19.5771 86.9971 20.2386V88.9632C86.9971 90.2132 85.9835 91.2269 84.7334 91.2269ZM18.2725 86.6995H82.4697V21.2811L62.8749 4.52788H18.2725V86.6995Z" fill="#1FA8B6"/>
<path d="M63.5869 2.26367V20.2381H85.0531L63.5869 2.26367Z" fill="white"/>
<path d="M85.0531 22.502H63.5869C62.3369 22.502 61.3232 21.4883 61.3232 20.2383V2.26387C61.3232 1.3848 61.8326 0.584957 62.6293 0.212704C63.426 -0.159548 64.366 -0.0363022 65.0401 0.528364L86.5062 18.5028C87.2363 19.114 87.506 20.1169 87.1803 21.0117C86.8552 21.9065 86.0051 22.5026 85.0525 22.5026L85.0531 22.502ZM65.8506 17.9746H78.8235L65.8506 7.11195V17.9746Z" fill="#1FA8B6"/>
<path d="M41.3835 11.7798H24.4668V28.6965H41.3835V11.7798Z" fill="white"/>
<path d="M41.3826 30.9602H24.4658C23.2158 30.9602 22.2021 29.9466 22.2021 28.6965V11.7798C22.2021 10.5297 23.2158 9.51611 24.4658 9.51611H41.3826C42.6327 9.51611 43.6463 10.5297 43.6463 11.7798V28.6965C43.6463 29.9466 42.6327 30.9602 41.3826 30.9602ZM26.7295 26.4328H39.1189V14.0435H26.7295V26.4328Z" fill="#1FA8B6"/>
<path d="M75.2182 42.5899H27.6397C26.3896 42.5899 25.376 41.5763 25.376 40.3262C25.376 39.0761 26.3896 38.0625 27.6397 38.0625H75.2182C76.4683 38.0625 77.4819 39.0761 77.4819 40.3262C77.4819 41.5763 76.4683 42.5899 75.2182 42.5899Z" fill="#1FA8B6"/>
<path d="M75.2182 51.0489H27.6397C26.3896 51.0489 25.376 50.0352 25.376 48.7852C25.376 47.5351 26.3896 46.5215 27.6397 46.5215H75.2182C76.4683 46.5215 77.4819 47.5351 77.4819 48.7852C77.4819 50.0352 76.4683 51.0489 75.2182 51.0489Z" fill="#1FA8B6"/>
<path d="M48.7858 60.5645H27.6397C26.3896 60.5645 25.376 59.5509 25.376 58.3008C25.376 57.0507 26.3896 56.0371 27.6397 56.0371H48.7858C50.0358 56.0371 51.0495 57.0507 51.0495 58.3008C51.0495 59.5509 50.0358 60.5645 48.7858 60.5645Z" fill="#1FA8B6"/>
<path d="M48.7858 69.023H27.6397C26.3896 69.023 25.376 68.0094 25.376 66.7593C25.376 65.5092 26.3896 64.4956 27.6397 64.4956H48.7858C50.0358 64.4956 51.0495 65.5092 51.0495 66.7593C51.0495 68.0094 50.0358 69.023 48.7858 69.023Z" fill="#1FA8B6"/>
<path d="M168.263 66.9096C167.384 66.9096 166.549 66.3952 166.181 65.5369L145.091 16.3279L109.32 42.1623C108.307 42.8943 106.892 42.666 106.16 41.6524C105.428 40.6387 105.656 39.2239 106.67 38.492L144.733 11.0019C145.29 10.5995 146 10.4718 146.663 10.6554C147.325 10.839 147.868 11.3132 148.139 11.9451L170.342 63.753C170.835 64.9018 170.303 66.233 169.153 66.7253C168.863 66.8498 168.56 66.909 168.263 66.909V66.9096Z" fill="#8ABD56"/>
<path d="M166.493 73.631C171.871 73.631 176.231 69.3115 176.231 63.9832C176.231 58.6549 171.871 54.3354 166.493 54.3354C161.115 54.3354 156.755 58.6549 156.755 63.9832C156.755 69.3115 161.115 73.631 166.493 73.631Z" fill="white"/>
<path d="M166.492 75.8957C159.874 75.8957 154.49 70.5521 154.49 63.9842C154.49 57.4163 159.874 52.0728 166.492 52.0728C173.11 52.0728 178.494 57.4163 178.494 63.9842C178.494 70.5521 173.11 75.8957 166.492 75.8957ZM166.492 56.6001C162.37 56.6001 159.018 59.9127 159.018 63.9842C159.018 68.0557 162.371 71.3683 166.492 71.3683C170.613 71.3683 173.967 68.0557 173.967 63.9842C173.967 59.9127 170.613 56.6001 166.492 56.6001Z" fill="#8ABD56"/>
<path d="M146.403 21.8243C151.782 21.8243 156.142 17.5049 156.142 12.1766C156.142 6.84825 151.782 2.52881 146.403 2.52881C141.025 2.52881 136.665 6.84825 136.665 12.1766C136.665 17.5049 141.025 21.8243 146.403 21.8243Z" fill="white"/>
<path d="M146.403 24.0882C139.785 24.0882 134.401 18.7446 134.401 12.1767C134.401 5.60886 139.786 0.264648 146.403 0.264648C153.021 0.264648 158.405 5.60823 158.405 12.1761C158.405 18.744 153.022 24.0876 146.403 24.0876V24.0882ZM146.403 4.79267C142.282 4.79267 138.929 8.10522 138.929 12.1767C138.929 16.2482 142.282 19.5608 146.403 19.5608C150.525 19.5608 153.878 16.2482 153.878 12.1767C153.878 8.10522 150.525 4.79267 146.403 4.79267Z" fill="#8ABD56"/>
<path d="M107.285 51.4298C112.663 51.4298 117.023 47.1103 117.023 41.782C117.023 36.4537 112.663 32.1343 107.285 32.1343C101.907 32.1343 97.5469 36.4537 97.5469 41.782C97.5469 47.1103 101.907 51.4298 107.285 51.4298Z" fill="white"/>
<path d="M107.284 53.6935C100.666 53.6935 95.2822 48.3499 95.2822 41.7821C95.2822 35.2142 100.666 29.8706 107.284 29.8706C113.902 29.8706 119.286 35.2142 119.286 41.7821C119.286 48.3499 113.902 53.6935 107.284 53.6935ZM107.284 34.398C103.162 34.398 99.8096 37.7105 99.8096 41.7821C99.8096 45.8536 103.163 49.1661 107.284 49.1661C111.405 49.1661 114.759 45.8536 114.759 41.7821C114.759 37.7105 111.405 34.398 107.284 34.398Z" fill="#8ABD56"/>
<path d="M12.2317 150.494C11.8406 150.494 11.4444 150.393 11.0835 150.179C10.007 149.544 9.64858 148.156 10.2843 147.079L31.7064 110.771C32.3415 109.694 33.7293 109.336 34.8064 109.972C35.8829 110.607 36.2414 111.995 35.6056 113.072L14.1835 149.38C13.7616 150.096 13.0064 150.494 12.2317 150.494Z" fill="#8ABD56"/>
<path d="M42.3682 114.826C53.5978 114.826 62.7012 105.723 62.7012 94.4932C62.7012 83.2636 53.5978 74.1602 42.3682 74.1602C31.1386 74.1602 22.0352 83.2636 22.0352 94.4932C22.0352 105.723 31.1386 114.826 42.3682 114.826Z" fill="white"/>
<path d="M42.3695 117.09C39.3198 117.09 36.3607 116.492 33.5732 115.313C30.8819 114.175 28.466 112.546 26.3916 110.471C24.3172 108.397 22.6879 105.981 21.5498 103.29C20.3708 100.502 19.7734 97.5433 19.7734 94.4936C19.7734 91.4439 20.3714 88.4847 21.5498 85.6972C22.6879 83.0059 24.3172 80.5901 26.3916 78.5156C28.466 76.4412 30.8825 74.812 33.5732 73.6738C36.3607 72.4948 39.3198 71.8975 42.3695 71.8975C45.4192 71.8975 48.3784 72.4955 51.1659 73.6738C53.8572 74.812 56.273 76.4412 58.3475 78.5156C60.4219 80.5901 62.0511 83.0066 63.1893 85.6972C64.3683 88.4847 64.9656 91.4439 64.9656 94.4936C64.9656 97.5433 64.3676 100.502 63.1893 103.29C62.0511 105.981 60.4219 108.397 58.3475 110.471C56.273 112.546 53.8565 114.175 51.1659 115.313C48.3784 116.492 45.4192 117.09 42.3695 117.09ZM42.3695 76.4242C37.5428 76.4242 33.0054 78.3037 29.5929 81.7169C26.1803 85.1294 24.3008 89.6675 24.3008 94.4936C24.3008 99.3196 26.1803 103.858 29.5929 107.27C33.0054 110.683 37.5435 112.563 42.3695 112.563C47.1956 112.563 51.7337 110.683 55.1462 107.27C58.5588 103.857 60.4389 99.3196 60.4389 94.4936C60.4389 89.6675 58.5594 85.1294 55.1462 81.7169C51.7337 78.3044 47.1956 76.4242 42.3695 76.4242Z" fill="#8ABD56"/>
<path d="M10.2425 152.942L8.44853 151.853C5.85848 150.28 5.03349 146.906 6.60613 144.316L16.74 127.625C18.3126 125.035 21.6868 124.21 24.2768 125.783L26.0708 126.872C28.6608 128.445 29.4858 131.819 27.9132 134.409L17.7794 151.1C16.2067 153.69 12.8326 154.515 10.2425 152.942Z" fill="white"/>
<path d="M13.0782 156C11.7087 156 10.3228 155.638 9.06898 154.877L7.275 153.788C3.62227 151.57 2.45458 146.794 4.67238 143.141L14.8062 126.45C15.8808 124.68 17.5799 123.435 19.5908 122.943C21.6017 122.452 23.6837 122.773 25.4531 123.847L27.2471 124.936C29.0166 126.01 30.2616 127.71 30.7533 129.721C31.245 131.732 30.9237 133.814 29.8497 135.583L19.7159 152.274C18.2596 154.673 15.6991 156 13.0782 156ZM11.4188 151.007C12.938 151.93 14.9238 151.444 15.8456 149.925L25.9794 133.234C26.4259 132.498 26.5598 131.632 26.3555 130.796C26.1511 129.96 25.6336 129.254 24.8973 128.806L23.1033 127.717C22.3676 127.271 21.5017 127.137 20.6654 127.341C19.8291 127.546 19.1229 128.063 18.6759 128.8L8.54204 145.491C7.61959 147.01 8.10502 148.996 9.62422 149.917L11.4182 151.006L11.4188 151.007Z" fill="#8ABD56"/>
<path d="M32.2058 95.3048C32.1191 95.3048 32.031 95.2997 31.943 95.2897C30.7011 95.1457 29.8107 94.0226 29.9547 92.7807C30.7363 86.0267 34.545 83.0575 37.6029 81.7559C40.7683 80.4084 43.679 80.592 44.0003 80.6178L43.6438 85.1313H43.6558C43.6337 85.1313 41.4505 84.9961 39.2403 85.9808C38.0349 86.5178 37.0395 87.2931 36.283 88.2841C35.3046 89.5657 34.6884 91.2534 34.4513 93.3014C34.318 94.4546 33.339 95.3054 32.2052 95.3054L32.2058 95.3048Z" fill="#8ABD56"/>
<path d="M174.602 109.051H138.654V149.228H174.602V109.051Z" fill="white"/>
<path d="M174.604 151.492H138.656C137.406 151.492 136.393 150.478 136.393 149.228V109.051C136.393 107.801 137.406 106.787 138.656 106.787H174.604C175.854 106.787 176.868 107.801 176.868 109.051V149.228C176.868 150.478 175.854 151.492 174.604 151.492ZM140.92 146.965H172.341V111.315H140.92V146.965Z" fill="#1FA8B6"/>
<path d="M160.86 98.4785H124.912V138.656H160.86V98.4785Z" fill="white"/>
<path d="M160.859 140.92H124.911C123.661 140.92 122.647 139.907 122.647 138.657V98.479C122.647 97.229 123.661 96.2153 124.911 96.2153H160.859C162.109 96.2153 163.123 97.229 163.123 98.479V138.657C163.123 139.907 162.109 140.92 160.859 140.92ZM127.175 136.393H158.596V100.743H127.175V136.393Z" fill="#1FA8B6"/>
<path d="M152.401 110.258H131.255C130.005 110.258 128.991 109.245 128.991 107.995C128.991 106.745 130.005 105.731 131.255 105.731H152.401C153.651 105.731 154.665 106.745 154.665 107.995C154.665 109.245 153.651 110.258 152.401 110.258Z" fill="#1FA8B6"/>
<path d="M152.401 117.659H131.255C130.005 117.659 128.991 116.646 128.991 115.396C128.991 114.145 130.005 113.132 131.255 113.132H152.401C153.651 113.132 154.665 114.145 154.665 115.396C154.665 116.646 153.651 117.659 152.401 117.659Z" fill="#1FA8B6"/>
<path d="M152.401 125.06H131.255C130.005 125.06 128.991 124.046 128.991 122.796C128.991 121.546 130.005 120.532 131.255 120.532H152.401C153.651 120.532 154.665 121.546 154.665 122.796C154.665 124.046 153.651 125.06 152.401 125.06Z" fill="#1FA8B6"/>
<path d="M152.401 132.461H131.255C130.005 132.461 128.991 131.447 128.991 130.197C128.991 128.947 130.005 127.934 131.255 127.934H152.401C153.651 127.934 154.665 128.947 154.665 130.197C154.665 131.447 153.651 132.461 152.401 132.461Z" fill="#1FA8B6"/>
</svg>
