<svg width="76" height="76" viewBox="0 0 76 76" fill="none" xmlns="http://www.w3.org/2000/svg">
<circle cx="38" cy="38" r="36" stroke="url(#paint0_linear_14_18813)" stroke-width="4"/>
<path fill-rule="evenodd" clip-rule="evenodd" d="M37.6667 29.6667V33.6667L43 28.3333L37.6667 23V27C31.7733 27 27 31.7733 27 37.6667C27 39.76 27.6133 41.7067 28.6533 43.3467L30.6 41.4C30 40.2933 29.6667 39.0133 29.6667 37.6667C29.6667 33.2533 33.2533 29.6667 37.6667 29.6667ZM46.68 31.9867L44.7333 33.9333C45.32 35.0533 45.6667 36.32 45.6667 37.6667C45.6667 42.08 42.08 45.6667 37.6667 45.6667V41.6667L32.3333 47L37.6667 52.3333V48.3333C43.56 48.3333 48.3333 43.56 48.3333 37.6667C48.3333 35.5733 47.72 33.6267 46.68 31.9867Z" fill="url(#paint1_linear_14_18813)"/>
<defs>
<linearGradient id="paint0_linear_14_18813" x1="38" y1="2" x2="38" y2="74" gradientUnits="userSpaceOnUse">
<stop stop-color="#673BB3"/>
<stop offset="0.74212" stop-color="#AF90E3"/>
</linearGradient>
<linearGradient id="paint1_linear_14_18813" x1="37.6667" y1="23" x2="37.6667" y2="52.3333" gradientUnits="userSpaceOnUse">
<stop stop-color="#673BB3"/>
<stop offset="1" stop-color="#AF90E3"/>
</linearGradient>
</defs>
</svg>
