<svg width="521" height="521" viewBox="0 0 521 521" fill="none" xmlns="http://www.w3.org/2000/svg">
<g style="mix-blend-mode:overlay" opacity="0.5">
<mask id="mask0_21_19383" style="mask-type:luminance" maskUnits="userSpaceOnUse" x="0" y="0" width="521" height="521">
<path d="M521 260.5C521 404.461 404.461 521 260.5 521C116.539 521 0 404.216 0 260.5C0 116.784 116.784 0 260.5 0C404.216 0 521 116.54 521 260.5Z" fill="white"/>
</mask>
<g mask="url(#mask0_21_19383)">
<path d="M-273.23 -450.243L1234.93 98.6675L1235.91 96.464L-272.251 -452.447L-273.23 -450.243Z" fill="url(#paint0_linear_21_19383)"/>
<path d="M-276.867 -439.956L1231.29 108.709L1232.27 106.751L-275.888 -442.405L-276.867 -439.956Z" fill="url(#paint1_linear_21_19383)"/>
<path d="M-280.594 -429.92L1227.56 118.991L1228.3 116.787L-279.614 -432.124L-280.594 -429.92Z" fill="url(#paint2_linear_21_19383)"/>
<path d="M-284.227 -419.878L1223.93 129.033L1224.67 126.829L-283.247 -422.082L-284.227 -419.878Z" fill="url(#paint3_linear_21_19383)"/>
<path d="M-287.859 -409.849L1220.3 139.062L1221.03 136.859L-287.125 -412.052L-287.859 -409.849Z" fill="url(#paint4_linear_21_19383)"/>
<path d="M-291.59 -399.568L1216.57 149.343L1217.3 146.894L-290.855 -401.771L-291.59 -399.568Z" fill="url(#paint5_linear_21_19383)"/>
<path d="M-295.223 -389.526L1212.94 159.385L1213.67 157.181L-294.488 -391.729L-295.223 -389.526Z" fill="url(#paint6_linear_21_19383)"/>
<path d="M-298.953 -379.484L1209.2 169.427L1209.94 167.223L-298.219 -381.688L-298.953 -379.484Z" fill="url(#paint7_linear_21_19383)"/>
<path d="M-302.59 -369.448L1205.57 179.463L1206.3 177.26L-301.855 -371.406L-302.59 -369.448Z" fill="url(#paint8_linear_21_19383)"/>
<path d="M-306.223 -359.161L1201.94 189.75L1202.67 187.302L-305.488 -361.364L-306.223 -359.161Z" fill="url(#paint9_linear_21_19383)"/>
<path d="M-309.953 -349.131L1198.2 199.779L1198.94 197.576L-309.219 -351.335L-309.953 -349.131Z" fill="url(#paint10_linear_21_19383)"/>
<path d="M-313.59 -338.845L1194.57 209.821L1195.3 207.863L-312.855 -341.293L-313.59 -338.845Z" fill="url(#paint11_linear_21_19383)"/>
<path d="M-317.32 -328.808L1190.84 220.102L1191.57 217.899L-316.586 -331.012L-317.32 -328.808Z" fill="url(#paint12_linear_21_19383)"/>
<path d="M-320.953 -318.766L1187.2 230.144L1187.94 227.941L-320.219 -320.97L-320.953 -318.766Z" fill="url(#paint13_linear_21_19383)"/>
<path d="M-324.582 -308.491L1183.58 240.175L1184.31 237.971L-323.848 -310.939L-324.582 -308.491Z" fill="url(#paint14_linear_21_19383)"/>
<path d="M-328.312 -298.443L1179.85 250.468L1180.58 248.019L-327.578 -300.646L-328.312 -298.443Z" fill="url(#paint15_linear_21_19383)"/>
<path d="M-331.949 -288.413L1176.21 260.498L1176.94 258.294L-331.215 -290.617L-331.949 -288.413Z" fill="url(#paint16_linear_21_19383)"/>
<path d="M-335.68 -278.372L1172.48 270.539L1173.21 268.336L-334.945 -280.575L-335.68 -278.372Z" fill="url(#paint17_linear_21_19383)"/>
<path d="M-339.312 -268.085L1168.6 280.826L1169.58 278.378L-338.578 -270.533L-339.312 -268.085Z" fill="url(#paint18_linear_21_19383)"/>
<path d="M-342.949 -258.049L1165.21 290.862L1165.94 288.658L-342.215 -260.252L-342.949 -258.049Z" fill="url(#paint19_linear_21_19383)"/>
<path d="M-345.842 -250.454L-346.68 -248.154L1161.4 300.743L1162.24 298.442L-345.842 -250.454Z" fill="url(#paint20_linear_21_19383)"/>
<path d="M-350.312 -237.977L1157.85 311.179L1158.58 308.731L-349.578 -240.18L-350.312 -237.977Z" fill="url(#paint21_linear_21_19383)"/>
<path d="M-354.043 -227.935L1153.87 321.221L1154.85 318.773L-353.308 -230.138L-354.043 -227.935Z" fill="url(#paint22_linear_21_19383)"/>
<path d="M-357.68 -217.654L1150.23 331.256L1151.21 329.053L-356.945 -219.858L-357.68 -217.654Z" fill="url(#paint23_linear_21_19383)"/>
<path d="M-360.76 -209.868L-361.598 -207.568L1146.48 341.329L1147.32 339.028L-360.76 -209.868Z" fill="url(#paint24_linear_21_19383)"/>
<path d="M-365.043 -197.337L1142.87 351.573L1143.85 349.37L-364.308 -199.786L-365.043 -197.337Z" fill="url(#paint25_linear_21_19383)"/>
<path d="M-368.672 -187.289L1139.24 361.622L1140.22 359.418L-367.937 -189.493L-368.672 -187.289Z" fill="url(#paint26_linear_21_19383)"/>
<path d="M-372.594 -177.259L1135.81 371.651L1136.54 369.448L-371.614 -179.463L-372.594 -177.259Z" fill="url(#paint27_linear_21_19383)"/>
<path d="M-376.324 -166.973L1132.08 381.693L1132.81 379.49L-375.345 -169.421L-376.324 -166.973Z" fill="url(#paint28_linear_21_19383)"/>
<path d="M-379.957 -156.936L1128.2 391.975L1128.94 389.526L-378.978 -159.14L-379.957 -156.936Z" fill="url(#paint29_linear_21_19383)"/>
<path d="M-383.594 -146.895L1124.56 402.016L1125.54 399.568L-382.614 -149.098L-383.594 -146.895Z" fill="url(#paint30_linear_21_19383)"/>
<path d="M-387.324 -136.865L1120.83 412.046L1121.81 409.842L-386.345 -139.068L-387.324 -136.865Z" fill="url(#paint31_linear_21_19383)"/>
<path d="M-390.957 -126.823L1117.2 422.333L1118.18 420.129L-389.978 -129.026L-390.957 -126.823Z" fill="url(#paint32_linear_21_19383)"/>
<path d="M-394.688 -116.542L1113.47 432.369L1114.45 430.166L-393.708 -118.745L-394.688 -116.542Z" fill="url(#paint33_linear_21_19383)"/>
<path d="M-398.324 -106.5L1109.83 442.656L1110.81 440.208L-397.345 -108.703L-398.324 -106.5Z" fill="url(#paint34_linear_21_19383)"/>
<path d="M-401.957 -96.2128L1106.2 452.698L1106.94 450.25L-400.978 -98.6611L-401.957 -96.2128Z" fill="url(#paint35_linear_21_19383)"/>
<path d="M-405.688 -86.1774L1102.47 462.733L1103.2 460.53L-404.708 -88.3809L-405.688 -86.1774Z" fill="url(#paint36_linear_21_19383)"/>
<path d="M-409.324 -76.1471L1098.83 472.764L1099.81 470.56L-408.345 -78.3506L-409.324 -76.1471Z" fill="url(#paint37_linear_21_19383)"/>
<path d="M-413.051 -66.1051L1095.11 483.05L1096.09 480.602L-412.316 -68.3086L-413.051 -66.1051Z" fill="url(#paint38_linear_21_19383)"/>
<path d="M-416.684 -55.8244L1091.47 493.086L1092.21 490.883L-415.949 -58.0278L-416.684 -55.8244Z" fill="url(#paint39_linear_21_19383)"/>
<path d="M-420.316 -45.7824L1087.84 503.128L1088.58 500.68L-419.582 -47.9858L-420.316 -45.7824Z" fill="url(#paint40_linear_21_19383)"/>
<path d="M-424.047 -35.7404L1084.11 513.415L1084.85 510.967L-423.312 -37.9438L-424.047 -35.7404Z" fill="url(#paint41_linear_21_19383)"/>
<path d="M-427.684 -25.7044L1080.47 523.451L1081.21 521.248L-426.949 -27.6631L-427.684 -25.7044Z" fill="url(#paint42_linear_21_19383)"/>
<path d="M-430.479 -17.8534L-431.316 -15.5527L1076.76 533.344L1077.6 531.043L-430.479 -17.8534Z" fill="url(#paint43_linear_21_19383)"/>
<path d="M-435.047 -5.38783L1073.11 543.523L1073.85 541.319L-434.312 -7.59131L-435.047 -5.38783Z" fill="url(#paint44_linear_21_19383)"/>
<path d="M-438.68 4.65416L1069.48 553.81L1070.21 551.361L-437.945 2.45068L-438.68 4.65416Z" fill="url(#paint45_linear_21_19383)"/>
<path d="M-442.41 14.9354L1065.75 563.846L1066.48 561.643L-441.676 12.7319L-442.41 14.9354Z" fill="url(#paint46_linear_21_19383)"/>
<path d="M-446.047 24.9774L1062.11 573.888L1062.85 571.44L-445.312 22.7739L-446.047 24.9774Z" fill="url(#paint47_linear_21_19383)"/>
<path d="M-449.777 35.0072L1058.38 583.918L1059.12 581.714L-449.043 32.8037L-449.777 35.0072Z" fill="url(#paint48_linear_21_19383)"/>
<path d="M-453.41 45.2935L1054.75 594.204L1055.48 591.756L-452.676 42.8452L-453.41 45.2935Z" fill="url(#paint49_linear_21_19383)"/>
<path d="M-456.401 53.0133L-457.238 55.314L1050.84 604.211L1051.68 601.91L-456.401 53.0133Z" fill="url(#paint50_linear_21_19383)"/>
<path d="M-460.77 65.3719L1047.39 614.528L1048.12 612.079L-460.035 63.1685L-460.77 65.3719Z" fill="url(#paint51_linear_21_19383)"/>
<path d="M-464.406 75.4139L1043.75 624.57L1044.49 622.366L-463.672 73.2104L-464.406 75.4139Z" fill="url(#paint52_linear_21_19383)"/>
<path d="M-468.137 85.6947L1040.02 634.605L1040.76 632.402L-467.402 83.4912L-468.137 85.6947Z" fill="url(#paint53_linear_21_19383)"/>
<path d="M-471.77 95.725L1036.14 644.636L1037.12 642.432L-471.035 93.5215L-471.77 95.725Z" fill="url(#paint54_linear_21_19383)"/>
<path d="M-475.406 105.766L1032.51 654.677L1033.49 652.473L-474.672 103.562L-475.406 105.766Z" fill="url(#paint55_linear_21_19383)"/>
<path d="M-478.299 113.839L-479.137 116.14L1028.94 665.036L1029.78 662.736L-478.299 113.839Z" fill="url(#paint56_linear_21_19383)"/>
<path d="M-483.055 126.083L1025.1 674.994L1026.08 672.79L-482.075 123.635L-483.055 126.083Z" fill="url(#paint57_linear_21_19383)"/>
<path d="M-486.5 136.131L1021.66 685.042L1022.39 682.838L-485.766 133.928L-486.5 136.131Z" fill="url(#paint58_linear_21_19383)"/>
<path d="M-490.137 146.406L1017.78 695.317L1018.76 692.869L-489.402 143.958L-490.137 146.406Z" fill="url(#paint59_linear_21_19383)"/>
<path d="M-493.77 156.442L1014.14 705.108L1015.12 702.905L-493.035 154.239L-493.77 156.442Z" fill="url(#paint60_linear_21_19383)"/>
<path d="M-497.691 166.484L1010.47 715.395L1011.45 713.192L-496.712 164.281L-497.691 166.484Z" fill="url(#paint61_linear_21_19383)"/>
<path d="M-501.422 176.526L1006.74 725.681L1007.72 723.233L-500.443 174.322L-501.422 176.526Z" fill="url(#paint62_linear_21_19383)"/>
<path d="M-505.051 186.801L1003.11 735.712L1004.09 733.508L-504.071 184.353L-505.051 186.801Z" fill="url(#paint63_linear_21_19383)"/>
<path d="M-508.781 196.849L999.377 745.76L1000.36 743.556L-507.802 194.646L-508.781 196.849Z" fill="url(#paint64_linear_21_19383)"/>
<path d="M-512.414 206.879L995.744 756.034L996.723 753.586L-511.435 204.675L-512.414 206.879Z" fill="url(#paint65_linear_21_19383)"/>
<path d="M-516.051 216.921L992.107 765.831L993.087 763.628L-515.071 214.717L-516.051 216.921Z" fill="url(#paint66_linear_21_19383)"/>
<path d="M-519.781 227.202L988.377 776.113L989.111 773.909L-518.802 224.999L-519.781 227.202Z" fill="url(#paint67_linear_21_19383)"/>
<path d="M-523.414 237.488L984.744 786.154L985.478 783.951L-522.435 235.04L-523.414 237.488Z" fill="url(#paint68_linear_21_19383)"/>
<path d="M-527.145 247.53L981.014 796.196L981.748 794.238L-526.165 245.082L-527.145 247.53Z" fill="url(#paint69_linear_21_19383)"/>
<path d="M-530.781 257.56L977.377 806.471L978.356 804.267L-529.802 255.112L-530.781 257.56Z" fill="url(#paint70_linear_21_19383)"/>
<path d="M-534.414 267.597L973.744 816.507L974.478 814.304L-533.435 265.393L-534.414 267.597Z" fill="url(#paint71_linear_21_19383)"/>
<path d="M-538.145 277.883L970.013 826.794L970.748 824.346L-537.41 275.435L-538.145 277.883Z" fill="url(#paint72_linear_21_19383)"/>
<path d="M-540.944 285.639L-541.781 287.939L966.3 836.836L967.137 834.535L-540.944 285.639Z" fill="url(#paint73_linear_21_19383)"/>
<path d="M-545.512 297.961L962.646 846.872L963.381 844.668L-544.777 295.757L-545.512 297.961Z" fill="url(#paint74_linear_21_19383)"/>
<path d="M-549.141 308.003L959.017 856.914L959.752 854.71L-548.161 305.799L-549.141 308.003Z" fill="url(#paint75_linear_21_19383)"/>
<path d="M-552.773 318.033L955.385 867.188L956.119 864.74L-552.039 315.829L-552.773 318.033Z" fill="url(#paint76_linear_21_19383)"/>
<path d="M-556.504 328.314L951.654 877.225L952.389 874.776L-555.769 326.11L-556.504 328.314Z" fill="url(#paint77_linear_21_19383)"/>
<path d="M-560.141 338.356L948.017 887.511L948.752 885.063L-559.406 336.152L-560.141 338.356Z" fill="url(#paint78_linear_21_19383)"/>
<path d="M-563.867 348.643L944.291 897.553L945.025 895.105L-563.133 346.194L-563.867 348.643Z" fill="url(#paint79_linear_21_19383)"/>
<path d="M-567.504 358.679L940.654 907.345L941.389 905.386L-566.769 356.476L-567.504 358.679Z" fill="url(#paint80_linear_21_19383)"/>
</g>
</g>
<defs>
<linearGradient id="paint0_linear_21_19383" x1="-273.23" y1="-177.012" x2="1235.91" y2="-177.012" gradientUnits="userSpaceOnUse">
<stop stop-color="#162476"/>
<stop offset="1" stop-color="#25767D"/>
</linearGradient>
<linearGradient id="paint1_linear_21_19383" x1="-276.867" y1="-166.725" x2="1232.27" y2="-166.725" gradientUnits="userSpaceOnUse">
<stop stop-color="#162476"/>
<stop offset="1" stop-color="#25767D"/>
</linearGradient>
<linearGradient id="paint2_linear_21_19383" x1="-280.594" y1="-156.689" x2="1228.3" y2="-156.689" gradientUnits="userSpaceOnUse">
<stop stop-color="#162476"/>
<stop offset="1" stop-color="#25767D"/>
</linearGradient>
<linearGradient id="paint3_linear_21_19383" x1="-284.227" y1="-146.402" x2="1224.67" y2="-146.402" gradientUnits="userSpaceOnUse">
<stop stop-color="#162476"/>
<stop offset="1" stop-color="#25767D"/>
</linearGradient>
<linearGradient id="paint4_linear_21_19383" x1="-287.859" y1="-136.373" x2="1221.03" y2="-136.373" gradientUnits="userSpaceOnUse">
<stop stop-color="#162476"/>
<stop offset="1" stop-color="#25767D"/>
</linearGradient>
<linearGradient id="paint5_linear_21_19383" x1="-291.59" y1="-126.337" x2="1217.3" y2="-126.337" gradientUnits="userSpaceOnUse">
<stop stop-color="#162476"/>
<stop offset="1" stop-color="#25767D"/>
</linearGradient>
<linearGradient id="paint6_linear_21_19383" x1="-295.223" y1="-116.05" x2="1213.67" y2="-116.05" gradientUnits="userSpaceOnUse">
<stop stop-color="#162476"/>
<stop offset="1" stop-color="#25767D"/>
</linearGradient>
<linearGradient id="paint7_linear_21_19383" x1="-298.953" y1="-106.008" x2="1209.94" y2="-106.008" gradientUnits="userSpaceOnUse">
<stop stop-color="#162476"/>
<stop offset="1" stop-color="#25767D"/>
</linearGradient>
<linearGradient id="paint8_linear_21_19383" x1="-302.59" y1="-95.9715" x2="1206.3" y2="-95.9715" gradientUnits="userSpaceOnUse">
<stop stop-color="#162476"/>
<stop offset="1" stop-color="#25767D"/>
</linearGradient>
<linearGradient id="paint9_linear_21_19383" x1="-306.223" y1="-85.9295" x2="1202.67" y2="-85.9295" gradientUnits="userSpaceOnUse">
<stop stop-color="#162476"/>
<stop offset="1" stop-color="#25767D"/>
</linearGradient>
<linearGradient id="paint10_linear_21_19383" x1="-309.953" y1="-75.6555" x2="1198.94" y2="-75.6555" gradientUnits="userSpaceOnUse">
<stop stop-color="#162476"/>
<stop offset="1" stop-color="#25767D"/>
</linearGradient>
<linearGradient id="paint11_linear_21_19383" x1="-313.59" y1="-65.6135" x2="1195.3" y2="-65.6135" gradientUnits="userSpaceOnUse">
<stop stop-color="#162476"/>
<stop offset="1" stop-color="#25767D"/>
</linearGradient>
<linearGradient id="paint12_linear_21_19383" x1="-317.32" y1="-55.577" x2="1191.57" y2="-55.577" gradientUnits="userSpaceOnUse">
<stop stop-color="#162476"/>
<stop offset="1" stop-color="#25767D"/>
</linearGradient>
<linearGradient id="paint13_linear_21_19383" x1="-320.953" y1="-45.535" x2="1187.94" y2="-45.535" gradientUnits="userSpaceOnUse">
<stop stop-color="#162476"/>
<stop offset="1" stop-color="#25767D"/>
</linearGradient>
<linearGradient id="paint14_linear_21_19383" x1="-324.582" y1="-35.2599" x2="1184.31" y2="-35.2599" gradientUnits="userSpaceOnUse">
<stop stop-color="#162476"/>
<stop offset="1" stop-color="#25767D"/>
</linearGradient>
<linearGradient id="paint15_linear_21_19383" x1="-328.312" y1="-25.2118" x2="1180.58" y2="-25.2118" gradientUnits="userSpaceOnUse">
<stop stop-color="#162476"/>
<stop offset="1" stop-color="#25767D"/>
</linearGradient>
<linearGradient id="paint16_linear_21_19383" x1="-331.949" y1="-15.182" x2="1176.94" y2="-15.182" gradientUnits="userSpaceOnUse">
<stop stop-color="#162476"/>
<stop offset="1" stop-color="#25767D"/>
</linearGradient>
<linearGradient id="paint17_linear_21_19383" x1="-335.68" y1="-4.89566" x2="1173.21" y2="-4.89566" gradientUnits="userSpaceOnUse">
<stop stop-color="#162476"/>
<stop offset="1" stop-color="#25767D"/>
</linearGradient>
<linearGradient id="paint18_linear_21_19383" x1="-339.312" y1="5.14633" x2="1169.58" y2="5.14633" gradientUnits="userSpaceOnUse">
<stop stop-color="#162476"/>
<stop offset="1" stop-color="#25767D"/>
</linearGradient>
<linearGradient id="paint19_linear_21_19383" x1="-342.949" y1="15.1823" x2="1165.94" y2="15.1823" gradientUnits="userSpaceOnUse">
<stop stop-color="#162476"/>
<stop offset="1" stop-color="#25767D"/>
</linearGradient>
<linearGradient id="paint20_linear_21_19383" x1="-346.647" y1="25.1221" x2="1162.24" y2="25.1146" gradientUnits="userSpaceOnUse">
<stop stop-color="#162476"/>
<stop offset="1" stop-color="#25767D"/>
</linearGradient>
<linearGradient id="paint21_linear_21_19383" x1="-350.312" y1="35.4994" x2="1158.58" y2="35.4994" gradientUnits="userSpaceOnUse">
<stop stop-color="#162476"/>
<stop offset="1" stop-color="#25767D"/>
</linearGradient>
<linearGradient id="paint22_linear_21_19383" x1="-354.043" y1="45.5414" x2="1154.85" y2="45.5414" gradientUnits="userSpaceOnUse">
<stop stop-color="#162476"/>
<stop offset="1" stop-color="#25767D"/>
</linearGradient>
<linearGradient id="paint23_linear_21_19383" x1="-357.68" y1="55.5768" x2="1151.21" y2="55.5768" gradientUnits="userSpaceOnUse">
<stop stop-color="#162476"/>
<stop offset="1" stop-color="#25767D"/>
</linearGradient>
<linearGradient id="paint24_linear_21_19383" x1="-361.517" y1="65.8584" x2="1147.37" y2="65.851" gradientUnits="userSpaceOnUse">
<stop stop-color="#162476"/>
<stop offset="1" stop-color="#25767D"/>
</linearGradient>
<linearGradient id="paint25_linear_21_19383" x1="-365.043" y1="75.8939" x2="1143.85" y2="75.8939" gradientUnits="userSpaceOnUse">
<stop stop-color="#162476"/>
<stop offset="1" stop-color="#25767D"/>
</linearGradient>
<linearGradient id="paint26_linear_21_19383" x1="-368.672" y1="85.942" x2="1140.22" y2="85.942" gradientUnits="userSpaceOnUse">
<stop stop-color="#162476"/>
<stop offset="1" stop-color="#25767D"/>
</linearGradient>
<linearGradient id="paint27_linear_21_19383" x1="-372.594" y1="95.9718" x2="1136.54" y2="95.9718" gradientUnits="userSpaceOnUse">
<stop stop-color="#162476"/>
<stop offset="1" stop-color="#25767D"/>
</linearGradient>
<linearGradient id="paint28_linear_21_19383" x1="-376.324" y1="106.259" x2="1132.81" y2="106.259" gradientUnits="userSpaceOnUse">
<stop stop-color="#162476"/>
<stop offset="1" stop-color="#25767D"/>
</linearGradient>
<linearGradient id="paint29_linear_21_19383" x1="-379.957" y1="116.295" x2="1128.94" y2="116.295" gradientUnits="userSpaceOnUse">
<stop stop-color="#162476"/>
<stop offset="1" stop-color="#25767D"/>
</linearGradient>
<linearGradient id="paint30_linear_21_19383" x1="-383.594" y1="126.581" x2="1125.54" y2="126.581" gradientUnits="userSpaceOnUse">
<stop stop-color="#162476"/>
<stop offset="1" stop-color="#25767D"/>
</linearGradient>
<linearGradient id="paint31_linear_21_19383" x1="-387.324" y1="136.611" x2="1121.81" y2="136.611" gradientUnits="userSpaceOnUse">
<stop stop-color="#162476"/>
<stop offset="1" stop-color="#25767D"/>
</linearGradient>
<linearGradient id="paint32_linear_21_19383" x1="-390.957" y1="146.653" x2="1118.18" y2="146.653" gradientUnits="userSpaceOnUse">
<stop stop-color="#162476"/>
<stop offset="1" stop-color="#25767D"/>
</linearGradient>
<linearGradient id="paint33_linear_21_19383" x1="-394.688" y1="156.934" x2="1114.45" y2="156.934" gradientUnits="userSpaceOnUse">
<stop stop-color="#162476"/>
<stop offset="1" stop-color="#25767D"/>
</linearGradient>
<linearGradient id="paint34_linear_21_19383" x1="-398.324" y1="166.976" x2="1110.81" y2="166.976" gradientUnits="userSpaceOnUse">
<stop stop-color="#162476"/>
<stop offset="1" stop-color="#25767D"/>
</linearGradient>
<linearGradient id="paint35_linear_21_19383" x1="-401.957" y1="177.018" x2="1106.94" y2="177.018" gradientUnits="userSpaceOnUse">
<stop stop-color="#162476"/>
<stop offset="1" stop-color="#25767D"/>
</linearGradient>
<linearGradient id="paint36_linear_21_19383" x1="-405.688" y1="187.054" x2="1103.2" y2="187.054" gradientUnits="userSpaceOnUse">
<stop stop-color="#162476"/>
<stop offset="1" stop-color="#25767D"/>
</linearGradient>
<linearGradient id="paint37_linear_21_19383" x1="-409.324" y1="197.084" x2="1099.81" y2="197.084" gradientUnits="userSpaceOnUse">
<stop stop-color="#162476"/>
<stop offset="1" stop-color="#25767D"/>
</linearGradient>
<linearGradient id="paint38_linear_21_19383" x1="-413.051" y1="207.371" x2="1096.09" y2="207.371" gradientUnits="userSpaceOnUse">
<stop stop-color="#162476"/>
<stop offset="1" stop-color="#25767D"/>
</linearGradient>
<linearGradient id="paint39_linear_21_19383" x1="-416.684" y1="217.407" x2="1092.21" y2="217.407" gradientUnits="userSpaceOnUse">
<stop stop-color="#162476"/>
<stop offset="1" stop-color="#25767D"/>
</linearGradient>
<linearGradient id="paint40_linear_21_19383" x1="-420.316" y1="227.449" x2="1088.58" y2="227.449" gradientUnits="userSpaceOnUse">
<stop stop-color="#162476"/>
<stop offset="1" stop-color="#25767D"/>
</linearGradient>
<linearGradient id="paint41_linear_21_19383" x1="-424.047" y1="237.736" x2="1084.85" y2="237.736" gradientUnits="userSpaceOnUse">
<stop stop-color="#162476"/>
<stop offset="1" stop-color="#25767D"/>
</linearGradient>
<linearGradient id="paint42_linear_21_19383" x1="-427.684" y1="247.772" x2="1081.21" y2="247.772" gradientUnits="userSpaceOnUse">
<stop stop-color="#162476"/>
<stop offset="1" stop-color="#25767D"/>
</linearGradient>
<linearGradient id="paint43_linear_21_19383" x1="-431.337" y1="257.716" x2="1077.55" y2="257.709" gradientUnits="userSpaceOnUse">
<stop stop-color="#162476"/>
<stop offset="1" stop-color="#25767D"/>
</linearGradient>
<linearGradient id="paint44_linear_21_19383" x1="-435.047" y1="268.088" x2="1073.85" y2="268.088" gradientUnits="userSpaceOnUse">
<stop stop-color="#162476"/>
<stop offset="1" stop-color="#25767D"/>
</linearGradient>
<linearGradient id="paint45_linear_21_19383" x1="-438.68" y1="278.13" x2="1070.21" y2="278.13" gradientUnits="userSpaceOnUse">
<stop stop-color="#162476"/>
<stop offset="1" stop-color="#25767D"/>
</linearGradient>
<linearGradient id="paint46_linear_21_19383" x1="-442.41" y1="288.167" x2="1066.48" y2="288.167" gradientUnits="userSpaceOnUse">
<stop stop-color="#162476"/>
<stop offset="1" stop-color="#25767D"/>
</linearGradient>
<linearGradient id="paint47_linear_21_19383" x1="-446.047" y1="298.209" x2="1062.85" y2="298.209" gradientUnits="userSpaceOnUse">
<stop stop-color="#162476"/>
<stop offset="1" stop-color="#25767D"/>
</linearGradient>
<linearGradient id="paint48_linear_21_19383" x1="-449.777" y1="308.483" x2="1059.12" y2="308.483" gradientUnits="userSpaceOnUse">
<stop stop-color="#162476"/>
<stop offset="1" stop-color="#25767D"/>
</linearGradient>
<linearGradient id="paint49_linear_21_19383" x1="-453.41" y1="318.525" x2="1055.48" y2="318.525" gradientUnits="userSpaceOnUse">
<stop stop-color="#162476"/>
<stop offset="1" stop-color="#25767D"/>
</linearGradient>
<linearGradient id="paint50_linear_21_19383" x1="-457.175" y1="328.479" x2="1051.72" y2="328.471" gradientUnits="userSpaceOnUse">
<stop stop-color="#162476"/>
<stop offset="1" stop-color="#25767D"/>
</linearGradient>
<linearGradient id="paint51_linear_21_19383" x1="-460.77" y1="338.848" x2="1048.12" y2="338.848" gradientUnits="userSpaceOnUse">
<stop stop-color="#162476"/>
<stop offset="1" stop-color="#25767D"/>
</linearGradient>
<linearGradient id="paint52_linear_21_19383" x1="-464.406" y1="348.89" x2="1044.49" y2="348.89" gradientUnits="userSpaceOnUse">
<stop stop-color="#162476"/>
<stop offset="1" stop-color="#25767D"/>
</linearGradient>
<linearGradient id="paint53_linear_21_19383" x1="-468.137" y1="358.926" x2="1040.76" y2="358.926" gradientUnits="userSpaceOnUse">
<stop stop-color="#162476"/>
<stop offset="1" stop-color="#25767D"/>
</linearGradient>
<linearGradient id="paint54_linear_21_19383" x1="-471.77" y1="369.201" x2="1037.12" y2="369.201" gradientUnits="userSpaceOnUse">
<stop stop-color="#162476"/>
<stop offset="1" stop-color="#25767D"/>
</linearGradient>
<linearGradient id="paint55_linear_21_19383" x1="-475.406" y1="379.242" x2="1033.49" y2="379.242" gradientUnits="userSpaceOnUse">
<stop stop-color="#162476"/>
<stop offset="1" stop-color="#25767D"/>
</linearGradient>
<linearGradient id="paint56_linear_21_19383" x1="-479.005" y1="389.294" x2="1029.89" y2="389.305" gradientUnits="userSpaceOnUse">
<stop stop-color="#162476"/>
<stop offset="1" stop-color="#25767D"/>
</linearGradient>
<linearGradient id="paint57_linear_21_19383" x1="-483.055" y1="399.314" x2="1026.08" y2="399.314" gradientUnits="userSpaceOnUse">
<stop stop-color="#162476"/>
<stop offset="1" stop-color="#25767D"/>
</linearGradient>
<linearGradient id="paint58_linear_21_19383" x1="-486.5" y1="409.362" x2="1022.39" y2="409.362" gradientUnits="userSpaceOnUse">
<stop stop-color="#162476"/>
<stop offset="1" stop-color="#25767D"/>
</linearGradient>
<linearGradient id="paint59_linear_21_19383" x1="-490.137" y1="419.638" x2="1018.76" y2="419.638" gradientUnits="userSpaceOnUse">
<stop stop-color="#162476"/>
<stop offset="1" stop-color="#25767D"/>
</linearGradient>
<linearGradient id="paint60_linear_21_19383" x1="-493.77" y1="429.673" x2="1015.12" y2="429.673" gradientUnits="userSpaceOnUse">
<stop stop-color="#162476"/>
<stop offset="1" stop-color="#25767D"/>
</linearGradient>
<linearGradient id="paint61_linear_21_19383" x1="-497.691" y1="439.96" x2="1011.45" y2="439.96" gradientUnits="userSpaceOnUse">
<stop stop-color="#162476"/>
<stop offset="1" stop-color="#25767D"/>
</linearGradient>
<linearGradient id="paint62_linear_21_19383" x1="-501.422" y1="450.002" x2="1007.72" y2="450.002" gradientUnits="userSpaceOnUse">
<stop stop-color="#162476"/>
<stop offset="1" stop-color="#25767D"/>
</linearGradient>
<linearGradient id="paint63_linear_21_19383" x1="-505.051" y1="460.032" x2="1004.09" y2="460.032" gradientUnits="userSpaceOnUse">
<stop stop-color="#162476"/>
<stop offset="1" stop-color="#25767D"/>
</linearGradient>
<linearGradient id="paint64_linear_21_19383" x1="-508.781" y1="470.08" x2="1000.36" y2="470.08" gradientUnits="userSpaceOnUse">
<stop stop-color="#162476"/>
<stop offset="1" stop-color="#25767D"/>
</linearGradient>
<linearGradient id="paint65_linear_21_19383" x1="-512.414" y1="480.355" x2="996.723" y2="480.355" gradientUnits="userSpaceOnUse">
<stop stop-color="#162476"/>
<stop offset="1" stop-color="#25767D"/>
</linearGradient>
<linearGradient id="paint66_linear_21_19383" x1="-516.051" y1="490.397" x2="993.087" y2="490.397" gradientUnits="userSpaceOnUse">
<stop stop-color="#162476"/>
<stop offset="1" stop-color="#25767D"/>
</linearGradient>
<linearGradient id="paint67_linear_21_19383" x1="-519.781" y1="500.433" x2="989.111" y2="500.433" gradientUnits="userSpaceOnUse">
<stop stop-color="#162476"/>
<stop offset="1" stop-color="#25767D"/>
</linearGradient>
<linearGradient id="paint68_linear_21_19383" x1="-523.414" y1="510.475" x2="985.478" y2="510.475" gradientUnits="userSpaceOnUse">
<stop stop-color="#162476"/>
<stop offset="1" stop-color="#25767D"/>
</linearGradient>
<linearGradient id="paint69_linear_21_19383" x1="-527.145" y1="520.517" x2="981.748" y2="520.517" gradientUnits="userSpaceOnUse">
<stop stop-color="#162476"/>
<stop offset="1" stop-color="#25767D"/>
</linearGradient>
<linearGradient id="paint70_linear_21_19383" x1="-530.781" y1="530.791" x2="978.356" y2="530.791" gradientUnits="userSpaceOnUse">
<stop stop-color="#162476"/>
<stop offset="1" stop-color="#25767D"/>
</linearGradient>
<linearGradient id="paint71_linear_21_19383" x1="-534.414" y1="541.073" x2="974.478" y2="541.073" gradientUnits="userSpaceOnUse">
<stop stop-color="#162476"/>
<stop offset="1" stop-color="#25767D"/>
</linearGradient>
<linearGradient id="paint72_linear_21_19383" x1="-538.145" y1="551.115" x2="970.748" y2="551.115" gradientUnits="userSpaceOnUse">
<stop stop-color="#162476"/>
<stop offset="1" stop-color="#25767D"/>
</linearGradient>
<linearGradient id="paint73_linear_21_19383" x1="-541.856" y1="561.332" x2="967.037" y2="561.333" gradientUnits="userSpaceOnUse">
<stop stop-color="#162476"/>
<stop offset="1" stop-color="#25767D"/>
</linearGradient>
<linearGradient id="paint74_linear_21_19383" x1="-545.512" y1="571.192" x2="963.381" y2="571.192" gradientUnits="userSpaceOnUse">
<stop stop-color="#162476"/>
<stop offset="1" stop-color="#25767D"/>
</linearGradient>
<linearGradient id="paint75_linear_21_19383" x1="-549.141" y1="581.479" x2="959.752" y2="581.479" gradientUnits="userSpaceOnUse">
<stop stop-color="#162476"/>
<stop offset="1" stop-color="#25767D"/>
</linearGradient>
<linearGradient id="paint76_linear_21_19383" x1="-552.773" y1="591.509" x2="956.119" y2="591.509" gradientUnits="userSpaceOnUse">
<stop stop-color="#162476"/>
<stop offset="1" stop-color="#25767D"/>
</linearGradient>
<linearGradient id="paint77_linear_21_19383" x1="-556.504" y1="601.545" x2="952.389" y2="601.545" gradientUnits="userSpaceOnUse">
<stop stop-color="#162476"/>
<stop offset="1" stop-color="#25767D"/>
</linearGradient>
<linearGradient id="paint78_linear_21_19383" x1="-560.141" y1="611.832" x2="948.752" y2="611.832" gradientUnits="userSpaceOnUse">
<stop stop-color="#162476"/>
<stop offset="1" stop-color="#25767D"/>
</linearGradient>
<linearGradient id="paint79_linear_21_19383" x1="-563.867" y1="621.874" x2="945.025" y2="621.874" gradientUnits="userSpaceOnUse">
<stop stop-color="#162476"/>
<stop offset="1" stop-color="#25767D"/>
</linearGradient>
<linearGradient id="paint80_linear_21_19383" x1="-567.504" y1="631.91" x2="941.389" y2="631.91" gradientUnits="userSpaceOnUse">
<stop stop-color="#162476"/>
<stop offset="1" stop-color="#25767D"/>
</linearGradient>
</defs>
</svg>
