<svg width="259" height="307" viewBox="0 0 259 307" fill="none" xmlns="http://www.w3.org/2000/svg">
<path d="M254.151 307C251.705 307 249.608 305.156 249.342 302.671L242.28 236.63C241.064 226.939 234.969 217.675 224.655 209.828C216.35 203.511 205.713 198.306 193.607 194.605V237.384C202.217 239.551 208.608 247.354 208.608 256.627C208.608 267.573 199.706 276.475 188.764 276.475C177.822 276.475 168.916 267.573 168.916 256.627C168.916 247.358 175.311 239.551 183.921 237.384V192.028C177.761 190.59 171.422 189.426 165.01 188.545L133.46 232.998C132.554 234.28 131.08 235.039 129.511 235.039C127.941 235.039 126.468 234.28 125.561 232.998L94.0209 188.545C89.9928 189.094 85.9996 189.761 82.0587 190.533V229.262H93.428C104.985 229.262 114.384 238.657 114.384 250.205V293.019C114.384 295.116 113.037 296.973 111.04 297.623L99.6271 301.346C97.0812 302.174 94.3479 300.783 93.5196 298.242C92.6913 295.7 94.0819 292.963 96.6235 292.134L104.697 289.501V250.205C104.697 244.102 99.5356 238.949 93.428 238.949H61.0027C54.8908 238.949 49.7249 244.102 49.7249 250.205V289.501L57.8029 292.134C60.3445 292.963 61.7351 295.696 60.9068 298.242C60.0785 300.783 57.3452 302.174 54.7993 301.346L43.3776 297.623C41.3854 296.973 40.034 295.116 40.034 293.019V250.205C40.034 238.853 49.6334 229.262 60.9984 229.262H72.3677V192.682C72.1977 192.726 72.0277 192.765 71.8577 192.809C57.0793 196.523 44.11 202.408 34.358 209.824C24.0393 217.671 17.9492 226.934 16.7329 236.621L9.66195 302.662C9.37859 305.322 6.99399 307.249 4.33039 306.965C1.67115 306.682 -0.255713 304.293 0.0276487 301.634L7.10297 235.549C7.10297 235.523 7.10733 235.496 7.11169 235.466C8.64184 223.116 16.0354 211.58 28.4902 202.112C39.2754 193.907 53.4566 187.442 69.4949 183.41C70.7504 183.096 72.0146 182.791 73.2876 182.494C74.1682 181.282 75.598 180.493 77.211 180.493C78.0873 180.493 78.9112 180.729 79.6218 181.134C84.901 180.083 90.2718 179.22 95.6906 178.553C97.4561 178.335 99.2042 179.107 100.233 180.559L129.511 221.821L158.793 180.559C159.822 179.107 161.57 178.335 163.336 178.553C170.825 179.477 178.236 180.777 185.429 182.429C186.297 181.605 187.474 181.099 188.764 181.099C190.913 181.099 192.735 182.499 193.368 184.439C207.828 188.502 220.605 194.574 230.518 202.116C242.969 211.585 250.358 223.12 251.897 235.47C251.897 235.496 251.901 235.527 251.906 235.553L258.972 301.638C259.256 304.297 257.333 306.686 254.67 306.97C254.495 306.987 254.321 306.996 254.146 306.996L254.151 307ZM188.764 246.473C183.162 246.473 178.602 251.029 178.602 256.627C178.602 262.224 183.162 266.788 188.764 266.788C194.366 266.788 198.917 262.229 198.917 256.627C198.917 251.025 194.361 246.473 188.764 246.473ZM153.562 175.297C151.025 175.297 148.893 173.322 148.732 170.759C148.566 168.091 150.593 165.789 153.261 165.619C172.508 164.407 185.882 156.386 194.139 141.097C200.757 128.843 204.118 111.893 204.419 89.2718C204.802 60.36 193.638 35.6637 173.781 21.5217C156.16 8.96648 133.574 6.26798 111.816 14.115C111.341 14.285 110.844 14.3809 110.343 14.3984C93.1316 15 79.7918 20.3926 70.6937 30.4324C58.2955 44.1167 53.0206 66.9471 55.0085 98.2785C59.0497 137.823 68.8671 162.803 105.172 165.152C107.84 165.327 109.867 167.629 109.693 170.301C109.519 172.969 107.212 174.996 104.549 174.822C83.5322 173.461 68.6579 165.257 59.0672 149.737C50.0432 135.138 47.0788 115.982 45.3655 99.1721C45.3612 99.1111 45.3524 99.0501 45.3524 98.9891C43.1727 64.8982 49.2846 39.6439 63.5225 23.9325C74.3033 12.0312 89.6877 5.57919 109.257 4.74654C133.831 -3.87645 159.36 -0.654817 179.413 13.6311C201.895 29.6477 214.541 57.2648 214.114 89.4026C213.796 113.624 210.051 132.042 202.675 145.705C192.836 163.923 176.422 173.876 153.88 175.292C153.775 175.301 153.675 175.301 153.57 175.301L153.562 175.297ZM129.515 168.697C119.724 168.697 110.164 165.636 101.868 159.847C93.1795 153.783 86.0868 144.798 81.3525 133.865C79.8746 130.442 78.763 126.863 77.926 122.783C69.9308 119.657 63.9846 110.733 64.1284 101.278C64.2592 92.7943 68.6186 86.3946 75.986 83.5348C76.6487 73.4296 80.4719 65.2469 86.5271 61.2362C90.128 58.8516 96.2137 56.794 104.776 60.5169C107.134 61.5458 109.601 62.749 112.208 64.0306C126.376 70.9665 159.437 78.831 175.17 67.9759C177.371 66.4589 180.388 67.0081 181.909 69.2097C183.431 71.4112 182.877 74.4279 180.676 75.9494C160.278 90.026 122.863 80.0298 107.954 72.7321C105.443 71.5027 103.071 70.3431 100.913 69.4015C97.1902 67.7798 94.2389 67.7536 91.8804 69.3143C87.97 71.9038 85.4939 78.9007 85.5767 87.1401C85.5985 89.4637 83.9725 91.4734 81.6925 91.9355C76.4786 92.9904 73.9022 96.0944 73.8194 101.426C73.7322 107.385 78.0001 113.349 82.9567 114.177C85.0013 114.522 86.6012 116.126 86.9325 118.171C87.6823 122.757 88.7373 126.519 90.25 130.02C98.1057 148.172 112.788 159.014 129.52 159.014C146.251 159.014 160.934 148.177 168.789 130.02C170.223 126.702 171.331 122.796 172.172 118.079C172.534 116.056 174.129 114.483 176.157 114.147C181.109 113.336 185.368 107.39 185.272 101.426C185.189 96.1075 182.622 93.0035 177.421 91.9311C175.206 91.4734 173.602 89.5421 173.558 87.2796L173.532 85.9935C173.454 81.8608 173.375 77.9547 173.388 74.2187C173.397 71.5507 175.564 69.3928 178.232 69.3928H178.249C180.926 69.4015 183.084 71.5769 183.075 74.2535C183.066 77.2093 183.114 80.3132 183.175 83.5653C190.495 86.4469 194.824 92.8379 194.959 101.278C195.107 110.764 189.143 119.692 181.118 122.783C180.22 126.959 179.086 130.608 177.678 133.865C172.944 144.802 165.851 153.787 157.163 159.851C148.867 165.641 139.306 168.701 129.515 168.701V168.697Z" fill="url(#paint0_linear_225_11954)"/>
<defs>
<linearGradient id="paint0_linear_225_11954" x1="129.5" y1="0" x2="129.5" y2="307" gradientUnits="userSpaceOnUse">
<stop stop-color="#754BBC"/>
<stop offset="1" stop-color="#AF90E3"/>
</linearGradient>
</defs>
</svg>
