<svg width="152" height="160" viewBox="0 0 152 160" fill="none" xmlns="http://www.w3.org/2000/svg">
<path d="M116.392 118.975C116.144 118.975 115.897 118.918 115.669 118.804C99.4387 110.657 99.2327 101.479 98.891 86.2749C98.8722 85.4551 99.4813 84.7545 100.298 84.655C112.259 83.1947 114.874 76.9041 114.898 76.8401C115.136 76.2351 115.72 75.836 116.373 75.8281H116.391C117.033 75.8281 117.613 76.2085 117.865 76.7958C117.992 77.0825 120.891 83.3001 132.474 84.654C133.296 84.7496 133.909 85.4521 133.891 86.2749C133.547 101.482 133.339 110.662 117.113 118.805C116.886 118.918 116.638 118.975 116.391 118.975H116.392ZM102.131 87.6199C102.454 101.399 103.047 108.648 116.392 115.585C129.729 108.653 130.326 101.402 130.652 87.6259C122.546 86.3478 118.367 82.7749 116.408 80.3687C114.48 82.7661 110.339 86.2986 102.13 87.6209L102.131 87.6199Z" fill="#70BF4D"/>
<path d="M114.351 106.052H114.342C113.91 106.049 113.506 105.842 113.252 105.495L108.937 99.601C108.494 98.997 108.628 98.1506 109.236 97.7101C109.843 97.2697 110.695 97.4027 111.136 98.0077L114.368 102.422L122.745 91.3063C123.195 90.7081 124.048 90.5869 124.649 91.0353C125.25 91.4836 125.372 92.332 124.921 92.9301L115.441 105.51C115.184 105.851 114.78 106.052 114.352 106.052H114.351Z" fill="#70BF4D"/>
<path d="M150.396 136.186C149.51 136.186 148.791 135.471 148.791 134.589V61.1917C148.791 60.162 147.996 59.3244 147.02 59.3244H137.624C136.739 59.3244 136.02 58.61 136.02 57.7281C136.02 56.8462 136.738 56.1318 137.624 56.1318H147.02C149.766 56.1318 151.999 58.4011 151.999 61.1907V134.588C151.999 135.469 151.281 136.185 150.395 136.185L150.396 136.186Z" fill="#1FA8B6"/>
<path d="M96.6268 56.1328H87.4639C84.7176 56.1328 82.4844 58.4021 82.4844 61.1917V98.3043C82.6418 98.3989 82.7874 98.5132 82.9112 98.6502C83.6877 99.5064 84.3027 100.487 84.9425 101.445C85.0762 101.646 85.2069 101.849 85.3188 102.063C85.3317 102.088 85.3426 102.115 85.3554 102.14C85.4644 102.304 85.5674 102.47 85.6634 102.644C85.6733 102.663 85.6833 102.681 85.6932 102.701V61.1936C85.6932 60.1639 86.4884 59.3264 87.4649 59.3264H96.6278C97.5132 59.3264 98.2322 58.612 98.2322 57.7301C98.2322 56.8482 97.5142 56.1338 96.6278 56.1338L96.6268 56.1328Z" fill="#1FA8B6"/>
<path d="M144.724 116.992C143.838 116.992 143.119 116.278 143.119 115.396V65.1452H139.163C138.278 65.1452 137.559 64.4308 137.559 63.5489C137.559 62.667 138.277 61.9526 139.163 61.9526H144.723C145.608 61.9526 146.327 62.667 146.327 63.5489V115.396C146.327 116.277 145.609 116.992 144.723 116.992H144.724Z" fill="#1FA8B6"/>
<path d="M130.365 136.186H89.7606C88.8753 136.186 88.1562 135.471 88.1562 134.59V63.5489C88.1562 62.668 88.8743 61.9526 89.7606 61.9526H94.8036C95.689 61.9526 96.408 62.667 96.408 63.5489C96.408 64.4308 95.69 65.1452 94.8036 65.1452H91.364V132.994H130.364C131.249 132.994 131.968 133.709 131.968 134.591C131.968 135.472 131.25 136.187 130.364 136.187L130.365 136.186Z" fill="#1FA8B6"/>
<path d="M135.043 67.4379H99.4406C98.9543 67.4379 98.4948 67.2182 98.1897 66.8408C97.8847 66.4634 97.7688 65.9697 97.8738 65.4968L98.9711 60.564C99.6594 57.4739 102.362 55.316 105.542 55.316H109.789C110.15 51.5421 113.354 48.5811 117.24 48.5811C121.127 48.5811 124.33 51.5421 124.692 55.316H128.939C132.12 55.316 134.822 57.4749 135.51 60.565L136.608 65.4968C136.713 65.9687 136.597 66.4634 136.292 66.8408C135.987 67.2182 135.527 67.4379 135.041 67.4379H135.043ZM101.439 64.2463H133.046L132.379 61.2548C132.02 59.6368 130.605 58.5076 128.941 58.5076H123.05C122.582 58.5076 122.139 58.3046 121.835 57.9528C121.53 57.6011 121.395 57.133 121.464 56.6728C121.502 56.4226 121.52 56.2176 121.52 56.0274C121.52 53.6813 119.6 51.7717 117.242 51.7717C114.884 51.7717 112.965 53.6813 112.965 56.0274C112.965 56.2156 112.983 56.4255 113.02 56.6689C113.092 57.1291 112.957 57.5971 112.652 57.9509C112.347 58.3036 111.902 58.5076 111.435 58.5076H105.543C103.878 58.5076 102.464 59.6378 102.105 61.2548L101.439 64.2463Z" fill="#70BF4D"/>
<path d="M118.804 54.6924H115.676V57.884H118.804V54.6924Z" fill="#70BF4D"/>
<path d="M130.366 136.185C130.159 136.185 129.951 136.146 129.752 136.064C129.153 135.817 128.762 135.235 128.762 134.59V120.304C128.762 119.423 129.48 118.708 130.366 118.708H144.724C145.373 118.708 145.958 119.097 146.206 119.693C146.455 120.29 146.317 120.976 145.858 121.433L131.5 135.718C131.193 136.024 130.783 136.186 130.366 136.186V136.185ZM131.97 121.9V130.736L140.852 121.9H131.97Z" fill="#1FA8B6"/>
<g clip-path="url(#clip0_194_5164)">
<path d="M1.87342 160H89.1178C90.1526 160 90.9912 159.164 90.9912 158.133V141.956C90.2893 109.581 95.5718 95.2196 69.2433 89.6187H65.885C65.885 89.6187 65.8763 89.6187 65.8714 89.6187H58.3611V82.3141C60.4405 81.2583 62.3784 79.9652 64.1395 78.4686H80.1773C81.2121 78.4686 82.0507 77.6328 82.0507 76.6013V49.4855C83.0729 48.1184 83.6781 46.4253 83.6781 44.5931C83.6781 42.7608 83.0719 41.0677 82.0507 39.7006V37.9287C82.0517 18.1175 65.8831 2 46.0086 2H44.9826C25.1081 2 8.9395 18.1175 8.9395 37.9287V38.5748C7.31503 40.0742 6.29485 42.2169 6.29485 44.5931C6.29485 46.9692 7.31405 49.1119 8.9395 50.6113V76.6013C8.9395 77.6328 9.7781 78.4686 10.8129 78.4686H25.8345C27.5956 79.9652 29.5335 81.2583 31.6138 82.3141V89.6187H25.0349C25.0349 89.6187 25.0271 89.6187 25.0232 89.6187H20.7082C9.28998 89.6187 0 98.8773 0 110.259V158.134C0 159.165 0.838597 160.001 1.87342 160.001V160ZM29.6789 110.167C29.4632 109.687 29.0551 109.321 28.5543 109.156L18.2129 105.773L26.1107 93.3533H31.8071L37.7105 147.385L24.0147 124.672L29.6877 111.676C29.8976 111.194 29.8947 110.646 29.6789 110.167ZM64.7975 93.3533L72.6953 105.773L62.3539 109.156C61.8531 109.32 61.4451 109.687 61.2293 110.167C61.0136 110.646 61.0106 111.194 61.2205 111.676L66.8964 124.678L53.3871 147.343L59.2846 93.3542H64.7975V93.3533ZM55.281 95.4969L48.6425 156.265H42.4482L35.8947 96.2792C38.2933 98.0618 41.6555 99.8299 45.5635 99.8299C49.4714 99.8299 53.0444 97.5111 55.281 95.4969ZM87.2434 156.265H52.4245L70.6062 125.761C70.9137 125.246 70.9537 124.613 70.7136 124.063L65.476 112.064L76.1493 108.572C76.698 108.392 77.1334 107.97 77.3286 107.428C77.5239 106.886 77.4565 106.285 77.147 105.799L69.2326 93.3523H70.2821C79.6345 93.3523 87.2434 100.936 87.2434 110.258V156.265ZM19.1677 56.0448V39.3522C21.5077 38.0562 27.786 34.3868 45.4824 23.8215L70.8083 39.3824V56.0448C70.8083 70.2357 59.2251 81.7799 44.9884 81.7799C30.7518 81.7799 19.1686 70.2347 19.1686 56.0448H19.1677ZM10.0417 44.5931C10.0417 42.1274 12.0547 40.1219 14.5275 40.1219H15.4198V49.0642H14.5275C12.0537 49.0642 10.0417 47.0578 10.0417 44.5931ZM79.9323 44.5931C79.9323 47.0588 77.9202 49.0642 75.4464 49.0642H74.5531V40.1219H75.4464C77.9202 40.1219 79.9323 42.1274 79.9323 44.5931ZM67.8287 74.7341C72.0286 69.6441 74.5531 63.1334 74.5531 56.0448V52.7987H75.4464C76.451 52.7987 77.4136 52.6178 78.3049 52.2879V74.7341H67.8297H67.8287ZM44.9826 5.73454H46.0086C63.4669 5.73454 77.724 19.617 78.2785 36.8875C77.395 36.5645 76.4412 36.3874 75.4464 36.3874H73.0732L46.4782 20.0461C45.8827 19.6802 45.132 19.6753 44.5325 20.0334C34.6285 25.9486 19.8296 34.74 16.9848 36.3134C16.8871 36.33 16.7944 36.3562 16.7017 36.3864H14.5275C13.9067 36.3864 13.3024 36.4574 12.7195 36.5878C13.4273 19.4554 27.6239 5.7326 44.9816 5.7326L44.9826 5.73454ZM12.6863 52.5895C13.2789 52.7248 13.8949 52.7987 14.5285 52.7987H15.4208V56.0448C15.4208 63.1334 17.9464 69.6451 22.1452 74.7341H12.6863V52.5895ZM44.9875 85.5144C48.3575 85.5144 51.5947 84.9413 54.6152 83.9021V90.8263C53.4652 92.1817 49.7808 96.0963 45.5644 96.0963C40.6764 96.0963 36.6239 92.1574 35.3607 90.7864V83.9031C38.3812 84.9433 41.6175 85.5154 44.9875 85.5154V85.5144ZM3.74684 110.258C3.74684 100.936 11.3557 93.3523 20.7082 93.3523H21.6747L13.7602 105.799C13.4507 106.285 13.3844 106.886 13.5786 107.428C13.7739 107.97 14.2093 108.393 14.7579 108.572L25.4313 112.064L20.1937 124.063C19.9516 124.616 19.9936 125.252 20.306 125.769L38.678 156.238L38.6809 156.264H3.74684V110.257V110.258Z" fill="#1FA8B6"/>
</g>
<defs>
<clipPath id="clip0_194_5164">
<rect width="91" height="158" fill="white" transform="translate(0 2)"/>
</clipPath>
</defs>
</svg>
