<svg width="221" height="183" viewBox="0 0 221 183" fill="none" xmlns="http://www.w3.org/2000/svg">
<path d="M62.3578 172.999H93.8924C93.8924 172.999 93.8951 172.999 93.896 172.999C93.8969 172.999 93.8988 172.999 93.8997 172.999H110.63C110.63 172.999 110.633 172.999 110.633 172.999C110.634 172.999 110.636 172.999 110.637 172.999H142.638C143.59 172.999 144.362 172.227 144.362 171.274V148.86C144.53 148.907 144.694 148.96 144.862 149.003V152.986C144.862 153.938 145.634 154.711 146.586 154.711H157.584C158.536 154.711 159.309 153.938 159.309 152.986V149.004C161.916 148.334 164.4 147.302 166.723 145.925L170.501 149.702C171.174 150.374 172.265 150.374 172.939 149.702L180.62 142.018C181.293 141.344 181.293 140.253 180.62 139.579L176.846 135.803C178.222 133.479 179.252 130.993 179.924 128.382H183.908C184.859 128.382 185.632 127.61 185.632 126.657V115.786C185.632 114.834 184.86 114.061 183.908 114.061H179.924C179.253 111.45 178.222 108.964 176.846 106.64L180.62 102.864C181.293 102.191 181.293 101.099 180.62 100.426L172.939 92.7414C172.266 92.0678 171.173 92.0678 170.501 92.7414L166.727 96.5162C164.403 95.1379 161.917 94.106 159.308 93.437V89.2214C159.308 88.2693 158.536 87.4967 157.584 87.4967H146.585C145.634 87.4967 144.861 88.2693 144.861 89.2214V93.437C142.252 94.106 139.767 95.1379 137.442 96.5162L133.669 92.7414C132.996 92.0678 131.904 92.0678 131.231 92.7414L123.55 100.426C122.877 101.099 122.877 102.191 123.55 102.864L127.324 106.64C127.053 107.099 126.797 107.567 126.551 108.041C126.139 108.015 125.725 107.996 125.307 107.996H114.336V101.25C123.169 96.748 129.236 87.5673 129.236 76.989V73.9914H130.058C134.235 73.9914 137.634 70.5914 137.634 66.4125C137.634 64.0903 136.583 62.01 134.934 60.6189V56.6425C134.934 38.7503 120.383 24.1929 102.497 24.1929C84.6108 24.1929 70.06 38.7494 70.06 56.6425V59.9426C67.8816 61.2751 66.4251 63.677 66.4251 66.4125C66.4251 70.5914 69.8237 73.9914 74.0009 73.9914H74.8227V76.989C74.8227 87.5673 80.8907 96.7489 89.7234 101.251V107.996H79.6879C69.1806 107.996 60.6328 116.547 60.6328 127.059V171.274C60.6328 172.227 61.4041 172.999 62.3568 172.999H62.3578ZM91.3356 112.248L100.312 122.785C100.312 122.824 100.314 122.862 100.318 122.902L95.7401 129.088L88.3694 114.812L91.3356 112.248ZM113.009 112.033L116.223 114.812L108.853 129.088L104.451 123.139L113.009 112.033ZM102.296 126.024L107.069 132.474L104.216 138.351H100.313L97.4852 132.526L102.296 126.024ZM100.688 141.8H103.842L108.592 169.551H95.9379L100.688 141.8ZM140.305 115.322C142.498 110.832 147.02 107.982 152.084 107.982C159.318 107.982 165.202 113.869 165.202 121.105C165.202 128.341 159.318 134.232 152.084 134.232C149.306 134.232 146.594 133.34 144.362 131.712V127.06C144.362 122.634 142.843 118.561 140.305 115.322ZM130.732 105.173L127.207 101.646L132.45 96.4007L135.975 99.9271C136.554 100.506 137.461 100.598 138.145 100.146C140.833 98.3683 143.789 97.1412 146.931 96.4997C147.733 96.3356 148.309 95.6291 148.309 94.8098V90.9471H155.86V94.8098C155.86 95.6291 156.436 96.3356 157.238 96.4997C160.379 97.1412 163.336 98.3683 166.024 100.146C166.708 100.598 167.614 100.505 168.193 99.9271L171.718 96.4007L176.962 101.646L173.437 105.173C172.858 105.752 172.766 106.658 173.217 107.342C174.991 110.03 176.217 112.988 176.863 116.133C177.027 116.935 177.733 117.511 178.551 117.511H182.182V124.933H178.551C177.733 124.933 177.027 125.508 176.863 126.31C176.217 129.456 174.991 132.414 173.217 135.102C172.766 135.786 172.858 136.692 173.437 137.271L176.962 140.798L171.718 146.043L168.19 142.516C167.611 141.938 166.706 141.845 166.021 142.296C163.333 144.071 160.377 145.298 157.236 145.944C156.435 146.108 155.86 146.814 155.86 147.632V151.261H148.309V147.632C148.309 146.814 147.735 146.108 146.933 145.944C146.061 145.764 145.201 145.535 144.361 145.267V135.763C146.727 137.009 149.381 137.678 152.084 137.678C161.218 137.678 168.65 130.242 168.65 121.103C168.65 111.963 161.219 104.53 152.084 104.53C146.117 104.53 140.747 107.663 137.805 112.686C135.632 110.792 133.029 109.38 130.162 108.624C130.414 108.188 130.675 107.757 130.951 107.339C131.402 106.655 131.31 105.749 130.731 105.17L130.732 105.173ZM140.915 127.06V169.551H112.089L107.087 140.33L110.425 133.454C110.51 133.356 110.584 133.248 110.645 133.131L119.91 115.186C120.275 114.478 120.107 113.611 119.505 113.091L117.602 111.446H125.307C133.912 111.446 140.914 118.45 140.914 127.059L140.915 127.06ZM130.059 70.5438H129.237V62.285H130.059C132.335 62.285 134.186 64.1371 134.186 66.4144C134.186 68.6917 132.335 70.5438 130.059 70.5438ZM73.509 56.6444C73.509 40.6537 86.5135 27.6441 102.498 27.6441C118.482 27.6441 131.487 40.6537 131.487 56.6444V58.973C131.024 58.8841 130.547 58.8365 130.059 58.8365H128.695C128.386 58.5441 127.972 58.3627 127.513 58.3627C127.276 58.3627 127.05 58.4103 126.844 58.4974C117.613 54.0142 116.681 46.6535 116.646 46.3355C116.592 45.8049 116.297 45.3284 115.845 45.0452C115.392 44.762 114.835 44.7043 114.334 44.8885C100.494 49.9884 80.0176 57.5141 76.5467 58.7412C76.3552 58.7412 76.1738 58.7796 76.0016 58.8374H74.0009C73.8351 58.8374 73.6712 58.8447 73.5081 58.8548V56.6453L73.509 56.6444ZM74.0019 70.5438C71.7254 70.5438 69.8741 68.6908 69.8741 66.4144C69.8741 64.916 70.6784 63.6064 71.8748 62.8825C72.2934 62.8605 72.6717 62.6928 72.9585 62.4243C73.2928 62.3363 73.6409 62.285 74.0019 62.285H74.8236V70.5438H74.0019ZM78.2707 76.9908V61.7791C80.953 60.8242 89.0052 57.8944 113.683 48.8034C114.641 51.977 117.497 57.9659 125.79 61.8148V76.9908C125.79 90.0966 115.131 100.759 102.031 100.759C88.93 100.759 78.2716 90.0966 78.2716 76.9908H78.2707ZM102.03 104.209C105.131 104.209 108.11 103.68 110.889 102.719V109.135L102.494 120.031L93.1714 109.088V102.719C95.9508 103.68 98.9289 104.209 102.03 104.209ZM64.0809 127.061C64.0809 118.452 71.0824 111.447 79.6888 111.447H86.9898L85.0872 113.092C84.4844 113.614 84.3167 114.48 84.6822 115.188L93.9327 133.106L97.4403 140.331L92.4386 169.552H64.08V127.061H64.0809Z" fill="#1FA8B6" stroke="#1FA8B6"/>
<path d="M115.849 133.233V144.27C115.849 149.667 120.237 154.056 125.631 154.056C131.026 154.056 135.414 149.666 135.414 144.27V133.233C135.414 132.28 134.643 131.508 133.69 131.508H117.572C116.62 131.508 115.848 132.28 115.848 133.233H115.849ZM125.631 150.607C122.138 150.607 119.297 147.764 119.297 144.269V141.341H131.967V144.269C131.967 147.763 129.125 150.607 125.631 150.607ZM131.967 134.956V137.892H119.297V134.956H131.967Z" fill="#1FA8B6" stroke="#1FA8B6"/>
<path d="M21.227 100.438C21.3883 101.377 22.2778 102.006 23.2167 101.846L26.2095 101.333C26.8581 102.697 27.6606 103.972 28.6087 105.145L27.3674 106.901C27.1036 107.274 26.9982 107.738 27.0761 108.189C27.1531 108.64 27.4068 109.041 27.7796 109.305L33.5847 113.412C34.3616 113.962 35.437 113.778 35.9876 113L37.2289 111.244C38.6497 111.747 40.119 112.08 41.6214 112.237L42.1344 115.23C42.2782 116.071 43.0074 116.664 43.8309 116.664C43.9271 116.664 44.0251 116.656 44.1241 116.639L51.131 115.439C51.5817 115.362 51.9839 115.108 52.2477 114.735C52.5116 114.361 52.6169 113.898 52.539 113.447L52.026 110.451C53.3891 109.803 54.6643 109 55.8369 108.051L57.592 109.293C58.3689 109.843 59.4452 109.659 59.9949 108.881L64.1492 103.004C64.3627 102.702 64.4653 102.355 64.4653 102.011C64.4653 101.47 64.2124 100.937 63.737 100.601L61.9818 99.3589C62.4847 97.9376 62.8173 96.4676 62.9748 94.9647L65.9685 94.4515C66.4192 94.3745 66.8205 94.1207 67.0843 93.7477C67.3481 93.3747 67.4535 92.911 67.3756 92.4601L66.1737 85.4513C66.0125 84.5129 65.1212 83.8824 64.184 84.0437L61.1913 84.5569C60.5427 83.1932 59.7402 81.9176 58.7921 80.7445L60.0334 78.9887C60.583 78.2115 60.3989 77.1347 59.622 76.5849L53.8169 72.4775C53.4432 72.2135 52.9797 72.1091 52.5299 72.186C52.0792 72.263 51.6779 72.5169 51.4141 72.8899L50.1728 74.6457C48.7511 74.1426 47.2817 73.8099 45.7803 73.6523L45.2673 70.6593C45.107 69.7209 44.2148 69.0894 43.2776 69.2507L36.2706 70.4512C35.8199 70.5282 35.4178 70.7821 35.154 71.1551C34.8901 71.529 34.7848 71.9918 34.8627 72.4426L35.3757 75.4357C34.0116 76.0854 32.7365 76.8882 31.5639 77.8367L29.686 76.5079C28.9092 75.958 27.8337 76.1422 27.2831 76.9203L23.1288 82.7964C22.5791 83.5735 22.7633 84.6503 23.5401 85.2002L25.418 86.529C24.9151 87.9513 24.5826 89.4222 24.4241 90.9242L21.4322 91.4374C20.9815 91.5143 20.5803 91.7682 20.3165 92.1412C20.0517 92.5151 19.9473 92.9779 20.0252 93.4288L21.228 100.438L21.227 100.438ZM26.3423 94.095C27.1494 93.9566 27.7476 93.2693 27.7742 92.45C27.8392 90.4201 28.2844 88.4507 29.0979 86.5959C29.4267 85.8463 29.1831 84.9683 28.5143 84.4955L26.9387 83.3802L29.1024 80.3202L30.6781 81.4355C31.3459 81.9084 32.2546 81.8461 32.8519 81.2852C34.3286 79.9005 36.0361 78.8237 37.9287 78.0869C38.6918 77.79 39.1407 76.9964 39.0024 76.1881L38.5516 73.5588L42.16 72.9403L42.6107 75.5695C42.7491 76.3769 43.4361 76.9753 44.2551 77.0019C46.2832 77.066 48.2519 77.5114 50.1051 78.3243C50.8544 78.6533 51.7329 78.4095 52.2047 77.7405L53.2325 76.287L56.2225 78.4031L55.1956 79.8565C54.7229 80.5255 54.7852 81.4346 55.3449 82.0321C56.7291 83.5085 57.8037 85.2176 58.5411 87.11C58.8388 87.8734 59.634 88.3206 60.4383 88.1841L63.0674 87.7332L63.6866 91.343L61.0566 91.7939C60.2495 91.9322 59.6514 92.6196 59.6248 93.4388C59.5607 95.4586 59.12 97.418 58.3148 99.2636C58.2131 99.4827 58.1618 99.7163 58.1573 99.9491C58.1545 100.084 58.1673 100.219 58.1957 100.35C58.2828 100.753 58.5145 101.127 58.8755 101.386C58.8755 101.386 58.8764 101.386 58.8773 101.387C58.8782 101.387 58.8782 101.387 58.8791 101.388C58.8791 101.388 58.88 101.389 58.8809 101.389C58.8809 101.389 58.8819 101.39 58.8828 101.391C58.8828 101.391 58.8837 101.392 58.8846 101.392L60.3375 102.421L58.1737 105.482L56.7209 104.453C56.7209 104.453 56.719 104.452 56.7181 104.451C56.3508 104.192 55.9193 104.098 55.5052 104.151C55.5052 104.151 55.5052 104.151 55.5043 104.151C55.3724 104.168 55.2423 104.2 55.1168 104.248C54.8997 104.33 54.6982 104.456 54.526 104.624C53.0548 105.998 51.3546 107.066 49.473 107.799C48.7099 108.096 48.261 108.89 48.3993 109.698L48.85 112.329L45.2417 112.948L44.791 110.318C44.6526 109.511 43.9656 108.913 43.1466 108.886C41.1175 108.822 39.1489 108.377 37.2957 107.564C37.0722 107.466 36.8368 107.418 36.6041 107.418C36.0581 107.418 35.5277 107.678 35.1961 108.147L34.1683 109.6L31.1782 107.484L32.2052 106.031C32.6778 105.362 32.6156 104.453 32.0558 103.856C30.6717 102.379 29.5971 100.67 28.8597 98.7779C28.562 98.0145 27.7705 97.5664 26.9625 97.7039L24.3334 98.1548L23.7142 94.545L26.3423 94.0941V94.095Z" fill="#8ABD56" stroke="#8ABD56" stroke-width="0.5"/>
<path d="M37.0361 102.242C39.0377 103.658 41.3407 104.338 43.6235 104.338C47.2136 104.338 50.7505 102.655 52.9765 99.5074C54.74 97.0129 55.4279 93.9795 54.9113 90.9673C54.3946 87.955 52.7375 85.3248 50.243 83.5598C45.0956 79.917 37.9439 81.1432 34.3026 86.2935C30.6612 91.4438 31.8869 98.5974 37.0361 102.24V102.242ZM37.1176 88.2867C38.6731 86.0873 41.1437 84.9124 43.651 84.9124C45.2459 84.9124 46.8554 85.3881 48.2533 86.3769C49.9957 87.6095 51.1536 89.4469 51.5136 91.551C51.8745 93.6551 51.3945 95.7739 50.1624 97.516C47.6185 101.114 42.6232 101.97 39.0276 99.4259C35.4312 96.8809 34.5746 91.8837 37.1186 88.2867H37.1176Z" fill="#8ABD56" stroke="#8ABD56" stroke-width="0.5"/>
<path d="M168.669 58.2289H162.663C157.167 58.2289 152.499 54.6393 151.31 49.4981L145.045 22.3931C144.406 19.63 144.839 17.0677 146.296 14.9819C147.992 12.5562 150.931 10.9726 154.573 10.5217C155.346 10.4328 156.06 10.9781 156.156 11.757C156.251 12.5351 155.699 13.2444 154.921 13.3406C152.089 13.6907 149.852 14.8518 148.624 16.6086C147.626 18.0364 147.353 19.7666 147.811 21.7525L154.076 48.8566C154.952 52.6396 158.563 55.3871 162.664 55.3871H168.67C172.771 55.3871 176.382 52.6406 177.257 48.8566L183.522 21.7525C183.973 19.8014 183.717 18.0959 182.76 16.6819C181.608 14.9792 179.498 13.8126 176.819 13.3974C176.044 13.2774 175.513 12.5516 175.633 11.7763C175.754 11.001 176.479 10.4786 177.254 10.5904C180.722 11.1284 183.512 12.7266 185.112 15.091C186.509 17.1557 186.916 19.6804 186.288 22.3921L180.022 49.4963C178.834 54.6374 174.167 58.2271 168.67 58.2271L168.669 58.2289Z" fill="#8ABD56" stroke="#8ABD56" stroke-width="0.5"/>
<path d="M176.618 83.9519C169.797 83.9519 164.246 78.3993 164.246 71.5756V61.2035C164.246 60.4191 164.882 59.7831 165.666 59.7831C166.45 59.7831 167.086 60.4191 167.086 61.2035V71.5756C167.086 76.8341 171.362 81.1119 176.618 81.1119C181.875 81.1119 186.151 76.8341 186.151 71.5756V58.2572C186.151 50.5354 191.65 44.7134 198.943 44.7134C199.727 44.7134 200.363 45.3494 200.363 46.1338C200.363 46.9183 199.727 47.5543 198.943 47.5543C193.27 47.5543 188.991 52.1557 188.991 58.2581V71.5765C188.991 78.4002 183.44 83.9528 176.619 83.9528L176.618 83.9519Z" fill="#8ABD56" stroke="#8ABD56" stroke-width="0.5"/>
<path d="M158.137 16.628C155.483 16.628 153.324 14.4689 153.324 11.814C153.324 9.1591 155.483 7 158.137 7C160.791 7 162.95 9.16001 162.95 11.8149C162.95 14.4698 160.791 16.6289 158.137 16.6289V16.628ZM158.137 9.84C157.049 9.84 156.164 10.7253 156.164 11.814C156.164 12.9027 157.049 13.788 158.137 13.788C159.225 13.788 160.11 12.9027 160.11 11.814C160.11 10.7253 159.225 9.84 158.137 9.84Z" fill="#8ABD56" stroke="#8ABD56" stroke-width="0.5"/>
<path d="M173.243 16.628C170.589 16.628 168.43 14.4689 168.43 11.814C168.43 9.1591 170.589 7 173.243 7C175.897 7 178.056 9.16001 178.056 11.8149C178.056 14.4698 175.897 16.6289 173.243 16.6289V16.628ZM173.243 9.84C172.154 9.84 171.269 10.7253 171.269 11.814C171.269 12.9027 172.154 13.788 173.243 13.788C174.331 13.788 175.216 12.9027 175.216 11.814C175.216 10.7253 174.331 9.84 173.243 9.84Z" fill="#8ABD56" stroke="#8ABD56" stroke-width="0.5"/>
<path d="M210.288 54.8511C205.483 54.8511 201.574 50.9407 201.574 46.1341C201.574 41.3274 205.483 37.418 210.288 37.418C215.093 37.418 219.001 41.3284 219.001 46.1341C219.001 50.9398 215.092 54.8511 210.288 54.8511ZM210.288 40.258C207.049 40.258 204.413 42.8936 204.413 46.1341C204.413 49.3746 207.049 52.0111 210.288 52.0111C213.527 52.0111 216.162 49.3746 216.162 46.1341C216.162 42.8936 213.527 40.258 210.288 40.258Z" fill="#8ABD56" stroke="#8ABD56" stroke-width="0.5"/>
<path d="M210.29 49.687C208.331 49.687 206.738 48.0924 206.738 46.134C206.738 44.1756 208.332 42.5811 210.29 42.5811C211.074 42.5811 211.71 43.2171 211.71 44.0015C211.71 44.786 211.074 45.422 210.29 45.422C209.897 45.422 209.577 45.7418 209.577 46.1349C209.577 46.5281 209.897 46.8479 210.29 46.8479C210.683 46.8479 211.003 46.5281 211.003 46.1349C211.003 45.3505 211.638 44.7145 212.422 44.7145C213.207 44.7145 213.842 45.3505 213.842 46.1349C213.842 48.0943 212.248 49.6879 210.291 49.6879L210.29 49.687Z" fill="#8ABD56" stroke="#8ABD56" stroke-width="0.5"/>
</svg>
