<svg width="431" height="344" viewBox="0 0 431 344" fill="none" xmlns="http://www.w3.org/2000/svg">
<g clip-path="url(#clip0_229_12070)">
<path d="M158.035 286.667H43.1014C40.4579 286.667 38.3125 284.526 38.3125 281.889V253.222C38.3125 242.799 42.8868 232.062 50.8671 223.768C59.2648 215.034 70.1146 210.222 81.4125 210.222H119.724C131.022 210.222 141.871 215.031 150.269 223.768C158.249 232.066 162.824 242.803 162.824 253.222V281.889C162.824 284.526 160.678 286.667 158.035 286.667ZM47.8903 277.111H153.246V253.222C153.246 245.241 149.641 236.917 143.358 230.381C136.784 223.543 128.39 219.778 119.724 219.778H81.4125C72.7465 219.778 64.3526 223.543 57.7784 230.381C51.4954 236.917 47.8903 245.241 47.8903 253.222V277.111Z" fill="#8ABD56"/>
<path d="M71.8358 286.667C69.1923 286.667 67.0469 284.526 67.0469 281.889V253.222C67.0469 250.585 69.1923 248.444 71.8358 248.444C74.4792 248.444 76.6247 250.585 76.6247 253.222V281.889C76.6247 284.526 74.4792 286.667 71.8358 286.667Z" fill="#8ABD56"/>
<path d="M129.301 286.667C126.657 286.667 124.512 284.526 124.512 281.889V253.222C124.512 250.585 126.657 248.444 129.301 248.444C131.944 248.444 134.089 250.585 134.089 253.222V281.889C134.089 284.526 131.944 286.667 129.301 286.667Z" fill="#8ABD56"/>
<path d="M100.569 200.667C82.084 200.667 67.0469 185.665 67.0469 167.222C67.0469 148.78 82.084 133.778 100.569 133.778C119.054 133.778 134.091 148.78 134.091 167.222C134.091 185.665 119.054 200.667 100.569 200.667ZM100.569 143.333C87.3671 143.333 76.6247 154.051 76.6247 167.222C76.6247 180.394 87.3671 191.111 100.569 191.111C113.771 191.111 124.514 180.394 124.514 167.222C124.514 154.051 113.771 143.333 100.569 143.333Z" fill="#8ABD56"/>
<path d="M320.854 191.111H186.765C184.122 191.111 181.977 188.971 181.977 186.333C181.977 183.696 184.122 181.556 186.765 181.556H320.854C323.498 181.556 325.643 183.696 325.643 186.333C325.643 188.971 323.498 191.111 320.854 191.111Z" fill="#1FA8B6"/>
<path d="M292.121 219.778H186.765C184.122 219.778 181.977 217.637 181.977 215C181.977 212.363 184.122 210.222 186.765 210.222H292.121C294.764 210.222 296.91 212.363 296.91 215C296.91 217.637 294.764 219.778 292.121 219.778Z" fill="#1FA8B6"/>
<path d="M263.388 248.444H186.765C184.122 248.444 181.977 246.304 181.977 243.667C181.977 241.029 184.122 238.889 186.765 238.889H263.388C266.031 238.889 268.177 241.029 268.177 243.667C268.177 246.304 266.031 248.444 263.388 248.444Z" fill="#1FA8B6"/>
<path d="M368.746 162.444C366.103 162.444 363.957 160.304 363.957 157.667V100.333C363.957 90.2847 359.662 86 349.59 86H263.39C260.747 86 258.602 83.8596 258.602 81.2222C258.602 78.5849 260.747 76.4445 263.39 76.4445H349.59C357.226 76.4445 363.187 78.5314 367.313 82.6479C371.439 86.7645 373.535 92.7157 373.535 100.333V157.667C373.535 160.304 371.389 162.444 368.746 162.444Z" fill="#1FA8B6"/>
<path d="M311.278 334.444H23.9444C16.309 334.444 10.3478 332.358 6.21789 328.237C2.09179 324.121 0 318.169 0 310.556V100.333C0 87.162 10.7424 76.4445 23.9444 76.4445H110.144C112.788 76.4445 114.933 78.5849 114.933 81.2222C114.933 83.8596 112.788 86 110.144 86H23.9444C16.0217 86 9.57778 92.429 9.57778 100.333V310.556C9.57778 320.604 13.8725 324.889 23.9444 324.889H311.278C313.921 324.889 316.067 327.029 316.067 329.667C316.067 332.304 313.921 334.444 311.278 334.444Z" fill="#1FA8B6"/>
<path d="M225.079 114.667H148.457C145.813 114.667 143.668 112.526 143.668 109.889V4.77778C143.668 2.14044 145.813 0 148.457 0H225.079C227.723 0 229.868 2.14044 229.868 4.77778V109.889C229.868 112.526 227.723 114.667 225.079 114.667ZM153.246 105.111H220.29V9.55556H153.246V105.111Z" fill="#1FA8B6"/>
<path d="M225.079 86H148.457C145.813 86 143.668 83.8596 143.668 81.2222C143.668 78.5849 145.813 76.4445 148.457 76.4445H225.079C227.723 76.4445 229.868 78.5849 229.868 81.2222C229.868 83.8596 227.723 86 225.079 86Z" fill="#1FA8B6"/>
<path d="M368.744 344C368.008 344 367.277 343.832 366.602 343.496C365.982 343.186 351.201 335.698 336.375 318.441C327.69 308.335 320.771 296.933 315.809 284.557C309.626 269.13 306.488 252.156 306.488 234.107C306.488 231.47 308.634 229.33 311.277 229.33C325.759 229.33 339.053 223.44 350.784 211.824C359.775 202.922 364.419 193.833 364.464 193.745C365.277 192.132 366.936 191.115 368.744 191.115H368.752C370.564 191.115 372.219 192.136 373.031 193.752C373.073 193.836 377.712 202.922 386.708 211.828C398.439 223.443 411.733 229.333 426.214 229.333C428.858 229.333 431.003 231.474 431.003 234.111C431.003 252.16 427.866 269.13 421.682 284.561C416.721 296.937 409.802 308.335 401.117 318.445C386.29 335.702 371.51 343.186 370.889 343.499C370.215 343.836 369.483 344.004 368.748 344.004L368.744 344ZM316.139 238.694C316.622 253.807 319.495 268.022 324.701 281.01C329.272 292.412 335.647 302.911 343.646 312.222C354.048 324.331 364.419 331.184 368.763 333.757C374.395 330.443 384.647 323.008 394.121 311.897C402.052 302.598 408.365 292.117 412.89 280.746C418.031 267.831 420.87 253.7 421.349 238.69C406.185 237.463 391.88 230.503 379.724 218.375C374.927 213.59 371.272 208.816 368.744 205.093C366.215 208.816 362.56 213.59 357.764 218.375C345.608 230.503 331.302 237.463 316.139 238.69V238.694Z" fill="#8ABD56"/>
<path d="M244.234 114.667H129.301C126.657 114.667 124.512 112.526 124.512 109.889C124.512 107.252 126.657 105.111 129.301 105.111H244.234C246.877 105.111 249.023 107.252 249.023 109.889C249.023 112.526 246.877 114.667 244.234 114.667Z" fill="#1FA8B6"/>
<path d="M359.167 296.222C357.941 296.222 356.715 295.756 355.78 294.823L336.625 275.712C334.755 273.847 334.755 270.82 336.625 268.955C338.494 267.089 341.529 267.089 343.398 268.955L359.167 284.687L394.092 249.843C395.961 247.978 398.995 247.978 400.865 249.843C402.735 251.709 402.735 254.736 400.865 256.601L362.554 294.823C361.619 295.756 360.393 296.222 359.167 296.222Z" fill="#8ABD56"/>
</g>
<defs>
<clipPath id="clip0_229_12070">
<rect width="431" height="344" fill="white"/>
</clipPath>
</defs>
</svg>
