<svg width="378" height="341" viewBox="0 0 378 341" fill="none" xmlns="http://www.w3.org/2000/svg">
<g clip-path="url(#clip0_225_12004)">
<path d="M265.603 42.6694C253.479 30.5292 237.358 23.8423 220.211 23.8423C203.064 23.8423 186.943 30.5292 174.82 42.6694C149.789 67.7374 149.789 108.516 174.82 133.581C186.943 145.722 203.064 152.411 220.211 152.411C237.358 152.411 253.479 145.722 265.603 133.581C290.633 108.516 290.633 67.7374 265.603 42.6694ZM259.29 127.26C248.851 137.712 234.973 143.471 220.211 143.471C205.45 143.471 191.571 137.712 181.133 127.26C159.584 105.681 159.584 70.5723 181.133 48.9911C191.571 38.5409 205.45 32.7851 220.211 32.7851C234.973 32.7851 248.851 38.5435 259.29 48.9911C280.838 70.5723 280.838 105.681 259.29 127.26Z" fill="#8ABD56"/>
<path d="M371.283 206.895L317.956 153.493C312.99 148.515 306.119 146.157 299.194 146.942L291.668 139.405C316.313 104.995 313.302 56.7108 282.443 25.8113C265.822 9.16709 243.719 0 220.214 0C196.71 0 174.609 9.16969 157.988 25.8113C123.676 60.1716 123.676 116.079 157.988 150.445C174.609 167.089 196.707 176.256 220.214 176.256C238.869 176.256 256.587 170.398 271.437 159.698L278.948 167.219C278.167 174.156 280.524 181.031 285.493 186.007L338.82 239.408C343.156 243.751 348.919 246.145 355.053 246.145C361.186 246.145 366.949 243.753 371.283 239.408C380.237 230.442 380.237 215.858 371.283 206.895ZM164.299 144.12C149.365 129.161 141.138 109.277 141.138 88.1266C141.138 66.9758 149.365 47.0873 164.299 32.133C179.232 17.1788 199.088 8.94019 220.212 8.94019C241.336 8.94019 261.194 17.1788 276.127 32.133C291.061 47.0873 299.288 66.9758 299.288 88.1266C299.288 109.277 291.061 129.163 276.127 144.12C261.194 159.074 241.333 167.313 220.212 167.313C199.09 167.313 179.235 159.077 164.299 144.12ZM364.97 233.084C359.668 238.391 350.433 238.391 345.133 233.084L291.806 179.68C288.41 176.285 287.019 171.41 288.081 166.658C288.415 165.164 287.962 163.602 286.881 162.52L278.495 154.122C279.906 152.888 281.216 151.668 282.443 150.442C283.664 149.216 284.881 147.91 286.118 146.488L294.504 154.886C295.585 155.971 297.15 156.422 298.637 156.088C303.387 155.016 308.247 156.414 311.646 159.815L364.973 213.216C367.624 215.871 369.082 219.4 369.082 223.15C369.082 226.9 367.621 230.432 364.97 233.084Z" fill="#8ABD56"/>
<path d="M97.0898 215.801L136.671 168.641L176.252 215.801C177.101 216.808 178.351 217.392 179.672 217.392H293.425C295.889 217.392 297.889 215.391 297.889 212.922C297.889 210.452 295.889 208.452 293.425 208.452H181.75L146.255 166.16H150.453C152.917 166.16 154.917 164.157 154.917 161.69C154.917 159.223 152.917 157.22 150.453 157.22H47.4611C46.1407 157.22 44.8906 157.802 44.0415 158.816L1.04349 210.045C-0.0737844 211.378 -0.31599 213.235 0.415836 214.812C1.14766 216.388 2.72591 217.394 4.46302 217.394H93.6729C94.9907 217.394 96.2408 216.808 97.0898 215.801ZM14.0471 208.452L49.5446 166.16H127.089L91.5946 208.452H14.0471Z" fill="#1FA8B6"/>
<path d="M204.349 293.654H157.702C155.238 293.654 153.238 295.655 153.238 298.124C153.238 300.594 155.238 302.594 157.702 302.594H204.349C206.813 302.594 208.813 300.594 208.813 298.124C208.813 295.655 206.813 293.654 204.349 293.654Z" fill="#1FA8B6"/>
<path d="M204.349 311.005H157.702C155.238 311.005 153.238 313.006 153.238 315.475C153.238 317.945 155.238 319.946 157.702 319.946H204.349C206.813 319.946 208.813 317.943 208.813 315.475C208.813 313.008 206.813 311.005 204.349 311.005Z" fill="#1FA8B6"/>
<path d="M241.229 67.083C239.484 65.3356 236.66 65.3356 234.916 67.083L220.214 81.8051L205.512 67.083C203.767 65.3356 200.944 65.3356 199.199 67.083C197.454 68.8303 197.454 71.6626 199.199 73.4047L213.901 88.1269L199.199 102.846C197.454 104.594 197.454 107.421 199.199 109.168C200.072 110.042 201.212 110.477 202.356 110.477C203.499 110.477 204.64 110.042 205.512 109.168L220.214 94.4486L234.916 109.168C235.788 110.042 236.929 110.477 238.072 110.477C239.215 110.477 240.356 110.042 241.229 109.168C242.973 107.421 242.973 104.594 241.229 102.846L226.527 88.1269L241.229 73.4047C242.971 71.66 242.971 68.8277 241.229 67.083Z" fill="#8ABD56"/>
<path d="M295.127 226.335C292.663 226.335 290.663 228.335 290.663 230.805V332.057H141.138V189.484C141.138 187.011 139.138 185.014 136.674 185.014C134.211 185.014 132.211 187.014 132.211 189.484V332.057H51.9258V230.805C51.9258 228.332 49.9257 226.335 47.4619 226.335C44.9982 226.335 42.998 228.335 42.998 230.805V336.53C42.998 339.003 44.9982 341 47.4619 341H295.127C297.59 341 299.59 339 299.59 336.53V230.805C299.593 228.335 297.593 226.335 295.127 226.335Z" fill="#1FA8B6"/>
</g>
<defs>
<clipPath id="clip0_225_12004">
<rect width="378" height="341" fill="white"/>
</clipPath>
</defs>
</svg>
