<svg width="243" height="292" viewBox="0 0 243 292" fill="none" xmlns="http://www.w3.org/2000/svg">
<g clip-path="url(#clip0_225_11957)">
<path d="M238.447 292C236.153 292 234.181 290.268 233.932 287.933L227.298 225.886C226.157 216.785 220.443 208.078 210.766 200.709C202.975 194.775 192.999 189.884 181.641 186.411V226.599C189.715 228.634 195.711 235.97 195.711 244.677C195.711 254.962 187.359 263.326 177.093 263.326C166.827 263.326 158.467 254.958 158.467 244.677C158.467 235.966 164.467 228.634 172.549 226.599V183.99C166.774 182.643 160.831 181.545 154.806 180.718L125.203 222.482C124.352 223.687 122.97 224.399 121.497 224.399C120.025 224.399 118.643 223.683 117.792 222.482L88.2047 180.718C84.4296 181.234 80.6791 181.861 76.9817 182.586V218.968H87.6484C98.487 218.968 107.309 227.795 107.309 238.644V280.97C107.309 282.94 106.045 284.685 104.172 285.299L93.4685 288.797C91.0841 289.575 88.5155 288.273 87.7384 285.881C86.9613 283.489 88.262 280.921 90.6505 280.143L98.217 277.669V238.644C98.217 232.914 93.3786 228.069 87.6484 228.069H57.2269C51.4927 228.069 46.6501 232.91 46.6501 238.644V277.669L54.2249 280.143C56.6134 280.921 57.914 283.489 57.1369 285.881C56.3598 288.269 53.7954 289.575 51.4068 288.797L40.6951 285.299C38.826 284.689 37.558 282.94 37.558 280.97V238.644C37.558 227.979 46.5643 218.968 57.2228 218.968H67.8896V184.601C67.7301 184.642 67.5665 184.683 67.407 184.719C53.5418 188.209 41.374 193.738 32.2247 200.709C22.5477 208.082 16.8299 216.785 15.6928 225.886L9.06292 287.937C8.79707 290.435 6.55574 292.246 4.06083 291.98C1.56592 291.713 -0.241864 289.469 0.0239869 286.97L6.65799 224.883C6.65799 224.858 6.66208 224.833 6.66617 224.809C8.10176 213.206 15.0384 202.368 26.7236 193.472C36.8423 185.768 50.1471 179.69 65.1943 175.901C66.3763 175.606 67.5624 175.32 68.7567 175.041C69.5829 173.902 70.9244 173.161 72.4377 173.161C73.2598 173.161 74.0328 173.382 74.6995 173.763C79.6525 172.776 84.6955 171.965 89.7712 171.339C91.4317 171.134 93.0677 171.859 94.033 173.223L121.497 211.989L148.978 173.223C149.943 171.859 151.579 171.134 153.24 171.339C160.271 172.207 167.224 173.427 173.964 174.98C174.778 174.201 175.882 173.726 177.097 173.726C179.118 173.726 180.827 175.045 181.42 176.868C194.983 180.685 206.971 186.39 216.271 193.472C227.952 202.372 234.889 213.206 236.325 224.809C236.325 224.833 236.329 224.858 236.333 224.887L242.971 286.974C243.237 289.473 241.433 291.717 238.934 291.984C238.77 292 238.607 292.008 238.443 292.008L238.447 292ZM177.101 235.134C171.841 235.134 167.567 239.414 167.567 244.669C167.567 249.924 171.845 254.216 177.101 254.216C182.357 254.216 186.627 249.932 186.627 244.669C186.627 239.406 182.353 235.134 177.101 235.134ZM121.984 167.927C111.309 167.927 100.863 165.285 91.7753 160.288C82.0615 154.947 74.1146 146.981 68.7935 137.249C65.0716 130.459 62.6666 119.805 61.2106 111.159C53.7422 108.202 48.2003 99.8427 48.3393 90.9835C48.4252 85.4624 50.3762 80.8383 53.9876 77.619C55.006 76.7097 56.1472 75.9193 57.3864 75.2598C57.4232 70.7627 57.0347 67.9653 56.6298 65.0368C56.094 61.1663 55.5418 57.1688 55.9508 49.7022C55.959 49.5875 55.9672 49.4729 55.9836 49.3582C57.9018 34.6584 64.7689 22.3302 75.8324 13.7004C87.3212 4.73472 103.256 0 121.915 0C140.573 0 156.357 4.73471 167.886 13.6922C179.028 22.3506 185.931 34.6789 187.85 49.3541C187.866 49.4688 187.874 49.5834 187.882 49.6981C188.283 57.1606 187.735 61.1622 187.199 65.0286C186.799 67.9448 186.414 70.734 186.447 75.1902C187.739 75.866 188.925 76.677 189.985 77.619C193.592 80.8383 195.547 85.4583 195.633 90.9794C195.764 99.8427 190.222 108.198 182.762 111.155C181.306 119.81 178.897 130.463 175.179 137.249C169.858 146.977 161.911 154.943 152.197 160.284C143.109 165.281 132.663 167.923 121.988 167.923L121.984 167.927ZM61.9386 83.1524C61.2188 83.5046 60.5807 83.9224 60.0327 84.4098C58.323 85.9334 57.4723 88.1288 57.4273 91.1228C57.3414 96.7258 61.3415 102.321 65.9877 103.099C67.9264 103.422 69.4356 104.954 69.7342 106.9C71.5297 118.65 74.0246 127.874 76.7649 132.871C81.2558 141.079 87.9593 147.8 96.1516 152.305C103.902 156.569 112.835 158.822 121.984 158.822C131.133 158.822 140.066 156.569 147.817 152.305C156.009 147.8 162.712 141.079 167.203 132.871C169.94 127.878 172.434 118.655 174.234 106.896C174.533 104.95 176.042 103.418 177.98 103.095C182.627 102.317 186.627 96.7217 186.541 91.1187C186.496 88.1329 185.641 85.9375 183.936 84.4139C183.387 83.9224 182.741 83.5005 182.017 83.1483C180.983 83.1565 180.017 82.8125 179.244 82.2227C177.555 81.8663 175.633 81.7803 173.584 81.9851C171.081 82.2349 168.86 80.4082 168.61 77.9098C168.361 75.4073 170.185 73.1792 172.68 72.9294C174.295 72.7655 175.866 72.7327 177.375 72.8188C177.469 69.0588 177.837 66.3884 178.193 63.7794C178.684 60.212 179.15 56.8371 178.811 50.3616C175.347 24.5214 154.091 9.10081 121.915 9.10081C105.297 9.10081 91.2926 13.172 81.4112 20.8762C72.315 27.97 66.6462 38.1603 65.0143 50.3616C64.6748 56.8412 65.1411 60.212 65.6319 63.7835C65.9918 66.3925 66.3599 69.0629 66.454 72.8229C66.7362 72.8065 67.0184 72.7942 67.3006 72.7819C71.2107 60.2365 79.7179 57.39 86.4623 57.3204C93.5094 57.2589 101.035 58.9013 108.319 60.4946C129.845 65.2088 148.438 72.2841 160.111 40.3453C160.974 37.9861 163.584 36.7738 165.944 37.6339C168.299 38.4981 169.514 41.1112 168.651 43.4744C154.25 82.8717 127.706 74.0598 106.377 69.3865C99.2723 67.8301 92.5646 66.3638 86.5523 66.4212C82.4337 66.4621 77.4275 67.8629 75.2312 78.3808C74.7567 80.6581 72.6422 82.2104 70.3313 81.981C68.225 81.7721 66.2577 81.8704 64.5358 82.2554C63.8037 82.8002 62.9039 83.1237 61.9345 83.1483L61.9386 83.1524Z" fill="url(#paint0_linear_225_11957)"/>
</g>
<defs>
<linearGradient id="paint0_linear_225_11957" x1="121.497" y1="0" x2="121.497" y2="292.008" gradientUnits="userSpaceOnUse">
<stop stop-color="#7950BF"/>
<stop offset="1" stop-color="#AF90E3"/>
</linearGradient>
<clipPath id="clip0_225_11957">
<rect width="243" height="292" fill="white"/>
</clipPath>
</defs>
</svg>
