<svg width="431" height="344" viewBox="0 0 431 344" fill="none" xmlns="http://www.w3.org/2000/svg">
<g clip-path="url(#clip0_229_12086)">
<path d="M158.033 286.667H43.0999C40.4565 286.667 38.311 284.526 38.311 281.889V253.222C38.311 242.799 42.8854 232.062 50.8656 223.768C59.2634 215.034 70.1131 210.222 81.411 210.222H119.722C131.02 210.222 141.87 215.031 150.268 223.768C158.248 232.066 162.822 242.803 162.822 253.222V281.889C162.822 284.526 160.677 286.667 158.033 286.667ZM47.8888 277.111H153.244V253.222C153.244 245.241 149.639 236.917 143.356 230.381C136.782 223.543 128.388 219.778 119.722 219.778H81.411C72.7451 219.778 64.3511 223.543 57.7769 230.381C51.4939 236.917 47.8888 245.241 47.8888 253.222V277.111Z" fill="#8ABD56"/>
<path d="M71.8333 286.667C69.1899 286.667 67.0444 284.526 67.0444 281.889V253.222C67.0444 250.585 69.1899 248.444 71.8333 248.444C74.4768 248.444 76.6222 250.585 76.6222 253.222V281.889C76.6222 284.526 74.4768 286.667 71.8333 286.667Z" fill="#8ABD56"/>
<path d="M129.3 286.667C126.657 286.667 124.511 284.526 124.511 281.889V253.222C124.511 250.585 126.657 248.444 129.3 248.444C131.944 248.444 134.089 250.585 134.089 253.222V281.889C134.089 284.526 131.944 286.667 129.3 286.667Z" fill="#8ABD56"/>
<path d="M100.567 200.667C82.0815 200.667 67.0444 185.664 67.0444 167.222C67.0444 148.78 82.0815 133.778 100.567 133.778C119.052 133.778 134.089 148.78 134.089 167.222C134.089 185.664 119.052 200.667 100.567 200.667ZM100.567 143.333C87.3646 143.333 76.6222 154.051 76.6222 167.222C76.6222 180.394 87.3646 191.111 100.567 191.111C113.769 191.111 124.511 180.394 124.511 167.222C124.511 154.051 113.769 143.333 100.567 143.333Z" fill="#8ABD56"/>
<path d="M320.855 191.111H186.766C184.123 191.111 181.978 188.971 181.978 186.333C181.978 183.696 184.123 181.556 186.766 181.556H320.855C323.499 181.556 325.644 183.696 325.644 186.333C325.644 188.971 323.499 191.111 320.855 191.111Z" fill="#1FA8B6"/>
<path d="M292.122 219.778H186.766C184.123 219.778 181.978 217.637 181.978 215C181.978 212.363 184.123 210.222 186.766 210.222H292.122C294.765 210.222 296.911 212.363 296.911 215C296.911 217.637 294.765 219.778 292.122 219.778Z" fill="#1FA8B6"/>
<path d="M263.389 248.444H186.766C184.123 248.444 181.978 246.304 181.978 243.667C181.978 241.029 184.123 238.889 186.766 238.889H263.389C266.032 238.889 268.178 241.029 268.178 243.667C268.178 246.304 266.032 248.444 263.389 248.444Z" fill="#1FA8B6"/>
<path d="M368.745 162.444C366.101 162.444 363.956 160.304 363.956 157.667V100.333C363.956 90.2847 359.661 86 349.589 86H263.389C260.746 86 258.6 83.8596 258.6 81.2222C258.6 78.5849 260.746 76.4444 263.389 76.4444H349.589C357.224 76.4444 363.186 78.5314 367.312 82.6479C371.438 86.7644 373.533 92.7156 373.533 100.333V157.667C373.533 160.304 371.388 162.444 368.745 162.444Z" fill="#1FA8B6"/>
<path d="M311.278 334.444H23.9444C16.309 334.444 10.3478 332.358 6.21789 328.237C2.09179 324.121 0 318.169 0 310.556V100.333C0 87.162 10.7424 76.4444 23.9444 76.4444H110.144C112.788 76.4444 114.933 78.5849 114.933 81.2222C114.933 83.8596 112.788 86 110.144 86H23.9444C16.0217 86 9.57778 92.429 9.57778 100.333V310.556C9.57778 320.604 13.8725 324.889 23.9444 324.889H311.278C313.921 324.889 316.067 327.029 316.067 329.667C316.067 332.304 313.921 334.444 311.278 334.444Z" fill="#1FA8B6"/>
<path d="M225.078 114.667H148.455C145.812 114.667 143.667 112.526 143.667 109.889V4.77778C143.667 2.14044 145.812 0 148.455 0H225.078C227.721 0 229.867 2.14044 229.867 4.77778V109.889C229.867 112.526 227.721 114.667 225.078 114.667ZM153.244 105.111H220.289V9.55556H153.244V105.111Z" fill="#1FA8B6"/>
<path d="M225.078 86H148.455C145.812 86 143.667 83.8596 143.667 81.2222C143.667 78.5849 145.812 76.4444 148.455 76.4444H225.078C227.721 76.4444 229.867 78.5849 229.867 81.2222C229.867 83.8596 227.721 86 225.078 86Z" fill="#1FA8B6"/>
<path d="M363.778 288.808V249.204C363.778 246.331 366.109 244 368.982 244C371.855 244 374.186 246.331 374.186 249.204V288.808C374.186 291.681 371.855 294.012 368.982 294.012C366.109 294.012 363.778 291.681 363.778 288.808Z" fill="#8ABD56"/>
<path d="M349.204 274.21C346.331 274.21 344 271.878 344 269.006C344 266.133 346.331 263.802 349.204 263.802H388.808C391.681 263.802 394.012 266.133 394.012 269.006C394.012 271.878 391.681 274.21 388.808 274.21H349.204Z" fill="#8ABD56"/>
<path d="M368.285 222.58C393.536 222.58 414.005 243.087 414.005 268.385C414.005 293.683 393.536 314.19 368.285 314.19C343.035 314.19 322.566 293.683 322.566 268.385C322.566 243.087 343.035 222.58 368.285 222.58ZM368.285 215C361.096 215 354.116 216.413 347.542 219.199C341.196 221.888 335.499 225.736 330.607 230.636C325.716 235.536 321.875 241.245 319.191 247.603C316.41 254.189 315 261.182 315 268.385C315 275.588 316.41 282.581 319.191 289.167C321.875 295.525 325.716 301.233 330.607 306.134C335.497 311.034 341.196 314.883 347.542 317.571C354.116 320.357 361.096 321.77 368.285 321.77C375.475 321.77 382.455 320.357 389.029 317.571C395.375 314.883 401.072 311.034 405.964 306.134C410.854 301.235 414.696 295.525 417.379 289.167C420.16 282.581 421.571 275.588 421.571 268.385C421.571 261.182 420.16 254.189 417.379 247.603C414.696 241.245 410.854 235.537 405.964 230.636C401.073 225.736 395.375 221.888 389.029 219.199C382.455 216.413 375.475 215 368.285 215Z" fill="#8ABD56"/>
<path d="M244.233 114.667H129.3C126.657 114.667 124.511 112.526 124.511 109.889C124.511 107.252 126.657 105.111 129.3 105.111H244.233C246.877 105.111 249.022 107.252 249.022 109.889C249.022 112.526 246.877 114.667 244.233 114.667Z" fill="#1FA8B6"/>
</g>
<defs>
<clipPath id="clip0_229_12086">
<rect width="431" height="344" fill="white"/>
</clipPath>
</defs>
</svg>
