<svg width="292" height="312" viewBox="0 0 292 312" fill="none" xmlns="http://www.w3.org/2000/svg">
<g clip-path="url(#clip0_225_12020)">
<path d="M268.889 166.971H261.394V38.9158C261.394 34.0848 257.47 30.154 252.649 30.154H39.3517C34.5298 30.154 30.6064 34.0848 30.6064 38.9158V166.031H23.1108V38.9158C23.1108 29.9445 30.3956 22.6444 39.3517 22.6444H252.65C261.605 22.6444 268.891 29.9428 268.891 38.9158V166.969L268.889 166.971Z" fill="#1FA8B6"/>
<path d="M111.312 223.749L7.75151 160.137C2.21518 156.736 -0.761286 150.369 0.168965 143.919C0.664206 140.481 2.36743 137.156 4.96243 134.556L23.8569 115.626L29.1573 120.936L10.2629 139.866C8.8039 141.328 7.85357 143.148 7.58755 144.994C7.08561 148.474 8.68845 151.905 11.6699 153.735L115.231 217.347L111.312 223.749Z" fill="#1FA8B6"/>
<path d="M170.75 28.6689L152.183 10.0675C148.773 6.65136 143.225 6.65136 139.815 10.0675L121.483 28.4342L116.183 23.1238L134.515 4.7572C140.848 -1.5874 151.151 -1.5874 157.482 4.7572L176.048 23.3585L170.748 28.6689H170.75Z" fill="#1FA8B6"/>
<path d="M180.478 223.878L176.56 217.476L280.33 153.737C283.311 151.905 284.914 148.474 284.412 144.995C284.146 143.15 283.196 141.329 281.737 139.868L262.98 121.075L268.28 115.765L287.037 134.557C289.632 137.157 291.336 140.483 291.831 143.921C292.761 150.373 289.785 156.738 284.247 160.139L180.477 223.878H180.478Z" fill="#1FA8B6"/>
<path d="M275.759 312H16.2409C7.28641 312 0 304.702 0 295.729C0 290.11 2.96978 284.794 7.75153 281.858L137.511 202.154C142.747 198.937 149.252 198.937 154.489 202.154L284.248 281.858C289.03 284.794 292 290.11 292 295.729C292 304.7 284.715 312 275.759 312ZM141.428 208.557L11.67 288.259C9.09504 289.84 7.49554 292.703 7.49554 295.729C7.49554 300.56 11.419 304.49 16.2409 304.49H275.761C280.583 304.49 284.506 300.56 284.506 295.729C284.506 292.703 282.907 289.842 280.332 288.259L150.572 208.555C147.753 206.824 144.249 206.824 141.43 208.555L141.428 208.557Z" fill="#1FA8B6"/>
<path d="M7.49554 146.407H0V295.729H7.49554V146.407Z" fill="#1FA8B6"/>
<path d="M292 146.407H284.504V295.729H292V146.407Z" fill="#1FA8B6"/>
<path d="M147.232 68.9357C172.483 68.9357 192.952 89.4429 192.952 114.741C192.952 140.039 172.483 160.546 147.232 160.546C121.981 160.546 101.513 140.039 101.513 114.741C101.513 89.4429 121.981 68.9357 147.232 68.9357ZM147.232 61.3557C140.043 61.3557 133.062 62.7688 126.489 65.5547C120.143 68.2434 114.446 72.092 109.554 76.9917C104.663 81.8914 100.822 87.6007 98.1379 93.9587C95.3572 100.545 93.9468 107.538 93.9468 114.741C93.9468 121.944 95.3572 128.937 98.1379 135.523C100.822 141.881 104.663 147.589 109.554 152.49C114.444 157.39 120.143 161.238 126.489 163.927C133.062 166.713 140.043 168.126 147.232 168.126C154.421 168.126 161.402 166.713 167.975 163.927C174.321 161.238 180.018 157.39 184.911 152.49C189.801 147.59 193.643 141.881 196.326 135.523C199.107 128.937 200.517 121.944 200.517 114.741C200.517 107.538 199.107 100.545 196.326 93.9587C193.643 87.6007 189.801 81.8931 184.911 76.9917C180.02 72.092 174.321 68.2434 167.975 65.5547C161.402 62.7688 154.421 61.3557 147.232 61.3557Z" fill="#8ABD56"/>
<path d="M163.225 136.74C162.374 136.74 161.512 136.48 160.771 135.939L144.776 124.297C143.693 123.509 143.051 122.249 143.051 120.906V89.9944C143.051 87.6795 144.923 85.8038 147.234 85.8038C149.544 85.8038 151.416 87.6795 151.416 89.9944V118.771L165.688 129.157C167.557 130.516 167.972 133.138 166.613 135.01C165.795 136.138 164.518 136.738 163.225 136.738V136.74Z" fill="#8ABD56"/>
</g>
<defs>
<clipPath id="clip0_225_12020">
<rect width="292" height="312" fill="white"/>
</clipPath>
</defs>
</svg>
