<svg width="159" height="160" viewBox="0 0 159 160" fill="none" xmlns="http://www.w3.org/2000/svg">
<g clip-path="url(#clip0_194_5113)">
<path d="M1.83429 159.999H35.4034C35.4034 159.999 35.4064 159.999 35.4073 159.999C35.4083 159.999 35.4103 159.999 35.4112 159.999H53.2207C53.2207 159.999 53.2236 159.999 53.2246 159.999C53.2256 159.999 53.2275 159.999 53.2285 159.999H87.294C88.3072 159.999 89.1293 159.177 89.1293 158.164C89.1293 158.164 89.4823 134.426 89.6617 134.473C87.9474 114.768 95.502 95.0181 70.1701 90.8973C69.7313 90.869 69.2905 90.8495 68.8458 90.8495H57.1672V83.6734C66.5698 78.8838 73.0283 69.1174 73.0283 57.8643V54.6754H73.903C78.3498 54.6754 81.9677 51.0586 81.9677 46.6131C81.9677 44.1428 80.8491 41.9298 79.0938 40.4499V36.2199C79.0938 17.1862 63.6043 1.7002 44.5642 1.7002C25.524 1.7002 10.0354 17.1872 10.0354 36.2209V39.7314C7.7165 41.1489 6.16598 43.7041 6.16598 46.6141C6.16598 51.0596 9.78385 54.6764 14.2306 54.6764H15.1053V57.8652C15.1053 69.1183 21.5648 78.8857 30.9674 83.6753V90.8505H20.2844C9.09928 90.8505 0 99.9471 0 111.129V158.165C0 159.178 0.821091 160 1.83526 160L1.83429 159.999ZM32.6817 95.372L42.2374 106.581C42.2374 106.623 42.2394 106.664 42.2433 106.706L37.3703 113.286L29.5242 98.0997L32.6817 95.372ZM55.7532 95.1439L59.1751 98.0997L51.3289 113.286L46.6432 106.958L55.7532 95.1439ZM44.3496 110.027L49.4302 116.889L46.3936 123.141H42.2384L39.228 116.944L44.3496 110.027ZM42.6372 126.81H45.9947L51.051 156.331H37.581L42.6372 126.81ZM85.4597 111.129V156.331H54.7742L49.4497 125.246L53.0032 117.932C53.093 117.826 53.172 117.712 53.2373 117.588L63.0992 98.4984C63.4882 97.7448 63.3098 96.8226 62.6681 96.2689L60.6427 94.519H68.8448C78.0056 94.519 85.4588 101.97 85.4588 111.128L85.4597 111.129ZM73.903 51.0079H73.0283V42.2222H73.903C76.3263 42.2222 78.2971 44.1925 78.2971 46.6151C78.2971 49.0377 76.3263 51.0079 73.903 51.0079ZM13.705 36.2209C13.705 19.2101 27.5485 5.37064 44.5642 5.37064C61.5798 5.37064 75.4233 19.2101 75.4233 36.2209V38.698C74.9309 38.6035 74.4228 38.5528 73.903 38.5528H72.451C72.1224 38.2418 71.6816 38.0488 71.193 38.0488C70.9405 38.0488 70.7006 38.0995 70.4812 38.1921C60.6544 33.4229 59.6627 25.5927 59.6246 25.2544C59.5681 24.6899 59.2531 24.183 58.7723 23.8817C58.2906 23.5805 57.6967 23.5191 57.1643 23.715C42.4315 29.1403 20.6336 37.146 16.9387 38.4514C16.7348 38.4514 16.5418 38.4923 16.3584 38.5538H14.2287C14.0522 38.5538 13.8776 38.5616 13.704 38.5723V36.2218L13.705 36.2209ZM14.2296 51.0069C11.8063 51.0069 9.83553 49.0357 9.83553 46.6141C9.83553 45.0202 10.6917 43.6271 11.9653 42.8569C12.4109 42.8335 12.8137 42.6551 13.1189 42.3695C13.4749 42.2759 13.8454 42.2213 14.2296 42.2213H15.1044V51.0069H14.2296ZM18.7739 57.8652V41.6831C21.6292 40.6673 30.2009 37.5506 56.4709 27.8797C57.491 31.2558 60.5306 37.6266 69.3587 41.7212V57.8652C69.3587 71.8071 58.0127 83.1498 44.0668 83.1498C30.121 83.1498 18.7749 71.8071 18.7749 57.8652H18.7739ZM44.0658 86.8193C47.3668 86.8193 50.538 86.2568 53.4967 85.2351V92.0603L44.5602 103.651L34.636 92.0096V85.2351C37.5946 86.2568 40.7649 86.8193 44.0658 86.8193ZM3.66858 111.129C3.66858 101.971 11.1218 94.5199 20.2835 94.5199H28.0556L26.0301 96.2698C25.3885 96.8246 25.21 97.7458 25.5991 98.4994L35.4463 117.56L39.1803 125.246L33.8558 156.331H3.66858V111.129Z" fill="#1FA8B6"/>
<path d="M58.7744 117.696V129.438C58.7744 135.179 63.4455 139.848 69.1882 139.848C74.931 139.848 79.602 135.178 79.602 129.438V117.696C79.602 116.683 78.7809 115.861 77.7668 115.861H60.6087C59.5955 115.861 58.7734 116.683 58.7734 117.696H58.7744ZM69.1882 136.179C65.4699 136.179 62.4449 133.155 62.4449 129.437V126.322H75.9325V129.437C75.9325 133.154 72.9075 136.179 69.1882 136.179ZM75.9325 119.53V122.652H62.4449V119.53H75.9325Z" fill="#1FA8B6"/>
<path d="M157.298 93.4088C156.358 93.4088 155.596 92.6464 155.596 91.7066V13.4477C155.596 12.35 154.752 11.457 153.716 11.457H143.746C142.806 11.457 142.043 10.6947 142.043 9.75488C142.043 8.81509 142.806 8.05273 143.746 8.05273H153.716C156.63 8.05273 159 10.4724 159 13.4468V91.7056C159 92.6454 158.238 93.4078 157.298 93.4078L157.298 93.4088Z" fill="#70BF4D"/>
<path d="M86.937 93.4088C85.997 93.4088 85.2344 92.6464 85.2344 91.7066V13.4477C85.2344 10.4734 87.605 8.05371 90.5188 8.05371H100.242C101.182 8.05371 101.945 8.81607 101.945 9.75586C101.945 10.6956 101.182 11.458 100.242 11.458H90.5188C89.4822 11.458 88.6387 12.351 88.6387 13.4487V91.7076C88.6387 92.6474 87.8761 93.4097 86.936 93.4097L86.937 93.4088Z" fill="#70BF4D"/>
<path d="M151.279 72.9429C150.339 72.9429 149.577 72.1806 149.577 71.2408V17.6621H145.378C144.438 17.6621 143.676 16.8998 143.676 15.96C143.676 15.0202 144.438 14.2578 145.378 14.2578H151.279C152.219 14.2578 152.982 15.0202 152.982 15.96V71.2408C152.982 72.1806 152.219 72.9429 151.279 72.9429Z" fill="#70BF4D"/>
<path d="M136.044 93.4087H92.9565C92.0165 93.4087 91.2539 92.6463 91.2539 91.7066V15.96C91.2539 15.0202 92.0165 14.2578 92.9565 14.2578H98.3083C99.2483 14.2578 100.011 15.0202 100.011 15.96C100.011 16.8998 99.2483 17.6621 98.3083 17.6621H94.6582V90.0054H136.043C136.983 90.0054 137.746 90.7677 137.746 91.7075C137.746 92.6473 136.983 93.4097 136.043 93.4097L136.044 93.4087Z" fill="#70BF4D"/>
<path d="M141.01 20.107H103.23C102.714 20.107 102.225 19.873 101.902 19.4704C101.579 19.0678 101.456 18.5413 101.568 18.0373L102.732 12.7778C103.463 9.48368 106.331 7.18197 109.706 7.18197H114.212C114.596 3.15765 117.996 0 122.12 0C126.244 0 129.643 3.15765 130.027 7.18197H134.533C137.91 7.18197 140.777 9.48368 141.507 12.7788L142.672 18.0373C142.783 18.5404 142.661 19.0687 142.338 19.4704C142.014 19.873 141.526 20.107 141.011 20.107H141.01ZM105.35 16.7037H138.889L138.182 13.5138C137.8 11.7893 136.3 10.5853 134.533 10.5853H128.282C127.785 10.5853 127.315 10.3689 126.992 9.99354C126.668 9.61821 126.524 9.11907 126.599 8.6287C126.639 8.36158 126.658 8.14321 126.658 7.94043C126.658 5.43888 124.622 3.40332 122.119 3.40332C119.615 3.40332 117.58 5.43888 117.58 7.94043C117.58 8.14126 117.6 8.36548 117.64 8.62383C117.716 9.11517 117.572 9.61334 117.249 9.99062C116.925 10.3669 116.453 10.5843 115.958 10.5843H109.706C107.94 10.5843 106.439 11.7893 106.057 13.5129L105.351 16.7027L105.35 16.7037Z" fill="#70BF4D"/>
<path d="M123.777 6.51709H120.457V9.92041H123.777V6.51709Z" fill="#70BF4D"/>
<path d="M136.045 93.4084C135.826 93.4084 135.605 93.3664 135.394 93.2787C134.758 93.0155 134.344 92.3945 134.344 91.7062V76.4736C134.344 75.5338 135.106 74.7715 136.046 74.7715H151.283C151.972 74.7715 152.592 75.1858 152.856 75.8214C153.12 76.458 152.974 77.1892 152.488 77.6757L137.251 92.9082C136.925 93.2339 136.49 93.4064 136.047 93.4064L136.045 93.4084ZM137.748 78.1758V87.598L147.173 78.1758H137.748Z" fill="#70BF4D"/>
<path d="M125.787 64.9674H118.122C117.182 64.9674 116.42 64.205 116.42 63.2653V58.0535H111.207C110.266 58.0535 109.504 57.2912 109.504 56.3514V48.6888C109.504 47.749 110.266 46.9866 111.207 46.9866H116.42V41.7749C116.42 40.8351 117.182 40.0728 118.122 40.0728H125.787C126.727 40.0728 127.49 40.8351 127.49 41.7749V46.9866H132.704C133.644 46.9866 134.407 47.749 134.407 48.6888V56.3514C134.407 57.2912 133.644 58.0535 132.704 58.0535H127.49V63.2653C127.49 64.205 126.727 64.9674 125.787 64.9674ZM119.824 61.5641H124.085V56.3523C124.085 55.4126 124.847 54.6502 125.787 54.6502H131.001V50.3909H125.787C124.847 50.3909 124.085 49.6286 124.085 48.6888V43.4771H119.824V48.6888C119.824 49.6286 119.062 50.3909 118.121 50.3909H112.908V54.6502H118.121C119.062 54.6502 119.824 55.4126 119.824 56.3523V61.5641Z" fill="#70BF4D"/>
</g>
<defs>
<clipPath id="clip0_194_5113">
<rect width="159" height="160" fill="white"/>
</clipPath>
</defs>
</svg>
