<svg width="132" height="146" viewBox="0 0 132 146" fill="none" xmlns="http://www.w3.org/2000/svg">
<g clip-path="url(#clip0_21_19776)">
<path d="M20.9883 46.152V138.032C20.9883 141.656 23.9197 144.593 27.5372 144.593H47.7679C51.3855 144.593 54.3168 141.656 54.3168 138.032V1.40674" stroke="#1FA8B6" stroke-width="6" stroke-linecap="round" stroke-linejoin="round"/>
<path d="M47.4474 5.88086L18.6393 13.1749C17.0583 13.5749 15.6819 14.5537 14.783 15.9165L2.49373 34.5245C1.78546 35.5978 1.40625 36.856 1.40625 38.1444V85.3699C1.40625 88.9939 4.33762 91.9304 7.95519 91.9304H20.9909" stroke="#1FA8B6" stroke-width="6" stroke-linecap="round" stroke-linejoin="round"/>
<path d="M76.9922 1.40674V138.032C76.9922 141.656 79.9236 144.593 83.5411 144.593H105.146C108.764 144.593 111.695 141.656 111.695 138.032V45.1189" stroke="#1FA8B6" stroke-width="6" stroke-linecap="round" stroke-linejoin="round"/>
<path d="M85.2422 5.88086L113.386 13.1669C114.953 13.5729 116.316 14.5457 117.21 15.8984L129.51 34.5245C130.218 35.5978 130.597 36.856 130.597 38.1444V85.3699C130.597 88.9939 127.666 91.9304 124.048 91.9304H111.699" stroke="#1FA8B6" stroke-width="6" stroke-linecap="round" stroke-linejoin="round"/>
<path d="M54.3194 54.4129L37.3893 39.7142C35.2023 37.8148 34.5181 34.7034 35.7079 32.0603L47.7705 5.26984C48.8299 2.91821 51.1654 1.40674 53.7396 1.40674H78.2981C80.8563 1.40674 83.1797 2.89811 84.2471 5.22562L96.3237 31.5277C97.5035 34.0944 96.9076 37.1294 94.849 39.0609L76.9959 55.7917" stroke="#1FA8B6" stroke-width="6" stroke-linecap="round" stroke-linejoin="round"/>
<path d="M76.9922 71.2782L89.7289 61.4255C92.3593 59.3895 93.0515 55.7032 91.3381 52.8511L87.3011 46.1299" stroke="#1FA8B6" stroke-width="6" stroke-linecap="round" stroke-linejoin="round"/>
<path d="M54.3171 71.2782L42.0901 61.1763C39.5519 59.0799 38.96 55.4218 40.7076 52.63L44.7766 46.1299" stroke="#1FA8B6" stroke-width="6" stroke-linecap="round" stroke-linejoin="round"/>
<path d="M94.3438 85.0464V98.8145" stroke="#8ABD56" stroke-width="6" stroke-linecap="round" stroke-linejoin="round"/>
<path d="M101.678 91.9307H87.2461" stroke="#8ABD56" stroke-width="6" stroke-linecap="round" stroke-linejoin="round"/>
<path d="M54.3164 134.268H76.9929" stroke="#1FA8B6" stroke-width="6" stroke-linecap="round" stroke-linejoin="round"/>
</g>
<defs>
<clipPath id="clip0_21_19776">
<rect width="132" height="146" fill="white"/>
</clipPath>
</defs>
</svg>
