<svg width="362" height="356" viewBox="0 0 362 356" fill="none" xmlns="http://www.w3.org/2000/svg">
<path d="M213.527 84.0273H145.625C137.004 84.0273 130.016 91.0157 130.016 99.6363V240.678C130.016 249.298 137.004 256.287 145.625 256.287H213.527C222.148 256.287 229.136 249.298 229.136 240.678V99.6363C229.136 91.0157 222.148 84.0273 213.527 84.0273Z" stroke="#4F73B5" stroke-width="6" stroke-linecap="round" stroke-linejoin="round"/>
<path d="M181.14 241.004H178.012" stroke="#4F73B5" stroke-width="6" stroke-linecap="round" stroke-linejoin="round"/>
<path d="M203.026 93.9019V94.9559C203.026 98.4054 200.228 101.203 196.779 101.203H162.044C158.595 101.203 155.797 98.4054 155.797 94.9559V93.9019" stroke="#4F73B5" stroke-width="6" stroke-linecap="round" stroke-linejoin="round"/>
<path d="M167.254 168.492L177.267 178.501L193.633 162.135" stroke="#70BF4D" stroke-width="6" stroke-linecap="round" stroke-linejoin="round"/>
<path d="M179.574 134.098C179.574 134.098 164.109 146.095 151.207 146.095V176.503C151.207 182.827 153.794 188.509 158.125 191.714C162.653 195.058 176.163 203.97 176.738 204.348L179.574 206.217L182.411 204.348C182.986 203.97 196.496 195.058 201.024 191.714C205.355 188.514 207.942 182.827 207.942 176.503V146.095C195.044 146.095 179.574 134.098 179.574 134.098Z" stroke="#70BF4D" stroke-width="6" stroke-linecap="round" stroke-linejoin="round"/>
<path d="M180.91 72.3856V61.376" stroke="#1FA8B6" stroke-width="6" stroke-linecap="round" stroke-linejoin="round"/>
<path d="M180.911 39.2318C190.704 39.2318 198.642 31.2932 198.642 21.5004C198.642 11.7077 190.704 3.76904 180.911 3.76904C171.118 3.76904 163.18 11.7077 163.18 21.5004C163.18 31.2932 171.118 39.2318 180.911 39.2318Z" stroke="#1FA8B6" stroke-width="6" stroke-linecap="round" stroke-linejoin="round"/>
<path d="M180.91 269.079V294.624" stroke="#1FA8B6" stroke-width="6" stroke-linecap="round" stroke-linejoin="round"/>
<path d="M180.911 352.231C190.704 352.231 198.642 344.292 198.642 334.499C198.642 324.707 190.704 316.768 180.911 316.768C171.118 316.768 163.18 324.707 163.18 334.499C163.18 344.292 171.118 352.231 180.911 352.231Z" stroke="#1FA8B6" stroke-width="6" stroke-linecap="round" stroke-linejoin="round"/>
<path d="M91.7087 178.002H64.2852" stroke="#1FA8B6" stroke-width="6" stroke-linecap="round" stroke-linejoin="round"/>
<path d="M39.4882 187.333C44.6369 179.003 42.058 168.076 33.728 162.928C25.398 157.779 14.4713 160.358 9.3226 168.688C4.17387 177.018 6.75281 187.944 15.0828 193.093C23.4128 198.242 34.3395 195.663 39.4882 187.333Z" stroke="#1FA8B6" stroke-width="6" stroke-linecap="round" stroke-linejoin="round"/>
<path d="M269.902 178.002H297.532" stroke="#1FA8B6" stroke-width="6" stroke-linecap="round" stroke-linejoin="round"/>
<path d="M352.5 187.341C357.649 179.011 355.07 168.084 346.74 162.935C338.41 157.787 327.483 160.366 322.334 168.696C317.186 177.026 319.765 187.952 328.095 193.101C336.425 198.25 347.351 195.671 352.5 187.341Z" stroke="#1FA8B6" stroke-width="6" stroke-linecap="round" stroke-linejoin="round"/>
<path d="M116.718 113.392L98.4453 95.5356" stroke="#1FA8B6" stroke-width="6" stroke-linecap="round" stroke-linejoin="round"/>
<path d="M70.2509 85.0721C80.0437 85.0721 87.9823 77.1335 87.9823 67.3408C87.9823 57.548 80.0437 49.6094 70.2509 49.6094C60.4581 49.6094 52.5195 57.548 52.5195 67.3408C52.5195 77.1335 60.4581 85.0721 70.2509 85.0721Z" stroke="#1FA8B6" stroke-width="6" stroke-linecap="round" stroke-linejoin="round"/>
<path d="M241.766 239.068L263.373 260.469" stroke="#1FA8B6" stroke-width="6" stroke-linecap="round" stroke-linejoin="round"/>
<path d="M291.571 306.395C301.364 306.395 309.303 298.457 309.303 288.664C309.303 278.871 301.364 270.933 291.571 270.933C281.778 270.933 273.84 278.871 273.84 288.664C273.84 298.457 281.778 306.395 291.571 306.395Z" stroke="#1FA8B6" stroke-width="6" stroke-linecap="round" stroke-linejoin="round"/>
<path d="M116.095 244.693L98.4453 260.465" stroke="#1FA8B6" stroke-width="6" stroke-linecap="round" stroke-linejoin="round"/>
<path d="M70.2509 306.395C80.0437 306.395 87.9823 298.457 87.9823 288.664C87.9823 278.871 80.0437 270.933 70.2509 270.933C60.4581 270.933 52.5195 278.871 52.5195 288.664C52.5195 298.457 60.4581 306.395 70.2509 306.395Z" stroke="#1FA8B6" stroke-width="6" stroke-linecap="round" stroke-linejoin="round"/>
<path d="M246.77 111.518L263.375 95.5356" stroke="#1FA8B6" stroke-width="6" stroke-linecap="round" stroke-linejoin="round"/>
<path d="M291.571 85.0721C301.364 85.0721 309.303 77.1335 309.303 67.3408C309.303 57.548 301.364 49.6094 291.571 49.6094C281.778 49.6094 273.84 57.548 273.84 67.3408C273.84 77.1335 281.778 85.0721 291.571 85.0721Z" stroke="#1FA8B6" stroke-width="6" stroke-linecap="round" stroke-linejoin="round"/>
</svg>
