<svg width="321" height="355" viewBox="0 0 321 355" fill="none" xmlns="http://www.w3.org/2000/svg">
<g clip-path="url(#clip0_203_11780)">
<path d="M83.7773 110.78C83.4273 95.4889 83.0992 85.3438 82.8221 81.4244C82.8221 81.3368 82.8149 81.242 82.8149 81.1544C82.8076 72.6588 83.7554 56.339 90.2662 42.5154C97.8415 26.4438 111.002 17.919 128.34 17.8679C132.102 17.8533 133.582 16.9483 136.046 15.4521C140.042 13.0216 145.007 9.99268 159.18 9.99268H159.261C190.335 9.99268 212.565 19.116 225.353 37.1217C233.424 48.4857 237.514 63.3019 237.514 81.1471C237.514 81.3149 237.507 81.4828 237.485 81.6507C237.019 85.2781 236.72 95.8903 236.654 110.78L228.736 110.743C228.773 101.955 228.94 86.5335 229.604 80.9135C229.567 64.8565 225.966 51.6679 218.901 41.7198C207.687 25.9329 187.622 17.9263 159.261 17.9263C159.231 17.9263 159.21 17.9263 159.18 17.9263C147.23 17.9263 143.476 20.2108 140.158 22.2325C137.293 23.9769 134.325 25.7869 128.361 25.8015C94.4221 25.9037 90.7256 64.3383 90.7256 81.023C91.0755 86.2269 91.4401 99.9556 91.688 110.604L83.7773 110.787V110.78Z" fill="url(#paint0_linear_203_11780)"/>
<path d="M160.165 206.771C156.104 206.771 153.77 206.537 150.643 206.07C149.819 205.946 149.272 205.859 149.272 205.859C142.652 204.881 136.367 203.946 130.068 199.18C127.122 196.962 124.096 194.4 121.063 191.568C112.212 183.306 104.724 174.022 100.525 166.088C100.444 165.928 100.371 165.767 100.306 165.599L94.7575 150.55C94.4367 149.667 93.9117 148.9 93.2118 148.265C84.5501 140.47 78.9069 126.705 80.3724 116.939C81.1817 111.56 83.9814 107.612 88.4799 105.524C89.8944 104.868 91.564 105.108 92.7452 106.13C93.0587 106.393 94.8449 107.78 95.8948 106.685C102.573 99.6855 106.955 92.3649 110.542 82.2125C112.117 77.7896 113.386 72.9944 114.326 67.9583C114.793 65.4111 116.915 63.3821 119.853 62.6741C122.113 62.1048 124.614 62.623 126.488 64.0754C135.733 71.2792 169.249 94.2699 212.711 87.8106C215.992 87.3289 219.112 89.4893 219.819 92.7372C220.723 96.8609 222.378 100.576 224.879 104.101C226.563 106.473 228.167 105.721 228.35 105.627C229.443 105.05 230.741 105.021 231.857 105.539C236.355 107.626 239.155 111.568 239.964 116.947C241.43 126.712 235.787 140.478 227.118 148.294C226.425 148.915 225.907 149.681 225.586 150.564L220.038 165.614C219.98 165.782 219.907 165.942 219.819 166.103C215.627 174.022 208.139 183.306 199.273 191.583C196.328 194.349 193.295 196.911 190.269 199.195C183.955 203.961 177.67 204.888 171.021 205.873C171.021 205.873 170.481 205.961 169.672 206.078C166.639 206.53 164.218 206.778 160.172 206.778L160.165 206.771ZM107.633 162.607C111.417 169.643 118.438 178.284 126.459 185.773C129.287 188.415 132.109 190.802 134.836 192.853C139.524 196.4 144.351 197.115 150.468 198.02C150.511 198.02 151.029 198.108 151.809 198.224C154.616 198.64 156.585 198.845 160.172 198.845C163.759 198.845 165.728 198.648 168.513 198.232C169.3 198.115 169.796 198.035 169.811 198.035C175.971 197.122 180.798 196.407 185.501 192.86C188.3 190.743 191.122 188.364 193.871 185.78C201.913 178.27 208.927 169.636 212.703 162.607L218.157 147.813C218.93 145.703 220.169 143.879 221.832 142.382C228.496 136.383 233.22 125.26 232.141 118.107C231.828 116.005 231.033 114.465 229.735 113.443C226.578 114.144 221.963 113.648 218.434 108.677C215.591 104.678 213.622 100.459 212.434 95.8391C166.982 101.999 132.022 78.3516 121.902 70.5274C120.91 75.5708 119.605 80.3879 118.008 84.8619C114.027 96.131 109.121 104.291 101.626 112.152C98.0384 115.91 93.4961 115.458 90.1714 113.83C89.1288 114.837 88.4872 116.253 88.2029 118.115C87.1311 125.267 91.8557 136.383 98.5196 142.382C100.167 143.879 101.429 145.747 102.187 147.813L107.633 162.6V162.607Z" fill="url(#paint1_linear_203_11780)"/>
<path d="M303.118 344.496C300.034 311.879 294.355 276.509 290.461 265.656C288.245 259.467 283.2 254.409 276.623 251.767L199.113 222.164C197.895 221.697 196.991 220.668 196.678 219.405C194.644 211.092 194.046 199.793 193.462 188.867L193.419 188.101L201.322 187.678L201.366 188.444C201.854 197.662 202.401 208.012 203.918 215.515L279.503 244.381C288.238 247.884 294.923 254.65 297.913 262.97C302.061 274.539 307.807 310.017 311 343.737L303.118 344.482V344.496Z" fill="url(#paint2_linear_203_11780)"/>
<path d="M160.165 239.71C155.418 239.71 150.665 238.608 146.341 236.404L118.016 221.996L121.603 214.931L149.928 229.339C156.337 232.601 164 232.601 170.408 229.339L198.734 214.931L202.321 221.996L173.996 236.404C169.665 238.608 164.918 239.71 160.172 239.71H160.165Z" fill="url(#paint3_linear_203_11780)"/>
<path d="M17.8815 344.496L10 343.744C13.2007 310.01 18.9533 274.502 23.1091 262.912C26.0766 254.643 32.704 247.899 41.2928 244.41L115.872 215.529C117.301 208.815 118.373 199.253 119 187.678L126.903 188.108C126.407 197.348 125.343 210.282 123.105 219.412C122.798 220.668 121.894 221.697 120.691 222.164L44.2165 251.774C37.7713 254.395 32.7697 259.438 30.5678 265.591C26.6744 276.473 20.9875 311.871 17.8888 344.496H17.8815Z" fill="url(#paint4_linear_203_11780)"/>
<path d="M100.882 278.663C93.2992 260.511 91.8337 242.381 96.5291 224.777L104.177 226.82C99.9485 242.695 101.297 259.11 108.187 275.612L100.882 278.67V278.663Z" fill="url(#paint5_linear_203_11780)"/>
<path d="M112.015 305.273C102.5 305.273 94.7574 297.559 94.7574 288.078C94.7574 278.597 102.5 270.882 112.015 270.882C121.53 270.882 129.273 278.597 129.273 288.078C129.273 297.559 121.53 305.273 112.015 305.273ZM112.015 278.809C106.86 278.809 102.675 282.969 102.675 288.078C102.675 293.187 106.868 297.347 112.015 297.347C117.163 297.347 121.355 293.187 121.355 288.078C121.355 282.969 117.163 278.809 112.015 278.809Z" fill="url(#paint6_linear_203_11780)"/>
<path d="M225.594 258.051L217.77 256.825C219.469 245.95 219.185 235.98 216.925 227.193L224.588 225.215C227.118 235.053 227.46 246.104 225.594 258.051Z" fill="url(#paint7_linear_203_11780)"/>
<path d="M219.929 345C218.427 345 216.925 344.847 215.459 344.525C214.409 344.299 213.498 343.65 212.937 342.737C212.375 341.825 212.2 340.716 212.47 339.679L214.519 331.614C215.058 329.49 217.216 328.213 219.331 328.753C221.445 329.293 222.728 331.446 222.189 333.57L221.314 336.993C223.421 336.774 225.492 336.096 227.139 335.023C228.401 334.198 229.983 332.767 230.449 330.6L237.23 285.968C238.513 276.057 234.693 264.35 220.162 261.153C220.14 261.153 220.126 261.146 220.104 261.139C205.347 257.92 196.16 266.948 192.478 276.48L177.029 319.221C176.416 321.301 177.123 323.17 177.823 324.381C178.8 326.06 180.346 327.512 182.161 328.549L183.124 324.761C183.663 322.637 185.822 321.36 187.936 321.9C190.058 322.44 191.333 324.6 190.794 326.717L188.745 334.782C188.22 336.847 186.15 338.125 184.064 337.672C178.567 336.475 173.682 332.994 170.984 328.366C168.848 324.702 168.316 320.593 169.49 316.798C169.512 316.74 169.526 316.681 169.548 316.623L185.049 273.736C185.049 273.736 185.071 273.685 185.078 273.663C191.173 257.832 205.558 249.877 221.73 253.38L221.788 253.395C238.134 256.964 247.27 270.167 245.068 287.034C245.068 287.063 245.061 287.092 245.053 287.114L238.251 331.899C238.244 331.964 238.229 332.023 238.214 332.089C237.442 335.913 235.043 339.307 231.456 341.657C228.116 343.839 224.012 345.007 219.914 345.007L219.929 345Z" fill="url(#paint8_linear_203_11780)"/>
</g>
<defs>
<linearGradient id="paint0_linear_203_11780" x1="160.165" y1="9.99268" x2="160.165" y2="110.787" gradientUnits="userSpaceOnUse">
<stop stop-color="#673BB3"/>
<stop offset="1" stop-color="#AF90E3"/>
</linearGradient>
<linearGradient id="paint1_linear_203_11780" x1="160.168" y1="62.4478" x2="160.168" y2="206.778" gradientUnits="userSpaceOnUse">
<stop stop-color="#673BB3"/>
<stop offset="1" stop-color="#AF90E3"/>
</linearGradient>
<linearGradient id="paint2_linear_203_11780" x1="252.209" y1="187.678" x2="252.209" y2="344.496" gradientUnits="userSpaceOnUse">
<stop stop-color="#673BB3"/>
<stop offset="1" stop-color="#AF90E3"/>
</linearGradient>
<linearGradient id="paint3_linear_203_11780" x1="160.168" y1="214.931" x2="160.168" y2="239.71" gradientUnits="userSpaceOnUse">
<stop stop-color="#673BB3"/>
<stop offset="1" stop-color="#AF90E3"/>
</linearGradient>
<linearGradient id="paint4_linear_203_11780" x1="68.4516" y1="187.678" x2="68.4516" y2="344.496" gradientUnits="userSpaceOnUse">
<stop stop-color="#673BB3"/>
<stop offset="1" stop-color="#AF90E3"/>
</linearGradient>
<linearGradient id="paint5_linear_203_11780" x1="101.015" y1="224.777" x2="101.015" y2="278.67" gradientUnits="userSpaceOnUse">
<stop stop-color="#673BB3"/>
<stop offset="1" stop-color="#AF90E3"/>
</linearGradient>
<linearGradient id="paint6_linear_203_11780" x1="112.015" y1="270.882" x2="112.015" y2="305.273" gradientUnits="userSpaceOnUse">
<stop stop-color="#673BB3"/>
<stop offset="1" stop-color="#AF90E3"/>
</linearGradient>
<linearGradient id="paint7_linear_203_11780" x1="221.851" y1="225.215" x2="221.851" y2="258.051" gradientUnits="userSpaceOnUse">
<stop stop-color="#673BB3"/>
<stop offset="1" stop-color="#AF90E3"/>
</linearGradient>
<linearGradient id="paint8_linear_203_11780" x1="207.136" y1="252.563" x2="207.136" y2="345.007" gradientUnits="userSpaceOnUse">
<stop stop-color="#673BB3"/>
<stop offset="1" stop-color="#AF90E3"/>
</linearGradient>
<clipPath id="clip0_203_11780">
<rect width="301" height="335" fill="white" transform="translate(10 10)"/>
</clipPath>
</defs>
</svg>
