<svg width="323" height="354" viewBox="0 0 323 354" fill="none" xmlns="http://www.w3.org/2000/svg">
<g clip-path="url(#clip0_321_43086)">
<path d="M163.71 137.056C164.118 137.154 164.154 137.741 164.023 138.037C163.723 141.04 163.143 143.818 159.482 143.756C158.448 143.759 154.305 142.116 156.065 140.835C157.069 140.838 158.126 141.702 159.048 141.95C160.121 142.357 161.356 141.992 162.243 141.314C163.104 140.271 162.941 138.804 163.133 137.565C163.172 137.294 163.397 136.978 163.71 137.056Z" fill="#1B1B1B"/>
<path d="M154.877 129.378C155.998 129.913 154.929 131.752 154.665 132.583C153.504 134.758 151.721 138.152 148.78 137.509C146.462 136.632 147.711 133.473 148.02 131.739C148.464 128.143 149.161 124.322 148.395 120.742C147.903 118.985 147.336 117.201 146.596 115.548C146.498 115.297 146.495 114.981 146.736 114.818C147.323 114.684 147.538 115.594 147.76 115.988C149.337 119.741 150.107 123.901 150.065 127.96C150.195 130.607 148.659 132.935 148.63 135.39C149.178 135.582 149.892 135.028 150.26 134.807C151.698 133.786 153.061 132.521 153.872 130.946C154.107 130.402 154.035 129.28 154.873 129.372L154.877 129.378Z" fill="#1B1B1B"/>
<path d="M145.654 122.975C145.938 127.686 140.721 130.95 136.428 130.721C135.094 130.679 131.352 130.102 132.16 128.143C132.339 127.852 132.747 127.836 132.949 128.1C133.643 128.716 134.416 129.039 135.234 129.14C137.279 129.395 139.584 128.273 141.491 126.94C142.433 126.281 143.281 125.567 143.949 124.948C144.862 123.904 144.487 122.352 144.151 121.133C141.947 121.338 139.655 120.951 137.533 121.671C136.278 122.33 134.974 122.995 133.986 123.976C133.924 124.035 133.865 124.097 133.813 124.159C133.542 124.442 133.304 124.755 133.102 125.098C132.6 125.978 132.659 127.018 132.362 127.879C131.968 128.433 131.603 127.575 131.668 127.191C131.691 126.007 131.951 124.794 132.528 123.745C132.551 123.686 132.581 123.634 132.616 123.575C132.796 123.363 132.982 123.167 133.181 122.972C133.8 122.375 134.527 121.87 135.296 121.433C135.733 121.189 136.186 120.96 136.643 120.755C137.321 120.452 138.009 120.191 138.684 119.966C138.752 119.946 138.814 119.927 138.883 119.914C139.365 119.774 139.861 119.633 140.36 119.519C141.807 119.174 143.304 118.985 144.728 119.405C145.739 120.204 145.517 121.814 145.651 122.975H145.654Z" fill="#1B1B1B"/>
<path d="M141.612 125.293C141.704 125.831 141.655 126.395 141.492 126.94C140.99 128.645 139.408 130.151 137.658 130.206C136.653 130.063 135.845 129.672 135.238 129.137C132.982 127.174 133.628 123.301 137.944 123.363C139.268 123.484 141.169 123.839 141.615 125.293H141.612Z" fill="#1B1B1B"/>
<path d="M170.234 111.157C172.268 109.608 174.238 107.73 174.942 105.236C172.2 105.194 169.494 104.183 166.781 104.649C165.872 104.91 164.995 105.314 164.177 105.839C164.088 105.888 164.007 105.943 163.922 106.009C161.738 107.482 160.02 109.781 159.364 112.249C160.029 112.594 160.434 113.302 161.073 113.687C161.64 113.908 162.263 113.96 162.879 113.986C163.234 114 163.59 114.006 163.939 114.029C165.644 113.957 167.14 113.364 168.496 112.49C169.103 112.096 169.68 111.642 170.237 111.157H170.234ZM176.099 103.876C176.282 104.183 176.279 104.551 176.177 104.881C175.421 107.73 174.348 110.762 171.496 112.099C168.213 113.928 164.649 116.164 160.757 115.913C159.371 115.577 157.262 114.293 158.328 112.656C158.452 110.452 159.358 108.532 160.743 106.977C160.906 106.788 161.086 106.605 161.268 106.429C161.783 105.921 162.357 105.461 162.967 105.053C163.13 104.939 163.3 104.828 163.472 104.721C164.613 104.026 165.869 103.495 167.179 103.146C167.554 103.042 167.936 102.954 168.32 102.882C171.017 102.38 173.817 102.657 176.106 103.873L176.099 103.876Z" fill="#1B1B1B"/>
<path d="M166.361 107.995C168.056 108.216 169.728 109.934 169.011 111.705C168.858 111.969 168.685 112.233 168.493 112.49C167.482 113.817 165.943 114.884 164.228 114.59C163.664 114.46 163.218 114.254 162.875 113.987C160.473 112.135 163.117 107.515 166.361 107.995Z" fill="#1B1B1B"/>
<path d="M133.791 123.546C133.983 123.556 134.045 123.797 133.989 123.973C133.96 124.064 133.901 124.136 133.817 124.155C133.804 124.159 133.784 124.159 133.764 124.159C133.318 124.146 132.917 123.976 132.532 123.741C131.906 123.36 131.329 122.812 130.68 122.506C130.429 122.346 130.39 121.958 130.498 121.7C130.961 120.771 132.193 122.33 132.764 122.61C132.914 122.711 133.054 122.842 133.181 122.972C133.386 123.174 133.582 123.386 133.791 123.546Z" fill="#1B1B1B"/>
<path d="M136.646 120.755C137.21 121.11 136.613 121.785 135.759 121.576C135.606 121.537 135.453 121.488 135.296 121.433C134.419 121.133 133.601 120.624 132.867 120.08C132.656 119.891 132.633 119.532 132.734 119.281C132.832 119.046 133.128 118.815 133.379 119.007C134.217 119.643 135.14 120.2 136.121 120.572C136.353 120.611 136.525 120.673 136.646 120.755Z" fill="#1B1B1B"/>
<path d="M140.36 119.519C140.666 119.852 140.721 120.168 140.148 120.399C139.694 120.328 139.277 120.138 138.883 119.914C138.397 119.633 137.94 119.288 137.474 118.994C136.878 118.531 135.756 117.98 136.239 117.074C136.907 116.132 137.774 117.772 138.403 118.075C138.684 118.397 139.857 118.978 140.363 119.519H140.36Z" fill="#1B1B1B"/>
<path d="M161.93 106.873C162.204 106.987 162.089 107.561 161.77 107.456C161.428 107.297 161.082 107.14 160.74 106.98C159.934 106.615 159.132 106.231 158.402 105.729C158.148 105.539 158.096 105.171 158.21 104.891C158.702 103.909 159.827 105.559 160.433 105.82C160.723 106.009 160.991 106.224 161.265 106.429C161.48 106.592 161.698 106.746 161.93 106.873Z" fill="#1B1B1B"/>
<path d="M164.022 105.418C164.176 105.461 164.225 105.679 164.176 105.836C164.143 105.946 164.062 106.028 163.944 106.025C163.934 106.021 163.931 106.012 163.921 106.005C163.566 105.735 163.263 105.399 162.963 105.053C162.536 104.558 162.125 104.039 161.597 103.648C161.414 103.495 161.408 103.172 161.519 102.973C162.034 102.236 163.044 104.075 163.468 104.721C163.511 104.789 163.546 104.835 163.572 104.874C163.722 105.056 163.856 105.249 164.019 105.418H164.022Z" fill="#1B1B1B"/>
<path d="M168.036 103.821C167.384 103.43 166.787 102.738 166.227 102.292C165.708 101.933 165.04 101.431 165.441 100.727C166.171 99.5239 168.02 102.686 168.613 103.224C168.893 103.273 168.858 103.844 168.561 103.837C168.411 103.968 168.186 103.912 168.036 103.824V103.821Z" fill="#1B1B1B"/>
<path d="M148.656 104.32C146.961 103.384 150.381 101.575 151.049 100.884C154.388 98.0931 157.958 95.6088 161.765 93.5157C165.234 91.0999 168.876 88.8601 172.997 87.7614C174.389 87.4125 175.103 89.2448 174.086 90.1153C170.444 92.4529 165.802 93.0104 162.219 95.5306C157.495 98.0899 153.524 102.204 148.656 104.323V104.32Z" fill="#1B1B1B"/>
<path d="M141.513 139.071C141.305 138.024 141.129 136.909 141.409 135.866C141.448 135.742 141.569 135.605 141.712 135.674C141.852 135.732 141.891 135.928 141.852 136.065C141.601 137.023 141.8 137.969 141.966 138.914C142.061 139.247 141.588 139.485 141.513 139.074V139.071Z" fill="#1B1B1B"/>
<path d="M143.94 137.881C143.738 137.07 143.334 133.601 144.579 133.695C144.902 133.777 144.817 134.422 144.465 134.344C144.122 135.436 144.315 136.597 144.465 137.699C144.556 138.087 144.048 138.361 143.94 137.881Z" fill="#1B1B1B"/>
<path d="M167.361 124.56C167.377 123.924 167.045 120.592 168.108 121.003C168.254 121.114 168.307 121.267 168.349 121.43C168.287 122.411 168.254 123.428 168.277 124.423C168.336 125.163 167.456 125.385 167.364 124.556L167.361 124.56Z" fill="#1B1B1B"/>
<path d="M171.331 123.027C171.315 121.583 171.475 120.125 171.804 118.724C171.872 118.574 171.954 118.417 172.13 118.388C172.436 118.381 172.564 118.916 172.388 119.125C172.195 120.406 172.26 121.694 172.14 122.978C172.13 123.193 172.009 123.461 171.775 123.493C171.52 123.532 171.334 123.255 171.331 123.027Z" fill="#1B1B1B"/>
<path d="M176.609 120.148C176.287 120.135 176.153 119.767 176.156 119.493C176.166 118.574 176.169 117.651 176.257 116.735C176.251 116.275 176.541 114.335 177.128 115.427C177.164 116.794 177.085 118.169 177.118 119.539C177.118 119.812 176.919 120.165 176.609 120.148Z" fill="#1B1B1B"/>
<path d="M64.6593 348.523C64.2974 343.193 64.4669 337.882 65.1613 332.571C62.9868 332.594 60.509 332.913 58.4811 332.206C58.2985 331.863 58.2496 331.599 58.3018 331.394C58.1322 331.381 57.9366 331.241 57.6986 330.947C57.4769 328.44 57.6073 325.851 57.2618 323.318C57.1737 319.954 57.4248 316.778 56.4108 313.573C56.0555 312.742 55.599 312.07 54.8557 311.571C51.9573 314.121 52.7333 318.519 52.655 321.981C52.6648 324.668 52.0975 327.27 51.6933 329.907C51.69 330.96 50.9271 332.822 49.6523 331.837C48.7232 330.794 49.2774 329.219 49.3165 327.964C49.3687 323.837 48.7101 319.566 47.8103 315.588C46.7996 310.763 44.9022 310.574 43.885 315.536C42.8547 320.498 43.4122 325.34 43.5622 330.285C43.7676 331.107 43.484 332.356 42.4602 332.378C41.0257 332.072 41.2279 330.005 40.8529 328.874C40.002 324.948 39.9009 320.87 38.9457 316.974C38.6718 315.689 38.3393 314.317 37.1786 313.534C36.7157 313.27 36.1647 312.735 35.6039 312.735C35.4898 312.735 35.3725 312.758 35.2583 312.814L35.2812 312.823C32.4676 315.644 34.0195 320.055 34.0879 323.569C34.0162 328.766 34.2216 333.559 35.4409 338.53C36.0245 340.428 35.793 342.694 36.9146 344.356C41.4528 348.197 47.9309 347.036 53.4407 347.835C57.1313 348.06 60.9915 348.839 64.6593 348.53V348.523ZM211.341 279.214C210.754 279.275 210.008 278.992 209.502 278.861C207.285 278.649 205.026 278.711 202.783 278.588C197.791 278.77 192.793 278.389 187.903 277.362C185.011 277.14 182.09 277.212 179.218 276.778C174.608 276.185 169.819 275.937 165.339 277.241C162.741 281.15 159.999 284.974 157.231 288.782C155.014 292.988 152.598 297.142 150.811 301.559C150.609 302.57 150.85 303.401 152.044 302.86C155.633 300.78 157.977 297.07 160.09 293.621C161.547 291.378 163.164 289.18 165.026 287.243C165.003 287.103 164.977 286.963 164.948 286.826C165.039 285.675 166.578 285.923 167.011 286.712C167.999 289.307 167.559 292.303 168.182 295.022C168.609 298.814 169.828 302.534 171.82 305.768C172.701 304.252 173.164 302.456 173.164 300.676C173.164 299.965 173.092 299.251 172.939 298.563C172.733 295.824 172.544 293.086 172.319 290.347C172.185 289.562 172.378 288.639 173.291 289.408C173.574 289.773 173.591 290.256 173.737 290.683C174.539 294.618 175.263 298.54 176.375 302.417C176.756 304.128 177.053 306.013 178.266 307.359C179.042 306.988 179.113 306.003 179.371 305.279C180.382 302.567 181.555 299.861 182.067 297.001C182.338 294.788 181.034 292.532 181.696 290.432C181.875 290.292 182.038 290.23 182.198 290.23C183.916 290.23 184.516 297.758 184.809 298.925C185.295 301.875 185.696 305.123 187.73 307.418C189.347 304.728 190.14 301.543 189.983 298.403C189.804 296.48 189.641 294.56 189.357 292.649C189.344 292.486 189.377 292.303 189.488 292.173C189.703 291.919 190.035 292.033 190.309 292.101C194.381 293.409 198.476 294.68 202.3 296.548C203.432 297.177 204.543 297.51 205.512 298.27C206.372 295.153 207.556 291.945 207.836 290.497C208.707 286.644 209.779 282.852 211.341 279.214ZM235.379 160.798C236.083 160.426 236.367 159.07 235.451 158.819C235.307 158.8 235.17 158.809 235.037 158.848C234.958 158.425 234.73 158.02 234.704 157.583C229.559 150.61 226.019 142.433 221.888 134.82C218.722 128.623 216.932 121.851 213.995 115.572C211.468 111.428 208.938 107.301 207.262 102.713C207.161 102.29 206.819 101.621 206.487 100.904C206.232 100.884 205.942 100.754 205.636 100.467C204.817 99.6619 204.794 98.2861 205.531 97.4352C206.676 95.4529 207.543 93.2816 208.345 91.1461C209.212 88.3651 207.386 85.5059 205.766 83.3639C204.237 81.3947 201.704 82.0696 199.653 82.663C197.113 83.5758 195.588 86.0308 193.873 87.9674C192.78 89.3041 191.881 90.6343 190.991 92.0134C190.991 92.0264 190.987 92.0427 190.987 92.0557C190.929 92.3361 190.808 92.4926 190.652 92.5643C190.417 92.9165 189.931 93.099 189.683 92.6328C189.651 92.535 189.621 92.4437 189.602 92.3524C188.914 91.9905 188.138 91.3744 187.714 91.2635C184.571 89.5943 181.52 87.7359 178.598 85.7015C175.7 83.9149 172.511 82.588 169.916 80.3319C164.729 77.026 160.768 72.09 155.33 69.1916C151.855 72.9605 147.747 75.9958 143.887 79.3017C140.229 82.8423 137.196 86.9306 133.385 90.3213C130.471 92.6035 128.413 95.6714 125.945 98.3904C124.097 100.705 122.082 102.564 120.201 104.767C120.885 106.678 121.564 108.588 122.252 110.489C123.451 112.543 124.596 114.633 125.362 116.879C125.505 117.284 125.675 117.668 125.857 118.043C128.808 115.021 132.296 112.576 136.212 110.995C136.606 110.805 136.968 111.076 137.089 111.467C137.474 113.026 134.843 113.254 133.972 114.095C131.468 115.816 129.02 117.248 126.63 119.018C126.581 119.051 126.519 119.09 126.447 119.129C127.083 120.201 127.813 121.199 128.508 122.265C130.246 125.248 131.654 128.303 133.252 131.28C134.321 132.819 135.446 134.315 136.636 135.776C137.03 136.301 137.386 136.848 137.718 137.412C139.286 139.251 140.871 141.08 142.289 143.056C144.636 145.641 147 148.181 149.021 150.972C152.569 155.096 155.614 155.468 160.533 153.622C162.943 152.716 165.313 151.653 167.536 150.349C167.81 150.117 168.143 149.994 168.459 149.994C168.902 149.994 169.31 150.235 169.47 150.74C171.928 154.229 173.496 158.2 175.403 161.991C175.433 162.053 175.462 162.112 175.482 162.174C175.54 162.242 175.602 162.317 175.661 162.405C176.417 164.114 177.007 165.923 177.529 167.762C176.861 167.54 176.264 167.547 176.023 168.218C175.931 168.479 175.984 168.848 176.202 169.04C176.306 169.526 177.024 170.23 177.271 169.447C177.542 169.581 177.809 169.708 178.083 169.829C178.54 171.625 178.96 173.415 179.42 175.143C180.757 179.73 183.127 183.626 184.679 188.093C186.475 194.085 188.095 200.143 189.615 206.21C190.583 211.276 191.78 216.281 193.596 221.119C196.921 230.3 196.742 240.286 200.468 249.353C200.599 249.643 200.752 249.92 200.859 250.22C201.71 248.179 202.343 246.037 203.337 244.055C204.821 241.183 207.005 238.747 208.524 235.895C210.092 233.003 210.679 229.817 211.872 226.779C213.105 223.431 214.836 220.148 216.156 216.881C217.441 213.109 219.482 209.601 220.704 205.822C222.149 200.593 223.603 195.357 226.002 190.463C227.714 187.157 228.852 183.62 229.937 180.073C231.362 175.678 233.687 171.453 234.375 166.859C234.518 164.86 235.164 162.845 235.284 160.853C235.317 160.834 235.346 160.821 235.382 160.801L235.379 160.798ZM321.687 202.819C323.797 214.057 322.626 225.465 322.515 236.814C321.779 243.742 322.141 250.624 322.483 257.536C322.401 262.179 322.066 266.828 321.726 271.464C321.1 276.002 321.14 280.56 321.042 285.124C320.742 288.988 320.302 293.03 320.139 296.861C319.702 302.006 320.97 307.043 320.51 312.155C320.135 315.422 318.851 318.496 318.375 321.747C317.974 324.029 317.586 326.337 316.657 328.469C314.916 331.534 312.542 334.305 309.895 336.62C306.752 339.225 302.618 338.729 298.827 338.618C296.724 338.68 294.621 338.944 292.508 338.811C290.526 338.814 288.596 338.56 286.705 338.152C286.708 338.964 286.777 339.792 286.936 340.558C287.869 343.147 282.819 342.492 281.358 342.73C277.729 342.863 274.199 343.731 270.599 344.03C269.113 344.122 267.685 344.099 266.253 344.073C265.011 344.05 263.776 344.03 262.504 344.086C257.61 344.448 252.759 345.237 247.836 345.25C245.287 345.207 242.754 345.465 240.224 345.726C237.857 345.967 235.49 346.212 233.11 346.212C228.761 345.977 224.578 345.912 220.362 346.991C215.935 347.9 211.413 347.477 206.936 347.418C204.247 347.529 201.599 348.187 198.913 348.249C195.812 348.429 192.774 347.581 189.683 347.555C185.122 347.734 180.597 348.637 176.016 348.442C172.678 348.363 169.326 348.018 165.991 348.119C162.525 348.253 159.125 349.162 155.649 348.976C152.112 348.35 148.676 348.797 145.197 349.087C145.184 348.927 145.168 348.771 145.155 348.611C145.106 348.093 145.063 347.568 145.015 347.046C145.011 347.007 145.005 346.974 145.005 346.935C145.308 346.922 145.614 346.906 145.924 346.903C149.452 346.893 152.95 346.349 156.481 346.43C159.617 346.492 162.75 347.059 165.861 346.867C172.277 345.915 178.722 346.036 185.171 346.156C187.737 346.205 190.306 346.254 192.872 346.238C203.011 345.185 213.199 345.256 223.371 345.074C229.921 344.096 236.445 343.395 243.076 343.297C247.784 342.58 252.541 342.622 257.288 342.661C259.28 342.681 261.268 342.694 263.251 342.661C267.023 342.335 270.57 341.38 274.329 341.051C277.866 340.607 281.453 340.862 285.006 340.532C284.873 339.714 284.491 338.57 284.54 337.611C280.716 336.551 276.999 334.983 273.227 333.757C273.185 333.744 273.146 333.725 273.113 333.699H273.11C266.084 332.095 259.651 328.482 252.71 326.409C248.86 324.906 244.785 324.43 241.045 322.761C234.124 319.174 226.667 316.413 219.743 312.876C217.663 311.581 202.173 306.133 204.188 303.799C204.299 303.701 204.433 303.669 204.57 303.685C204.547 302.524 204.811 301.038 205.199 299.469C200.377 297.702 195.796 295.124 190.932 293.425C192.239 296.561 192.158 300.004 191.437 303.274C190.707 305.344 191.114 309.371 188.262 309.664C185.572 309.058 185.119 305.703 184.786 303.418C184.415 301.083 183.521 299.052 183.036 296.786C182.755 300.418 182.488 304.024 181.269 307.483C180.867 308.82 179.319 309.746 178.021 309.009C176.101 307.754 175.501 305.159 174.784 303.114C174.539 304.63 174.471 306.502 173.336 307.636C171.801 308.901 170.242 307.01 169.708 305.635C168.837 303.838 168.361 301.872 168.078 299.913C167.501 296.881 166.281 294.051 165.623 291.058C165.522 290.321 165.424 289.581 165.31 288.851C163.2 291.518 161.205 294.348 159.334 297.142C157.325 299.789 154.29 306.44 150.224 304.432C149.338 303.551 149.54 302.188 149.677 301.064C150.13 297.507 152.65 294.794 154.446 291.883C155.985 289.131 157.016 286.22 158.851 283.644C160.096 281.58 161.388 279.54 162.793 277.58C163.53 276.566 164.4 275.347 165.766 275.262C169.789 275.461 173.688 274.698 177.663 274.31C183.577 274.222 189.413 275.758 195.323 275.868C200.351 276.214 205.228 277.665 210.272 277.489C210.728 277.502 211.455 277.486 211.879 277.724C212.388 276.198 212.841 274.639 213.18 273.081C213.369 272.122 213.855 271.376 214.755 271.937C214.556 271.63 214.644 271.167 215.087 271.187C215.217 271.115 215.279 271.089 215.38 271.007C215.703 270.802 216.166 271.157 216.15 271.513C221.872 273.818 227.926 275.044 233.739 276.964C236.487 278.108 239.18 279.419 242.101 280.091C244.56 280.465 246.63 281.088 248.886 281.998C254.781 284.251 260.15 287.697 266.364 289.095C271.594 290.54 276.455 292.655 281.58 294.302C282.114 294.282 282.633 294.586 282.965 294.98C282.427 291.4 282.571 287.693 282.046 284.143C280.51 278.288 280.116 272.308 279.855 266.28C279.855 259.091 278.783 251.994 278.714 244.802C279.095 235.357 278.906 225.889 278.968 216.444C279.249 215.492 280.644 216.144 280.667 216.936C280.755 222.342 280.902 227.751 280.97 233.149C280.872 237.124 280.755 241.108 281.58 245.02C282.44 250.36 280.951 255.733 281.374 261.113C281.577 266.088 282.884 270.926 283.425 275.852C283.728 283.1 283.891 290.377 285.476 297.487C286.193 297.914 286.969 298.146 287.618 298.667C288.628 299.332 288.319 301.07 286.94 300.549C285.362 299.73 284.133 298.791 282.734 297.758C282.261 297.367 281.59 296.998 281.309 296.431C272.526 294.589 264.48 290.315 256.205 286.97C249.039 285.131 242.167 282.562 235.297 279.895C231.307 278.731 227.486 276.752 223.655 275.278C220.792 274.238 217.532 273.73 214.973 272.083C214.983 272.093 214.993 272.103 215.002 272.106C215.429 272.501 215.632 273.241 215.142 273.593C214.797 274.121 214.696 274.734 214.588 275.344C213.962 278.154 213.574 281.036 212.596 283.755C211.471 287.009 209.607 290.096 208.717 293.412C207.866 297.171 206.754 300.891 206.333 304.722C210.073 306.71 213.816 308.748 217.685 310.375C221.213 311.549 224.803 312.034 228.04 313.932C234.062 317.228 240.667 319.197 246.966 321.858C251.683 323.96 255.723 326.51 260.903 327.439C264.19 328.3 267.342 329.565 270.58 330.513C272.145 331.019 275.415 331.058 276.249 332.678C280.181 334.142 284.348 333.803 288.387 334.559C291.807 335.502 295.283 336.878 298.833 337.037C309.68 338.693 317.315 327.821 317.462 317.965C317.896 312.507 318.769 307.079 318.867 301.605C319.138 296.477 318.264 291.57 318.476 286.494C319.963 276.892 320.445 267.229 320.237 257.523C320.416 251.283 321.087 245.32 320.347 239.142C319.881 233.28 320.4 227.424 320.608 221.563C320.517 217.497 320.106 213.445 320.093 209.379C319.995 205.666 320.243 201.789 319.839 198.147C319.141 193.625 318.026 189.169 316.888 184.735C316.037 182.045 315.219 179.147 313.11 177.151C309.716 174.289 306.188 171.391 302.113 169.571C291.556 166.396 280.315 166.011 269.846 162.396C268.148 162.154 266.439 162.246 264.731 162.337C263.43 162.409 262.136 162.477 260.848 162.405C258.259 162.327 255.762 162.034 253.265 161.877C252.586 161.835 251.908 161.805 251.224 161.786C250.2 161.763 249.17 161.776 248.123 161.854C245.437 161.926 242.776 161.603 240.139 161.118C239.461 160.902 238.205 160.893 237.149 160.765C236.846 163.846 235.754 166.83 235.336 169.901C234.528 176.066 232.327 181.846 229.827 187.499C228.268 191.617 227.333 195.95 225.226 199.853C223.296 203.967 221.223 208.013 219.759 212.326C218.96 215.306 218.06 218.247 216.991 221.129C213.975 228.05 210.321 234.695 207.194 241.58C205.812 243.39 202.304 255.916 199.979 253.731C199.474 253.128 199.588 252.499 199.891 251.909C199.787 251.867 199.686 251.788 199.585 251.677C197.544 248.026 197.299 243.507 196.562 239.507C194.398 231.317 192.347 223.052 190.332 214.833C189.39 211.893 187.926 209.141 187.036 206.187C185.947 202.982 185.67 199.595 184.78 196.341C181.282 186.971 178.429 177.367 175.517 167.804C175.459 167.896 175.384 167.977 175.296 168.029C172.241 169.232 168.853 169.06 165.603 169.464C165.14 169.522 164.69 169.588 164.237 169.676C164.097 169.699 163.957 169.728 163.82 169.757C160.667 170.302 157.625 171.453 154.417 171.691C148.422 171.642 142.863 173.943 136.958 174.582C128.215 176.186 119.669 181.638 114.499 188.846C113.328 191.161 113.126 193.756 112.275 196.175C111.362 199.018 109.827 201.636 109.194 204.567C108.265 210.716 105.536 216.437 105.158 222.671C104.731 225.716 104.105 228.735 103.965 231.813C103.942 232.064 103.867 232.269 103.766 232.432C106.928 232.827 110.075 233.322 113.289 233.133C115.705 233.035 118.144 233.143 120.53 233.524C121.922 233.635 123.321 233.841 124.39 234.767C124.674 234.483 125.189 234.545 125.29 235.031C127.119 242.099 128.472 249.5 129.717 256.672C130.203 260.516 130.425 264.255 131.374 268.015C131.921 271.748 131.667 275.406 132.081 279.106C132.335 283.657 133.574 288.039 134.275 292.522C135.107 297.862 135.051 303.277 135.429 308.644C135.847 312.755 136.564 316.935 136.701 321.059C136.945 321.036 137.187 321.02 137.421 321.02C137.48 320.977 137.542 320.938 137.611 320.906C137.611 320.906 137.609 320.902 137.607 320.896C141.451 320.651 145.288 319.781 149.162 319.693C153.074 319.784 156.986 320.12 160.879 319.624C168.276 318.816 175.56 319.015 182.967 319.057C186.98 318.623 191.026 318.252 195.059 318.519C197.172 318.871 199.265 318.588 201.365 318.519C203.803 318.548 206.255 318.744 208.684 318.663C209.016 318.783 209.075 319.197 208.938 319.484C208.981 320.254 209.062 321.039 209.052 321.828C208.922 323.524 209.476 326.334 207.103 326.497C203.194 327.429 199.154 327.175 195.213 327.713C192.412 328.231 189.592 328.189 186.769 328.147C185.575 328.127 184.382 328.114 183.189 328.137C176.799 328.916 170.402 329.542 163.983 330.067C160.745 329.894 157.514 330.034 154.287 330.168C151.476 330.289 148.666 330.409 145.856 330.328C144.604 330.35 143.352 330.331 142.103 330.308C140.61 330.285 139.12 330.259 137.643 330.318C136.867 330.377 136.095 330.478 135.325 330.592C135.253 330.784 135.143 330.973 135.002 331.12C134.65 331.143 134.305 331.188 133.962 331.244C133.317 331.348 132.678 331.488 132.055 331.717C130.986 331.778 129.92 331.805 128.837 331.85C125.473 332.176 122.128 331.88 118.796 331.586C115.366 331.28 111.933 330.976 108.503 331.351C103.309 332.147 98.129 332.486 92.9126 331.814C90.1153 331.867 87.406 332.489 84.612 332.329C80.4845 331.922 76.3538 331.974 72.2198 332.023C70.4201 332.043 68.6139 332.065 66.8143 332.052H66.7947C66.7556 332.225 66.7034 332.417 66.6252 332.629C65.6471 338.514 67.4566 344.141 67.5283 349.993C67.525 350.293 67.4663 350.557 67.3685 350.782C69.2986 350.952 71.2384 350.76 73.1783 350.561C75.141 350.362 77.1134 350.166 79.0891 350.355C82.0429 350.681 85.0554 350.616 88.0646 350.554C92.0192 350.463 95.9772 350.375 99.808 351.193C108.529 352.732 117.247 350.391 125.795 348.807C127.272 348.634 128.505 347.966 129.525 347.027C129.629 347.089 129.74 347.141 129.861 347.17C129.646 347.545 129.427 347.917 129.241 348.305C129.127 348.526 129.02 348.751 128.909 348.98C128.704 349.394 128.557 349.798 128.492 350.245C126.568 351.337 124.358 351.963 122.222 352.517C117.074 353.942 111.75 353.749 106.472 353.505C103.877 353.365 101.317 353.515 98.7582 353.665C96.8901 353.775 95.0187 353.886 93.1408 353.886C92.9582 353.886 92.7789 353.883 92.6028 353.883C89.6295 353.824 86.9822 353.175 84.1197 352.973C79.7705 352.931 75.4181 352.931 71.1015 352.279C69.9115 352.168 68.7248 352.175 67.5315 352.178C66.9479 352.178 66.3676 352.181 65.784 352.175C65.0733 352.227 64.5908 351.757 64.4767 351.141C61.7544 351.229 59.0288 351.373 56.3065 351.294C51.3803 351.405 46.917 349.081 42.144 348.341C38.8055 347.825 34.5444 347.004 34.0651 342.974C33.1359 338.938 32.5621 334.824 32.3046 330.699C31.9916 331.214 31.4569 331.612 30.8766 331.56C26.9349 331.244 23.065 330.703 19.1429 330.399C17.7704 330.194 15.2926 330.533 15.2274 328.58C15.1589 328.336 15.2567 328.023 15.4197 327.785C14.7449 324.86 13.4897 322.092 12.8442 319.142C11.8433 314.701 11.5368 310.124 10.3598 305.716C8.4689 298.384 8.52106 290.735 7.1159 283.357C5.56076 277.557 3.68938 271.529 3.96976 265.481C2.45374 255.515 1.99079 245.392 0.168309 235.438C0.0705016 234.809 -0.08273 234.095 0.148748 233.479C0.735592 232.608 1.07792 233.329 1.23767 234.026C1.45937 233.863 1.72019 233.753 1.94188 233.736C6.57143 233.026 11.2727 232.543 15.9512 232.243C19.0158 232.344 22.0641 232.475 25.0864 231.819C27.3001 231.464 29.5268 231.578 31.7568 231.689C33.7586 231.79 35.7669 231.891 37.7687 231.656C42.796 231.291 47.8201 230.352 52.8539 231.174C54.8264 231.386 56.7955 231.232 58.7647 231.076C60.1406 230.965 61.5229 230.861 62.9085 230.877C68.8845 231.06 74.8475 230.818 80.7681 231.911C83.6078 232.171 86.441 231.898 89.2774 231.8C92.7169 232.132 95.987 232.136 99.3939 232.015C100.297 232.054 101.203 232.136 102.103 232.23C102.035 232.057 101.999 231.855 102.002 231.614C102.133 226.345 104.229 221.305 105.178 216.19C107.179 204.867 111.02 188.963 119.308 180.686C123.601 176.558 129.717 175.662 134.908 173.112C138.924 171.14 143.316 170.197 147.766 169.917C151.558 169.581 155.265 168.541 159.06 168.199C163.64 168.241 168.156 167.478 172.707 167.185C173.565 167.133 174.396 166.885 175.244 166.82C174.931 165.79 174.618 164.759 174.301 163.736C174.191 163.537 174.138 163.308 174.132 163.077C174.093 163.025 174.06 162.966 174.028 162.904C172.084 159.585 170.855 155.878 168.821 152.631C162.297 157.394 155.366 157.515 149.778 153.714C149.667 153.71 149.556 153.671 149.462 153.59C147.075 151.627 144.832 149.518 142.902 147.102C141.722 145.755 140.114 144.725 139.048 143.343C136.359 140.258 134.702 136.496 132.358 133.255C128.687 129.415 126.646 124.701 124.547 119.924C123.22 117.134 121.749 114.401 120.465 111.604C120.396 111.601 120.334 111.581 120.276 111.552C111.023 104.921 109.957 92.0003 112.321 81.6914C113.198 78.6463 114.799 75.7643 116.129 72.9148C117.739 68.4287 120.103 64.3599 122.571 60.3107C125.081 56.4767 128.495 53.3729 131.68 50.1224C136.212 44.3714 141.233 38.9952 147.551 35.1905C147.923 29.7329 149.458 24.5132 151.786 19.5739C152.807 15.4693 154.548 11.5439 157.156 8.1924C162.421 2.28157 171.654 -1.7481 178.96 2.89449C182.256 5.13754 183.577 9.0205 184.483 12.7176C186.28 18.7752 185.38 25.3348 184.17 31.3988C188.992 36.7293 194.401 41.6621 198.447 47.6936C200.934 51.4037 202.731 55.5149 204.654 59.5315C206.796 63.0265 208.071 67.0496 209.444 70.8544C211.233 75.122 212.847 79.5918 213.62 84.1399C214.406 86.8785 215.426 89.5714 215.671 92.4307C216.003 97.5264 214.781 102.642 213.939 107.636C213.734 108.585 213.568 109.374 213.424 110.225C216.499 116.116 219.537 122.021 222.429 128.016C224.167 132.665 225.442 137.51 228.464 141.553C231.01 145.563 233.084 149.88 234.831 154.287C235.063 155.259 236.054 156.217 236.044 157.209C236.445 157.919 236.794 158.705 237.002 159.51C238.349 159.68 239.751 160.221 241.107 160.012C246.819 159.507 252.56 159.944 258.253 159.344C263.538 159.752 268.747 160.889 274.003 161.571C279.2 162.347 284.504 162.591 289.532 164.231C293.952 165.926 298.468 166.993 303.176 167.416C310.889 169.314 316.712 176.082 319.2 183.411C321.293 189.658 320.869 196.348 321.717 202.803L321.687 202.819Z" fill="#1B1B1B"/>
<path d="M194.891 256.388C190.033 249.313 184.011 243.063 179.881 235.489C178.622 232.969 177.797 230.234 176.07 227.961C174.185 225.415 172.989 222.399 171.6 219.589C169.181 215.419 166.044 211.572 164.059 207.177C163.299 204.475 155.814 198.062 158.425 195.959C162.53 195.617 166.396 193.954 170.442 193.175C165.692 193.201 160.492 193.393 156.169 191.199C155.781 190.808 155.781 190.178 156.006 189.709C156.104 188.816 156.475 187.997 156.837 187.186C157.796 184.346 159.168 181.712 160.349 178.976C161.558 175.788 162.458 172.554 164.251 169.642C164.688 168.556 165.891 168.7 165.532 169.962C164.369 172.485 162.986 174.911 162.07 177.545C160.737 181.708 159.719 186.015 157.372 189.761C160.479 190.237 163.707 189.755 166.722 190.879C168.473 191.342 170.159 192.053 171.971 192.141C173.716 192.252 175.466 191.9 177.191 192.03V192.037C179.988 194.394 166.837 195.525 165.532 195.643C163.505 195.868 161.702 196.885 159.749 197.384C164.561 204.041 168.607 211.201 172.18 218.562C177.543 226.067 181.185 234.606 185.632 242.626C186.825 244.331 188.579 245.443 190.027 246.89C192.4 249.391 194.112 252.319 196.074 255.116C196.638 255.833 195.611 257.382 194.891 256.397V256.388Z" fill="#1B1B1B"/>
<path d="M202.75 261.207C201.782 259.502 209.066 255.165 210.474 254.204C213.783 251.755 216.277 248.456 219.234 245.629C223.671 241.697 227.903 237.645 231.529 232.934C238.639 224.513 245.372 215.697 250.956 206.183C253.767 201.208 258.227 197.384 261.083 192.477C255.475 191.757 250.467 189.038 245.104 187.417C244.019 187.065 242.956 186.713 241.86 186.527C240.957 186.162 241.391 184.679 242.31 184.65C244.987 184.33 247.452 183.075 250.132 182.759C253.662 182.345 256.945 181.957 260.369 181.171C257.715 174.559 254.976 167.905 251.214 161.873C251.599 156.158 258.37 171.478 258.422 172.577C259.097 175.687 266.655 183.463 259.994 183.945C255.28 183.9 250.859 185.419 246.285 186.289C251.491 186.821 256.378 188.692 261.373 190.11C264.245 190.622 262.964 192.585 261.617 194.072C259.035 197.224 257.379 200.983 255.107 204.345C251.775 208.772 248.909 213.49 245.981 218.184C243.875 221.454 240.657 223.746 238.16 226.674C235.95 229.634 234.411 233.067 231.943 235.845C226.537 242.225 220.01 247.383 213.672 252.74C212.479 253.845 211.517 255.208 210.265 256.248C208.544 257.624 206.402 258.677 204.804 260.16C204.208 260.597 203.504 262.035 202.754 261.203L202.75 261.207Z" fill="#1B1B1B"/>
<path d="M200.064 276.125C200.071 272.239 199.536 268.421 199.49 264.538C199.643 261.901 200.048 259.179 199.999 256.554C199.989 255.778 199.728 251.331 201.137 252.335C201.626 252.29 201.499 253.173 201.058 253.15C200.24 259.241 201.593 265.298 201.293 271.391C201.3 272.836 201.587 274.264 201.43 275.702C201.453 276.086 201.27 276.552 200.892 276.706C200.501 276.869 200.11 276.53 200.061 276.122L200.064 276.125Z" fill="#1B1B1B"/>
<path d="M204.468 345.327C204.083 338.617 202.111 332.371 202.691 325.521C202.61 319.03 201.126 312.64 201.553 306.145C201.482 303.889 201.527 301.63 201.43 299.377C201.355 298.826 201.309 297.229 202.179 297.74C202.3 297.881 202.329 298.109 202.274 298.304C201.847 300.146 202.225 302.024 202.535 303.85C203.2 307.482 203.363 311.199 203.689 314.87C203.839 317.149 203.904 319.075 203.64 321.299C203.744 324.853 204.677 328.295 204.98 331.83C205.665 336.231 205.805 340.688 206.098 345.125C206.088 346.259 204.612 346.722 204.468 345.327Z" fill="#1B1B1B"/>
<path d="M144.08 319.972C144.308 317.12 143.627 314.368 143.522 311.59C143.35 307.688 143.774 303.684 143.281 299.834C142.29 294.001 142.509 288.058 141.237 282.264C140.686 279.086 141.475 275.692 140.5 272.614C137.722 269.963 133.957 268.526 131.31 265.67C129.223 263.525 127.277 261.056 126.289 258.197C125.405 253.626 124.505 248.981 125.187 244.328C125.901 240.631 127.303 237.126 128.196 233.468C129.979 228.281 132.545 223.538 132.565 217.992C132.835 216.812 132.884 210.891 134.413 212.322C134.508 212.554 134.609 212.811 134.527 213.059C134.286 214.728 134.123 216.404 133.928 218.077C133.011 224.248 131.89 230.345 129.213 236.021C127.808 240.853 126.915 245.815 126.377 250.793C125.663 260.74 136.011 264.939 141.273 271.646C142.828 276.526 143.131 281.753 143.509 286.842C144.461 293.718 143.826 300.73 144.941 307.574C145.322 311.672 145.404 315.855 145.752 319.92C145.73 321.13 144.096 321.583 144.083 319.969L144.08 319.972Z" fill="#1B1B1B"/>
<path d="M146.013 347.707C146.059 341.506 146.356 335.311 145.609 329.146C145.573 327.47 144.996 325.834 145.113 324.155C145.156 323.865 145.394 323.519 145.687 323.444C146.003 323.408 146.016 323.949 145.756 324.041C145.71 324.047 145.69 324.093 145.668 324.129C145.668 324.125 145.671 324.122 145.674 324.116V324.109C145.655 324.152 145.635 324.2 145.638 324.207C145.554 326.567 146.294 328.807 146.818 331.08C146.978 333.727 147.334 336.358 147.5 339.005C147.715 341.913 147.249 344.795 147.004 347.681C146.985 348.46 145.997 348.61 146.013 347.71V347.707Z" fill="#1B1B1B"/>
<path d="M125.754 349.56C125.747 349.211 126.07 348.989 126.4 349.044C130.031 349.057 133.667 345.99 135.365 342.945C137.269 339.065 137.641 334.667 138.524 330.481C138.56 326.513 138.59 322.636 139.447 318.75C140.151 312.676 139.183 306.58 140.295 300.522C141.54 293.604 141.162 286.591 141.83 279.637C141.967 278.326 142.166 277.029 142.306 275.721C142.355 275.304 142.73 274.809 143.196 274.884C143.689 274.965 143.816 275.549 143.764 275.963C143.545 277.622 143.516 279.239 143.503 280.905C143.382 285.153 142.306 289.3 142.062 293.532C142.473 298.934 141.687 304.275 141.146 309.635C140.37 317.065 141.266 324.563 139.734 331.902C139.392 335.645 139.075 339.449 136.966 342.671C135.313 345.882 132.975 349.276 129.275 350.182C128.235 350.498 126.051 351.007 125.754 349.563V349.56Z" fill="#1B1B1B"/>
<path d="M145.648 347.555C145.762 345.752 145.648 343.906 146.101 342.149C146.391 338.993 145.902 335.889 145.416 332.779C145.1 329.225 144.868 325.678 144.428 322.138C143.9 316.758 144.379 311.382 143.339 306.081C142.348 300.516 143.532 294.853 142.224 289.356C141.285 284.162 142.263 278.789 141.295 273.609C140.989 272.777 139.769 272.181 140.102 271.216C140.327 270.567 141.044 270.75 141.377 271.196C142.371 272.233 145.273 277.632 143.134 278.277C142.961 289.124 144.506 299.939 144.784 310.776C145.52 315.395 146.055 319.986 146.045 324.671C147.167 330.409 146.932 336.303 147.089 342.107C147.124 343.916 147.3 345.699 147.369 347.502C147.317 348.888 145.612 349.087 145.648 347.555Z" fill="#1B1B1B"/>
<path d="M248.359 269.135C245.03 268.708 241.786 267.482 238.816 265.963C238.63 266.087 238.503 265.842 238.35 265.78C237.952 265.526 238.275 264.802 238.734 264.923C241.691 266.067 244.511 267.798 247.84 267.234C250.768 267.032 253.699 267.133 256.584 266.514C257.494 266.383 257.474 268 256.685 268.16C253.927 268.551 251.159 269.324 248.359 269.138V269.135Z" fill="#1B1B1B"/>
<path d="M252.488 273.608C250.738 273.465 248.967 272.995 247.285 272.575C246.851 272.497 245.85 272.285 246.352 271.672C246.633 271.457 247.21 271.323 247.063 271.887C250.715 272.643 254.578 272.484 258.262 272.057C261.359 270.635 263.928 268.232 267.042 266.804C267.417 266.615 267.782 266.954 267.89 267.297C268.222 268.888 265.979 269.214 264.982 269.937C261.105 272.154 256.965 273.612 252.485 273.605L252.488 273.608Z" fill="#1B1B1B"/>
<path d="M150.486 270.4C148.099 269.19 145.912 267.668 143.529 266.458C142.815 265.881 141.788 265.389 141.458 264.496C141.374 264.144 141.66 263.707 142.026 263.788C142.368 263.733 142.495 264.16 142.329 264.408C144.859 266.559 147.969 267.665 151.073 268.692C151.956 269.044 151.431 270.84 150.486 270.4Z" fill="#1B1B1B"/>
<path d="M165.122 266.631C162.337 266.012 159.674 265.079 156.896 264.509V264.502C155.243 262.546 161.773 264.88 162.474 264.795C163.407 265.138 165.982 264.528 165.81 265.979C165.757 266.289 165.484 266.709 165.122 266.628V266.631Z" fill="#1B1B1B"/>
<path d="M126.152 216.616C125.279 215.971 125.171 214.543 124.584 213.636C124.095 212.668 121.526 207.996 123.697 208.006C124.004 208.058 123.909 208.664 123.599 208.612C122.484 208.642 124.966 212.424 125.171 213.072C125.533 213.972 128.007 216.179 126.152 216.616Z" fill="#1B1B1B"/>
<path d="M118.119 217.894C117.333 216.74 112.478 214.519 113.753 213.13C113.887 213.052 114.076 213.153 114.187 213.192C114.496 213.183 114.712 213.457 114.523 213.737C115.895 214.787 117.369 215.703 118.715 216.802C118.97 217.004 118.956 217.431 118.813 217.692C118.683 217.936 118.353 218.109 118.119 217.894Z" fill="#1B1B1B"/>
<path d="M301.229 218.312C300.786 218.031 300.828 217.242 301.229 216.929C302.305 216.47 303.43 216.098 304.375 215.374C304.76 215.123 305.171 215.413 305.288 215.798C305.849 217.102 302.187 218.866 301.226 218.308L301.229 218.312Z" fill="#1B1B1B"/>
<path d="M299.925 212.671C299.478 212.492 299.889 211.872 300.277 212.019C303.987 210.852 307.893 210.079 311.789 210.421C312.989 210.523 314.117 210.637 315.307 210.705C315.881 210.734 315.773 211.726 315.248 211.778C314.479 211.859 313.696 212.022 312.91 212.094C310.645 212.462 308.444 211.647 306.201 211.67C304.075 211.872 301.998 212.234 299.925 212.671Z" fill="#1B1B1B"/>
<path d="M317.443 218.37C315.646 218.093 313.86 217.806 312.083 217.441C311.496 217.363 311.464 216.548 311.9 216.258C313.775 215.925 315.806 216.548 317.704 216.783C318.499 216.969 318.248 218.452 317.443 218.37Z" fill="#1B1B1B"/>
<path d="M297.682 297.382C295.097 297.163 292.57 296.237 290.138 295.367L290.148 295.36C289.629 295.051 289.747 294.082 290.308 293.854C291.931 293.773 293.493 294.63 295.126 294.767C296.248 295.168 298.621 294.516 298.605 296.234C298.582 296.71 298.246 297.388 297.686 297.378L297.682 297.382Z" fill="#1B1B1B"/>
<path d="M309.214 291.702C306.253 291.728 303.407 291.174 300.584 290.395C297.963 290.555 295.429 291.373 292.811 290.62C292.14 290.398 289.013 290.653 289.414 289.609C289.515 289.41 289.822 289.329 289.913 289.56C294.119 290.773 298.321 288.726 302.556 288.993C304.9 289.127 307.232 289.404 309.484 290.076C310.306 290.265 310.042 291.777 309.214 291.702Z" fill="#1B1B1B"/>
<path d="M307.262 299.59C306.783 299.163 303.131 298.103 304.321 297.366C305.293 298.022 306.382 298.514 307.503 298.895C307.868 299.035 307.647 299.772 307.262 299.59Z" fill="#1B1B1B"/>
<path d="M131.286 324.905C130.5 321.948 130.741 317.892 129.747 314.694C127.876 308.451 127.537 301.806 127.08 295.358C125.496 287.712 124.99 279.917 124.772 272.135C124.107 268.356 123.409 264.597 123.526 260.74C123.716 257.633 123.103 254.624 122.532 251.592C121.997 246.812 121.561 242.098 120.866 237.351C120.847 236.947 120.706 236.464 121.006 236.135C121.202 235.946 121.479 236.028 121.564 236.298C121.668 236.481 121.812 236.624 121.965 236.761C122.245 236.999 121.965 237.641 121.606 237.381C121.658 239.232 122.278 240.977 122.571 242.789C122.806 244.983 122.972 247.194 123.471 249.352C124.113 254.435 124.283 259.567 124.896 264.656C125.616 274.342 126.79 283.996 127.543 293.678C128.551 298.481 129.069 303.423 129.6 308.265C130.878 312.083 131.367 316.109 131.485 320.077C131.407 321.198 133.134 325.577 131.292 324.902L131.286 324.905Z" fill="white"/>
<path d="M58.7038 286.878C52.7865 284.322 55.9098 273.315 62.2347 274.254C70.1636 275.411 65.8731 289.408 58.7038 286.878ZM60.0992 284.56C59.2385 284.243 58.5082 283.653 57.9475 282.933C58.2637 283.751 59.2613 284.384 60.0992 284.56ZM59.1407 281.808C59.1538 281.244 59.2907 280.686 59.5417 280.168C59.633 279.982 59.7373 279.796 59.8482 279.62C59.3265 279.849 58.9321 280.295 58.6354 280.768C58.7462 281.14 58.906 281.498 59.1407 281.808Z" fill="white"/>
<path d="M119.949 88.7293C119.519 88.2827 120.034 87.735 120.357 87.4024C122.946 84.892 125.505 82.5023 127.839 79.7669C128.39 79.1051 128.866 78.352 129.303 77.651C129.407 77.4815 129.645 77.4098 129.808 77.5499C129.997 77.713 130.007 78.0422 129.88 78.2444C129.411 79.0105 128.954 79.7963 128.465 80.5494C125.906 83.2293 123.014 85.6484 120.559 88.4522C120.478 88.7065 120.174 88.9445 119.94 88.7228L119.949 88.7326V88.7293Z" fill="white"/>
<path d="M119.774 83.3341C119.503 83.0635 119.621 82.3821 120.051 82.4278C123.164 79.0697 126.444 75.8127 129.32 72.2525C129.848 71.8124 130.683 70.1268 131.413 70.9386C131.592 71.2288 131.553 71.6461 131.354 71.9167C130.529 73.0089 129.379 73.7555 128.485 74.776C126.265 77.821 122.982 79.7739 120.68 82.744C120.436 82.969 120.162 83.5558 119.771 83.3374L119.774 83.3341Z" fill="white"/>
<path d="M120.987 76.5392C120.504 76.3925 120.648 75.5155 121.14 75.5057C123.866 71.8575 127.1 68.5679 130.177 65.2262C130.422 65.0241 130.754 65.0827 130.924 65.3501C131.41 66.5498 129.639 67.5768 128.991 68.418C126.917 70.0905 124.912 71.8771 123.328 74.0126C122.77 74.7298 122.265 75.4862 121.691 76.1904C121.521 76.3958 121.264 76.6403 120.987 76.536V76.5392Z" fill="white"/>
<path d="M126.382 65.2847C125.515 64.4697 128.312 62.8787 128.857 62.282C130.03 61.4442 130.813 59.9673 132.133 59.4521C133.763 60.528 130.154 61.8289 129.515 62.4777C128.563 63.2634 127.347 63.9904 126.663 65.0141C126.64 65.1478 126.532 65.3076 126.382 65.2847Z" fill="white"/>
<path d="M176.265 67.137C174.693 67.0914 173.089 67.3066 171.547 66.9121C170.866 66.6284 167.56 66.1622 168.776 65.0342C170.514 65.7417 172.454 66.4165 174.406 66.3774C175.792 66.3481 177.083 66.0057 178.407 65.6601C179.108 65.5982 180.594 64.7114 180.783 65.7906C180.862 67.0621 177.214 67.1794 176.265 67.137Z" fill="white"/>
<path d="M175.633 62.6242C174.026 62.3765 172.425 62.0732 170.844 61.6853C170.537 61.6331 170.638 61.0267 170.945 61.0756C174.062 61.9298 177.416 62.1352 180.589 61.519C181.769 61.2158 182.942 60.8344 184.159 60.6909C184.442 60.6485 184.634 60.8637 184.677 61.1245C185.088 62.9405 176.931 62.8198 175.63 62.6242H175.633Z" fill="white"/>
<path d="M179.078 56.6687C177.842 56.4894 176.567 56.3981 175.358 56.2253C175.097 55.9579 175.39 55.5439 175.733 55.658C178.132 55.8275 180.617 56.4046 182.951 55.5798C183.603 55.4689 186.097 53.917 186.195 54.9864C186.244 55.7265 185.341 55.5993 184.848 55.7558C182.944 56.1438 181.05 56.8936 179.078 56.6654V56.6687Z" fill="white"/>
<path d="M158.241 21.5001C158.052 21.3958 157.987 21.1578 157.99 20.9556C158.189 17.5291 160.735 14.784 162.992 12.4138C163.399 12.078 164.25 10.9076 164.658 11.7552C164.863 12.642 163.644 12.8474 163.203 13.3821C161.495 14.8166 160.488 16.8184 159.435 18.6995C159.158 19.3092 158.923 19.9482 158.91 20.6264C158.991 21.0241 158.753 21.7283 158.241 21.5001Z" fill="white"/>
<path d="M158.956 12.7593C158.675 11.7487 163.324 5.73024 164.1 7.22017C164.172 7.45491 164.097 7.78745 163.865 7.91786C162.493 8.80791 161.492 10.1022 160.478 11.3542C160.074 11.8562 159.846 12.4626 159.536 12.9908C159.321 13.2614 158.959 13.0886 158.959 12.7593H158.956Z" fill="white"/>
<path d="M164.889 19.9352C163.367 19.3842 165.287 17.6302 165.75 16.9129C166.21 16.5152 167.165 14.6568 167.752 15.5958C168.068 16.2707 167.312 16.6488 166.862 16.9097C166.011 17.4835 165.105 18.2333 164.798 19.2342C164.85 19.2896 164.919 19.319 164.99 19.3288C165.3 19.3809 165.196 19.9906 164.889 19.9352Z" fill="white"/>
<path d="M235.448 158.822C236.361 159.073 236.077 160.429 235.376 160.801C235.344 160.82 235.314 160.833 235.278 160.853C235.158 162.845 234.512 164.863 234.369 166.858C233.681 171.455 231.356 175.68 229.932 180.072C228.843 183.619 227.708 187.156 225.996 190.462C223.594 195.356 222.143 200.592 220.699 205.821C219.476 209.6 217.435 213.108 216.15 216.88C214.833 220.147 213.099 223.43 211.867 226.778C210.673 229.814 210.086 232.999 208.518 235.894C206.999 238.747 204.811 241.182 203.331 244.054C202.334 246.036 201.704 248.178 200.853 250.219C200.749 249.919 200.593 249.642 200.462 249.352C196.739 240.285 196.915 230.299 193.59 221.118C191.777 216.283 190.577 211.279 189.609 206.209C188.09 200.142 186.466 194.081 184.673 188.092C183.118 183.626 180.751 179.73 179.414 175.142C178.951 173.414 178.534 171.625 178.077 169.828C177.803 169.708 177.533 169.584 177.266 169.447C177.021 170.226 176.304 169.525 176.196 169.039C175.981 168.847 175.926 168.475 176.017 168.218C176.258 167.543 176.855 167.54 177.523 167.761C178.289 168.016 179.143 168.567 179.649 168.723C183.215 170.138 186.981 171.269 190.698 172.189C195.22 173.551 199.833 174.706 204.303 176.205C209.011 174.282 212.848 170.976 217.239 168.485C221.598 165.799 226.381 163.917 230.828 161.407C231.972 160.478 233.345 159.901 234.558 159.079C234.701 158.975 234.861 158.89 235.034 158.848C235.167 158.809 235.304 158.799 235.448 158.818V158.822Z" fill="#2099A1"/>
<path d="M219.984 197.98C217.095 194.935 214.379 191.776 211.413 188.822C208.961 186.654 207.68 183.325 205.14 181.359C202.424 184.356 199.337 186.964 196.663 190.006C194.531 191.874 192.187 193.491 190.345 195.675C190.361 196.07 189.941 196.083 189.468 196.448V196.438C187.76 195.985 191.822 193.181 192.272 192.581C195.131 189.474 198.28 186.687 201.091 183.54C202.163 182.344 203.399 181.281 204.325 179.964C204.465 179.814 204.68 179.661 204.882 179.618C205.365 179.517 205.723 179.99 205.965 180.319C207.272 182.148 208.824 183.762 210.441 185.281C214.034 188.281 217.32 191.548 220.026 195.378C220.567 196.047 221.552 196.888 220.906 197.788C220.681 198.097 220.29 198.225 219.984 197.977V197.98Z" fill="white"/>
<path d="M201.669 243.516C202.953 229.154 203.716 214.822 204.385 200.464C204.081 196.708 204.368 192.969 204.388 189.216C204.306 188.382 204.515 180.74 205.832 182.37C206.155 182.579 205.822 183.224 205.532 182.879C205.248 183.733 205.157 184.633 205.265 185.532C205.434 188.359 205.17 191.192 205.46 194.016C205.522 196.64 205.053 199.248 205.063 201.866C205.134 204.68 205.415 207.49 205.33 210.31C205.343 213.509 204.443 216.632 204.319 219.811C204.267 223.416 204.916 227.035 204.14 230.609C203.266 234.909 203.729 239.326 202.976 243.607C202.859 244.549 201.617 244.637 201.665 243.519L201.669 243.516Z" fill="white"/>
<path d="M115.093 126.19C114.878 125.935 115.002 125.512 115.132 125.251C115.843 123.868 117.177 122.952 118.337 121.968C120.831 119.532 123.984 118.332 127.15 117.061C129.566 115.646 131.799 113.749 134.668 113.357C137.292 112.842 139.796 112.017 142.483 111.952C143.118 111.972 143.014 113.136 142.421 113.165C139.901 113.171 137.732 114.381 135.463 115.3C132.924 116.256 130.377 117.188 127.929 118.355C123.834 120.637 118.598 121.589 115.846 125.694C116.195 125.671 116.159 126.314 115.84 126.307C115.719 126.304 115.595 126.304 115.475 126.284C115.338 126.34 115.198 126.31 115.093 126.186V126.19Z" fill="#2099A1"/>
<path d="M126.449 142.967C123.537 142.752 120.929 141.191 119.482 138.648C118.36 137.503 112.215 125.444 115.413 125.724C115.514 125.717 115.612 125.711 115.716 125.701C116.156 125.76 115.895 126.435 115.458 126.33C116.694 133.682 122.722 141.197 130.791 140.385C132.783 140.105 134.322 139.055 135.972 138.064C138.587 136.457 141.394 135.169 143.946 133.457C144.788 133.027 145.133 134.416 144.582 134.885C142.489 136.535 140.549 138.426 138.257 139.821C134.71 141.843 130.596 143.437 126.449 142.964V142.967Z" fill="#2099A1"/>
<path d="M161.265 129.006C155.191 127.044 151.927 120.484 150.3 114.72C150.092 114.1 149.518 113.269 150.167 112.712C150.45 112.48 150.832 112.591 150.975 112.923C151.432 114.006 151.989 115.228 152.495 116.259C153.564 118.247 154.956 119.887 156.329 121.615C157.868 123.748 159.664 125.889 162.158 126.851C164.893 127.298 167.423 125.955 169.833 124.863C173.676 123.467 177.1 121.491 180.207 118.906C182.019 117.491 184.07 115.949 185.289 113.993C186.372 112.412 186.271 110.364 185.909 108.555C184.976 104.744 183.793 100.945 182.104 97.4112C181.514 96.5897 181.129 95.1845 180.027 94.9921C177.139 94.7346 174.351 95.8985 171.59 96.5733C166.664 98.1741 162.279 100.984 157.711 103.332C155.109 104.884 153.156 107.166 150.926 109.148C150.936 109.327 150.825 109.533 150.643 109.5C150.617 109.497 150.591 109.494 150.565 109.49C150.193 109.976 149.57 109.507 149.72 108.982C151.976 105.288 156.156 103.143 159.455 100.437C160.913 99.2631 162.367 98.0861 163.984 97.1309C166.08 95.9767 168.281 95.8007 170.374 94.8454C173.693 93.5218 177.462 91.3667 181.061 92.7817C181.957 93.4076 182.248 94.5585 182.691 95.5105C183.48 97.5873 184.452 99.7814 185.452 101.676C187.956 106.103 190.278 112.509 186.059 116.64C184.152 118.818 181.345 119.763 179.017 121.371C174.094 125.58 168.118 130.02 161.261 129.006H161.265Z" fill="#2099A1"/>
<path d="M144.116 120.386C142.561 119.434 145.913 118.022 146.62 117.569C147.373 117.269 148.051 116.379 148.896 116.516C149.756 116.888 149.61 118.401 148.775 118.73C147.435 119.173 146.216 119.516 144.928 120.047C144.807 120.409 144.416 120.337 144.116 120.383V120.386Z" fill="#2099A1"/>
<path d="M183.355 97.2842C182.507 96.3159 184.336 95.5498 184.94 95.0314C185.941 94.3011 186.928 93.548 187.89 92.7688C188.94 92.1461 189.846 90.7702 191.01 90.5322C191.907 90.7409 191.897 92.133 191.251 92.622C188.914 94.4934 186.296 96.6843 183.358 97.2842H183.355Z" fill="#2099A1"/>
<path d="M116.595 132.117C114.982 130.956 120.491 128.795 121.192 128.068C122.601 127.246 123.608 125.446 125.235 125.146C126.021 125.309 126.246 126.288 126.04 126.966C125.682 128.185 124.143 128.368 123.181 128.974C120.892 129.831 118.926 131.497 116.595 132.12V132.117Z" fill="#2099A1"/>
</g>
<defs>
<clipPath id="clip0_321_43086">
<rect width="322.927" height="353" fill="white" transform="translate(0.00585938 0.888672)"/>
</clipPath>
</defs>
</svg>
