<svg width="425" height="391" viewBox="0 0 425 391" fill="none" xmlns="http://www.w3.org/2000/svg">
<path d="M243.927 178.637C243.948 179.972 238.743 180.501 233.777 180.67C229.913 180.802 226.186 180.714 225.161 180.62C224.937 190.448 223.847 200.188 222.921 209.942C222.751 211.712 222.589 213.489 222.436 215.259C222.301 219.775 223.051 224.283 222.66 228.797C221.957 235.247 219.883 241.563 220.412 248.118C219.695 258.866 217.902 269.579 217.946 280.379C218.152 285.988 216.915 291.48 216.171 297.008C215.613 304.416 215.281 311.804 214.428 319.186C214.126 321.261 213.967 339.338 210.749 335.435C209.486 331.366 210.611 326.861 210.173 322.648C208.666 308.453 210.167 294.206 210.767 279.991C210.676 270.467 210.167 260.964 210.62 251.44C210.117 243.716 210.952 236.056 211.693 228.382C211.801 224.014 211.663 219.638 211.757 215.271C211.769 214.73 211.787 214.19 211.804 213.649C211.948 207.649 213.021 201.704 213.053 195.703C212.827 190.524 212.16 185.362 212.386 180.168C204.208 181.544 196.026 180.068 187.833 180.664C182.423 181.24 176.98 181.272 171.553 181.549C161.514 183.399 151.419 183.39 141.26 183.799C135.171 184.281 129.153 183.144 123.084 183.028C112.702 183.775 102.299 183.238 91.9045 183.352C87.37 183.329 82.962 184.661 78.4334 184.737C72.1181 184.877 65.7734 184.36 59.4904 185.216C54.4299 185.721 49.3989 186.822 44.2884 186.413C44.3883 194.517 44.7527 202.642 44.4736 210.734C43.4039 217.733 44.2502 224.71 44.5235 231.715C43.9299 239.43 42.055 246.976 42.9043 254.779C42.5399 265.807 41.7964 276.841 42.4929 287.864C42.3753 293.66 41.6348 299.45 42.0344 305.252C42.6369 314.691 42.6604 324.194 42.4106 333.639C41.9433 336.128 41.1234 348.602 37.1826 345.023C35.9601 341.555 36.4626 337.761 35.7044 334.191C35.055 330.705 34.8493 327.168 34.8669 323.627C34.6818 312.798 34.0823 301.956 34.3879 291.13C33.3299 280.695 33.2095 270.213 32.1721 259.781C31.9634 255.343 32.2896 250.905 32.3954 246.471C32.4513 242.092 31.5021 237.78 31.4521 233.404C31.3257 222.232 32.0281 211.096 30.5411 199.995C30.5117 195.557 30.8144 191.12 30.2737 186.691C25.8685 186.977 21.4487 186.992 17.0583 187.562C17.1699 194.132 16.9819 200.708 16.1943 207.237C15.7505 215.773 16.6733 224.301 16.8261 232.822C15.5948 251.718 16.3677 270.645 17.2875 289.511C17.1611 293.601 16.1208 297.586 15.5771 301.629C15.5154 313.525 15.8446 325.47 15.5624 337.39C16.497 344.337 15.7006 351.263 15.2715 358.19C15.0364 363.708 16.4499 369.118 16.6116 374.608C16.8878 377.631 14.6897 389.612 11.507 382.159C10.3374 373.632 9.63799 364.988 9.59685 356.375C9.27065 350.34 7.95705 344.386 8.13337 338.316C8.17157 321.135 7.64848 303.995 7.48979 286.824C6.47005 277.648 8.13043 268.495 7.34579 259.345C5.91758 249.798 5.79709 240.123 7.07249 230.549C7.61615 224.821 6.7316 219.068 7.23706 213.34C8.20096 204.958 8.17157 196.518 9.17661 188.14C1.81806 187.389 -1.91999 191.202 0.989344 181.339C2.53511 173.884 7.44277 168.021 11.4629 161.769C11.6275 161.45 11.795 161.135 11.9684 160.822C14.1254 156.881 16.8173 153.309 19.515 149.733C19.515 149.73 19.518 149.727 19.5209 149.727C20.4055 148.558 21.29 147.387 22.1569 146.207C22.1569 146.204 22.1599 146.201 22.1628 146.201C22.9651 145.102 23.7556 143.995 24.5197 142.862C23.6821 141.901 25.6011 141.576 26.1918 141.892C26.4974 141.88 26.803 141.866 27.1087 141.851C28.1666 141.807 29.2275 141.757 30.2854 141.711C32.7128 141.603 35.1402 141.492 37.5676 141.404C37.9966 141.389 38.4257 141.372 38.8606 141.36H38.8635C41.1381 141.287 43.4127 141.232 45.6902 141.217C45.8959 141.217 46.1016 141.217 46.3044 141.214C48.0206 141.208 49.7339 141.226 51.453 141.275C51.8409 141.284 52.2288 141.296 52.6168 141.311C52.6579 141.311 52.699 141.313 52.7431 141.313C56.7721 140.899 60.7658 140.119 64.8154 139.908C68.6768 139.64 72.5148 140.291 76.3704 140.32C79.5237 140.256 82.6593 139.751 85.8125 139.759C89.5271 139.85 93.2328 140.215 96.9414 139.832C97.1589 139.809 97.3793 139.786 97.5997 139.756C101.62 139.339 105.649 139.911 109.66 139.835C110.606 139.815 111.547 139.762 112.49 139.651C118.794 138.845 125.162 139.041 131.495 138.617H131.498C131.989 138.585 132.479 138.55 132.97 138.509C136.438 138.407 139.882 138.953 143.344 138.976C146.427 138.822 149.442 138.047 152.524 137.843C157.006 137.472 161.523 137.694 165.978 138.223C169.766 138.719 173.51 137.831 177.277 137.571C177.556 137.551 177.838 137.536 178.118 137.524C179.475 137.504 180.818 137.668 182.161 137.837C182.984 137.942 183.81 138.047 184.636 138.112H184.639C184.886 138.138 185.132 138.153 185.382 138.167C186.793 138.34 188.197 138.351 189.593 138.272C189.617 138.272 189.635 138.269 189.658 138.269C190.625 138.208 191.592 138.106 192.553 137.983H192.556C193.011 137.922 193.467 137.857 193.922 137.793C194.698 137.679 195.477 137.554 196.253 137.434C196.837 137.343 197.422 137.256 198.01 137.174C198.648 137.083 199.288 137.004 199.929 136.937C199.935 136.934 199.941 136.934 199.952 136.934C200.799 136.844 201.645 136.782 202.494 136.759C205.048 136.701 207.558 137.244 210.1 137.384C210.564 137.381 211.025 137.375 211.49 137.361C215.977 137.247 220.453 136.721 224.943 136.633C226.918 136.49 228.893 136.318 230.868 136.146C231.353 136.105 231.837 136.064 232.322 136.017C234.13 135.862 235.937 135.707 237.741 135.576C238.176 135.541 238.611 135.509 239.046 135.479C239.152 135.503 239.237 135.547 239.314 135.611H239.316C239.563 135.813 239.628 136.198 239.537 136.531C239.446 136.876 239.199 137.165 238.832 137.171C239.64 138.29 239.375 140.043 239.61 141.486C239.637 141.661 239.672 141.833 239.716 141.997C240.792 146.648 241.109 151.378 241.594 156.113C243.069 162.423 243.322 168.844 243.713 175.268C243.78 176.393 243.851 177.515 243.933 178.64L243.927 178.637Z" fill="#00A91C"/>
<path d="M99.711 159.102C99.1585 156.078 99.0145 153.022 98.847 149.961C98.5178 146.911 99.0556 142.012 96.9427 139.835C96.1639 139.029 95.0237 138.597 93.3369 138.769C87.2508 137.539 81.0472 138.176 74.9111 137.703C64.5463 136.303 54.0668 136.858 43.6725 137.013C43.4521 136.803 43.2259 136.593 43.0054 136.382C42.7792 124.933 43.2112 113.257 41.9563 101.805C41.9093 98.4279 42.4295 94.9164 42.5088 91.5189C42.2061 85.0042 42.3031 78.5071 42.3031 71.9895C41.7682 66.5091 40.5017 61.1367 40.4928 55.5978C40.343 54.4059 40.5428 50.6227 38.9588 50.4971C35.0739 51.3501 31.8471 53.8391 28.3706 55.6533C20.1981 58.9515 12.4663 63.3774 5.48095 68.7235C5.15476 68.4342 5.03427 69.1091 4.78448 69.2347C4.71395 69.036 4.53763 68.8754 4.31428 68.9659C3.80882 69.2376 4.03804 69.8774 4.06743 70.339C5.12831 80.3797 3.77356 90.7038 6.32731 100.584C7.91421 109.95 7.32647 119.573 9.63924 128.857C10.9558 137.212 10.6208 145.742 11.2702 154.165C11.3172 154.69 11.5641 157.828 11.9755 160.828C12.431 164.167 13.0922 167.334 13.9121 166.539C14.1208 166.764 13.9356 167.054 13.9885 167.317C14.1766 167.48 14.2354 167.267 14.2442 166.989C17.2828 168.31 20.8916 169.058 24.2505 169.189C28.4852 169.046 32.6876 168.231 36.9311 168.675C44.5924 169.56 52.2301 168.809 59.8854 168.672C71.99 170.293 84.5207 171.304 96.7076 169.82C97.3071 171.187 98.7765 169.82 99.0909 168.92C100.211 165.83 99.7639 162.341 99.7139 159.108L99.711 159.102ZM4.91378 69.892V69.8862C4.91378 69.8862 4.9226 69.8803 4.92554 69.8774C4.9226 69.8803 4.91672 69.8862 4.91378 69.892Z" fill="#1B1B1B"/>
<path d="M15.7183 151.357C16.4294 143.887 13.6817 136.663 13.5142 129.228C12.374 122.859 12.7237 116.365 12.1007 109.947C11.081 98.9244 10.5667 87.8408 10.1171 76.8126C10.0847 75.6879 9.92311 74.4142 10.0965 73.3742C10.3257 72.8717 10.7871 75.7551 10.8488 75.8719C11.5159 80.4555 11.9832 85.1706 11.7069 89.7776C11.7304 93.999 12.9647 98.0918 13.2409 102.287C13.3702 105.912 13.2439 109.541 13.3262 113.166C13.67 116.382 14.7838 119.485 14.8131 122.751C14.7926 129.067 16.2443 135.219 16.5823 141.495C16.6998 144.688 16.8027 147.875 17.1142 151.056C17.3346 152.166 15.8123 152.926 15.7183 151.36V151.357Z" fill="white"/>
<path d="M38.1346 136.271C38.2845 131.339 36.8945 126.49 37.1531 121.553C36.9738 113.943 37.6821 106.359 37.3059 98.7896C36.7652 86.2015 37.112 73.6308 36.3949 61.0515C36.2627 60.4146 36.1304 57.4406 37.0003 59.4067C37.0973 59.6492 37.159 59.8946 37.206 60.1546C37.2266 60.2714 37.0649 60.3679 37.0385 60.2218C36.9827 59.8654 36.8798 59.5177 36.6711 59.2198C37.1266 63.9933 38.2963 68.6908 37.8466 73.5549C37.8937 76.6077 38.6665 79.5933 38.6989 82.6462C38.8194 85.3893 38.3492 88.1325 38.5784 90.8698C39.269 95.1613 38.9692 99.482 38.4549 103.768C38.3168 107.037 38.8282 110.291 38.8752 113.557C39.0045 117.285 38.2992 121.015 38.8722 124.725C39.2308 125.672 40.2388 140.299 38.1346 136.268V136.271Z" fill="white"/>
<path d="M11.1227 75.4217C8.84519 75.2026 11.7721 73.3416 12.3599 72.6434C14.6256 70.9228 16.6475 68.8778 19.0778 67.3791C24.1265 65.0012 28.4171 61.7321 33.0485 58.7319C37.004 55.6002 37.195 61.1216 35.0527 59.6551C30.7122 62.185 25.9926 64.2065 22.1253 67.4405C20.0123 69.2108 17.485 70.318 15.1781 71.7816C13.7205 72.9706 12.1924 74.0486 10.5144 74.8958C10.7083 75.1237 11.0639 75.0886 11.3196 75.1967C11.4401 75.3311 11.2755 75.4976 11.1227 75.4187V75.4217Z" fill="white"/>
<path d="M17.1259 151.567C16.4706 150.632 20.7993 147.746 21.4899 146.896C24.2288 144.021 27.2292 141.483 30.6793 139.49C32.9156 137.857 34.9257 135.944 37.0974 134.226C37.4942 133.726 38.1936 133.312 38.6373 134.019C39.8187 136.312 32.5806 139.829 30.9731 141.158C26.7003 144.664 21.8925 147.463 17.8253 151.205C17.8194 151.494 17.3463 151.777 17.1259 151.567Z" fill="white"/>
<path d="M16.5264 162.648C19.7237 157.808 25.031 153.802 29.1276 149.467C32.2044 145.874 35.7574 142.947 39.3308 139.923C39.9068 139.771 40.9648 138.164 41.335 138.903C41.4291 139.158 41.1764 139.271 41.0647 139.003C36.974 143.429 32.8098 147.764 28.1549 151.617C25.0692 155.529 21.5957 159.075 17.6695 162.157C17.3433 162.391 16.8849 163.203 16.5234 162.648H16.5264Z" fill="white"/>
<path d="M89.527 167.13C85.4451 166.256 81.3456 167.147 77.2578 166.595C69.194 165.412 61.0302 165.503 52.9282 165.684C50.8799 165.482 48.8463 164.802 46.801 164.807C44.3795 164.766 42.0255 165.535 39.6011 165.424C33.3093 164.74 27.1997 164.997 20.47 164.615C19.9323 165.4 19.2622 163.981 20.2438 163.96C28.3928 163.741 36.5331 163.323 44.6763 164.103C50.6918 163.905 56.7426 164.208 62.7347 164.691C67.7481 163.998 72.6999 164.69 77.6634 165.289C84.0404 166.037 90.4145 166.058 96.8091 165.66C97.9317 165.66 97.4586 167.054 96.5564 167.083C94.2172 167.15 91.8691 167.247 89.5299 167.127L89.527 167.13Z" fill="white"/>
<path d="M90.1695 158.132C88.6913 157.79 84.2626 158.728 83.6484 157.387C84.004 152.993 85.1971 148.64 86.546 144.448C85.8084 142.765 89.5553 143.399 90.4898 143.174C91.6741 143.131 94.2484 142.771 93.7429 144.667C93.8047 148.512 94.4012 152.347 94.0897 156.201C94.4864 158.333 91.583 158.152 90.1724 158.138L90.1695 158.132ZM84.9268 156.963C87.6774 156.893 90.3399 156.02 93.1199 156.309C92.9465 152.391 92.8672 148.491 92.9318 144.568C91.2009 144.343 89.3907 144.559 87.648 144.577C86.5872 148.69 85.635 152.832 84.4331 156.914C84.5976 156.934 84.7593 156.954 84.9238 156.963H84.9268Z" fill="white"/>
<path d="M44.1357 143.989C43.6037 143.405 44.3149 142.748 44.7058 142.38C45.2318 142.015 45.5551 140.983 46.2045 140.98C46.566 141.398 45.9312 142.053 45.7578 142.459C45.3758 142.9 44.888 144.545 44.1357 143.987V143.989Z" fill="white"/>
<path d="M40.3792 148.752C39.6033 147.846 41.9984 145.754 42.7918 146.368C43.2033 146.631 42.9182 147.463 42.4686 147.358C41.8985 147.755 41.1667 149.61 40.3792 148.752Z" fill="white"/>
<path d="M35.2928 155.242C34.4523 153.878 36.5741 152.537 37.4498 151.696C38.255 151.325 38.5254 152.52 37.8553 152.818C37.1148 153.454 36.483 155.923 35.2957 155.242H35.2928Z" fill="white"/>
<path d="M50.2343 143.852C49.4027 143.107 51.5068 140.919 52.2473 140.834C52.7704 141.012 52.7881 142.046 52.1739 142.084C51.7037 142.558 51.0689 144.524 50.2372 143.852H50.2343Z" fill="white"/>
<path d="M47.2104 149.289C46.3141 148.611 48.6416 146.061 49.3234 146.625C49.823 146.803 49.6202 147.738 49.0883 147.653C48.5975 148.12 48.0685 149.935 47.2104 149.289Z" fill="white"/>
<path d="M43.7682 155.745C43.2833 155.193 43.9122 154.58 44.2883 154.179C44.5998 153.925 44.8731 153.32 45.3374 153.423C45.7077 153.481 45.646 154.1 45.2934 154.127C44.8907 154.556 44.5557 156.315 43.7652 155.745H43.7682Z" fill="white"/>
<path d="M57.2777 144.474C56.6988 143.77 57.6362 143.066 58.0271 142.526C58.2446 142.164 59.0733 141.331 59.0321 142.251C58.6207 142.853 58.271 145.03 57.2748 144.472L57.2777 144.474Z" fill="white"/>
<path d="M54.4366 151.112C53.5374 150.364 55.2859 148.479 56.0353 148.228C56.8375 148.199 56.8229 149.286 56.1205 149.198C55.6856 149.715 55.3359 151.576 54.4366 151.112Z" fill="white"/>
<path d="M51.8906 157.094C51.1059 156.498 52.8721 154.401 53.5245 154.804C53.983 155.198 53.4305 155.704 53.2483 156.078C52.9573 156.533 52.5812 157.629 51.8935 157.094H51.8906Z" fill="white"/>
<path d="M63.735 145.625C62.8622 144.787 64.1229 143.741 64.5225 142.973C64.8164 142.614 65.3366 141.334 65.8773 142.026C66.0918 142.643 65.5276 143.242 65.3483 143.814C64.9692 144.413 64.7312 146.093 63.735 145.625Z" fill="white"/>
<path d="M62.1585 150.226C61.3533 149.566 62.6023 148.158 63.2371 147.81C63.9365 147.644 64.1833 148.818 63.4663 148.923C63.1724 149.408 62.9491 150.623 62.1585 150.226Z" fill="white"/>
<path d="M59.8804 156.917C59.0399 156.128 60.3417 154.445 61.0735 153.995C61.8581 153.858 61.9522 154.942 61.3409 155.225C61.0382 155.83 60.8648 157.37 59.8804 156.917Z" fill="white"/>
<path d="M70.0988 146.139C69.3582 145.166 70.7571 144.284 71.239 143.531C71.624 143.133 71.9002 142.543 72.4233 142.318C73.064 142.172 73.0199 143.592 72.4439 143.58C71.9796 144.132 70.9657 146.966 70.0988 146.139Z" fill="white"/>
<path d="M69.3232 150.889C68.4504 150.001 69.7523 148.841 70.243 148.073C70.3841 147.796 70.675 147.48 71.0188 147.629C71.586 147.988 71.3979 148.739 71.0394 149.174C70.6339 149.718 70.2254 151.365 69.3261 150.889H69.3232Z" fill="white"/>
<path d="M67.4241 156.274C66.8863 155.748 67.6974 155.117 67.9883 154.679C68.1852 154.518 68.5526 153.735 68.8229 154.048C68.9052 154.217 68.9405 154.638 68.6525 154.562C68.3968 154.982 68.1029 156.604 67.4212 156.274H67.4241Z" fill="white"/>
<path d="M74.267 155.667C73.0475 154.428 75.7041 151.454 76.089 149.993C77.0794 147.37 78.6281 144.18 80.4442 142.474C79.9769 145.526 78.4312 148.226 77.1205 150.989C76.3711 152.026 75.9303 156.371 74.27 155.667H74.267Z" fill="white"/>
<path d="M403.707 109.223C403.789 109.605 403.854 109.988 403.922 110.374C403.998 110.815 404.063 111.262 404.127 111.706C404.163 111.723 404.201 111.741 404.236 111.758C404.271 111.776 404.304 111.791 404.339 111.808C405.188 112.2 406.032 112.6 406.875 113.009C408.265 113.689 409.637 114.396 410.98 115.159C413.84 116.76 416.593 118.618 418.724 121.127C419.582 122.211 420.593 123.28 420.943 124.647C421.295 126.581 420.443 128.542 419.171 129.982C417.152 132.085 414.295 133.099 411.615 134.101C410.387 134.51 409.135 134.825 407.868 135.08C406.993 135.264 406.108 135.413 405.218 135.541C405.097 135.559 404.979 135.579 404.862 135.597C404.891 135.828 404.918 136.058 404.95 136.286C405.05 137.122 405.153 137.957 405.241 138.796C405.241 138.831 405.25 138.869 405.253 138.904C405.297 139.301 405.341 139.701 405.364 140.101C405.37 140.157 405.373 140.218 405.379 140.274C406.225 140.128 407.072 139.976 407.915 139.806C409.74 139.444 411.545 138.997 413.281 138.337C417.666 136.695 422.415 134.338 424.228 129.745C425.227 127.347 425.348 124.458 424.043 122.153C421.624 118.402 417.901 115.629 413.94 113.628C411.583 112.416 409.17 111.288 406.699 110.312C405.858 109.979 405.009 109.664 404.154 109.372C404.021 109.322 403.883 109.278 403.751 109.231C403.736 109.231 403.725 109.226 403.707 109.223Z" fill="#00A91C"/>
<path d="M283.626 247.297C283.967 247.625 284.34 247.899 284.734 248.136C285.107 248.37 285.498 248.571 285.901 248.77C287.379 249.509 288.928 250.09 290.491 250.625C290.932 250.78 291.376 250.926 291.819 251.072C292.287 251.224 292.757 251.376 293.227 251.519C299.622 253.491 306.249 254.764 312.937 255.065C314.542 255.15 316.146 255.159 317.748 255.293C317.774 255.293 317.804 255.293 317.833 255.299C318.782 255.384 319.734 255.486 320.684 255.585C323.402 255.866 326.123 256.135 328.859 255.939C335.736 255.515 342.63 255.439 349.474 254.595C351.199 254.423 352.93 254.3 354.661 254.174C355.651 254.101 356.645 254.028 357.632 253.944C357.679 253.938 357.726 253.935 357.773 253.929C361.952 253.549 366.09 252.813 370.224 252.118C374.506 251.443 378.72 250.406 382.811 248.977C383.134 248.866 383.469 248.752 383.81 248.635C384.942 248.244 386.152 247.806 387.313 247.274C390.458 245.843 393.282 243.748 393.423 240.128C393.185 236.95 391.072 234.178 388.68 232.124C388.389 231.873 388.095 231.633 387.798 231.405C387.125 230.911 385.194 229.693 384.724 230.914C384.692 231.204 384.806 231.437 384.848 231.692C384.88 231.952 385.282 231.902 385.253 231.642C385.238 231.525 385.253 231.405 385.309 231.303C386.314 231.639 387.081 232.416 387.81 233.178C387.98 233.36 388.151 233.538 388.318 233.713C389.382 234.928 390.281 236.307 390.772 237.856C392.764 243.503 383.79 245.106 379.963 246.298C375.538 247.587 370.962 248.186 366.401 248.793C362.225 249.369 358.041 249.9 353.821 250.073C348.243 250.382 342.698 251.133 337.105 251.209C333.858 251.2 330.611 251.414 327.363 251.475C324.072 251.475 320.819 250.864 317.548 250.593C313.877 250.33 310.192 250.277 306.557 249.673C302.267 249.009 298.038 248.004 293.894 246.716C293.115 246.474 292.337 246.219 291.564 245.959C289.815 245.326 288.099 244.604 286.53 243.605C284.17 242.258 281.696 245.273 283.626 247.292V247.297Z" fill="#00A91C"/>
<path d="M377.396 331.526C377.396 334.489 381.705 334.904 382.237 331.915C382.713 326.291 383.656 320.709 383.635 315.05C384.22 303.362 384.608 291.662 385.205 279.973C386.213 270.213 387.047 260.42 387.447 250.613C387.412 249.521 387.535 248.358 387.315 247.277C387.241 246.912 387.127 246.556 386.953 246.214C386.512 245.422 385.416 245.218 384.699 245.758C383.865 246.45 383.935 247.642 383.812 248.639C383.812 248.677 383.803 248.715 383.797 248.753C383.612 250.917 383.421 253.082 383.209 255.247C382.595 261.133 382.163 267.04 381.481 272.921C381.129 275.86 380.726 278.796 380.517 281.749C379.944 293.406 379.257 305.053 378.751 316.712C378.719 321.708 377.687 326.563 377.399 331.526H377.396Z" fill="#00A91C"/>
<path d="M351.074 308.07C351.553 310.101 354.562 310.337 355.353 308.389C355.726 307.53 355.758 306.607 355.808 305.69C355.941 303.618 356.043 301.544 356.158 299.476C356.546 294.565 356.684 289.645 356.866 284.72C357.369 275.117 358.694 265.585 358.027 255.971C357.945 255.436 357.904 254.665 357.774 253.929C357.551 252.676 357.075 251.516 355.714 251.744C354.63 252.065 354.63 253.172 354.662 254.171C354.674 254.466 354.683 254.75 354.674 255.004C354.689 256.912 354.627 258.819 354.571 260.73C354.298 269.041 353.017 277.276 352.444 285.57C352.188 290.583 351.803 295.582 351.359 300.583C351.233 302.289 351.121 303.992 350.992 305.701C350.907 306.493 350.88 307.288 351.08 308.068L351.074 308.07Z" fill="#00A91C"/>
<path d="M315.552 348.418C316.255 349.143 317.448 349.309 318.317 348.795C319.666 348.009 319.643 346.3 319.622 344.93C319.613 342.885 319.605 340.837 319.572 338.792C319.487 336.067 319.649 333.347 319.79 330.624C319.802 326.496 319.669 322.368 319.722 318.238C319.743 315.483 319.899 312.728 319.981 309.97C320.104 305.766 319.998 301.557 320.169 297.353C320.413 291.583 320.654 285.816 320.677 280.044C320.707 274.368 320.469 268.694 320.539 263.021C320.557 260.815 320.63 258.61 320.674 256.404C320.674 256.132 320.683 255.858 320.683 255.586C320.692 255.04 320.677 254.496 320.545 253.962C320.545 253.962 320.539 253.962 320.539 253.968C320.316 252.957 318.823 252.732 318.312 253.655C318.032 254.169 317.862 254.724 317.747 255.294C317.556 256.235 317.515 257.222 317.374 258.154C317.213 259.647 317.121 261.143 317.024 262.635C316.592 271.099 316.904 279.582 316.31 288.042C315.84 295.051 315.505 302.065 315.364 309.088C315.07 314.72 314.929 320.362 314.973 326.003C315.041 328.614 315.023 331.223 314.841 333.832C314.726 336.689 314.847 339.543 314.832 342.397C314.832 343.113 314.832 343.823 314.82 344.536C314.859 345.845 314.574 347.387 315.549 348.421L315.552 348.418Z" fill="#00A91C"/>
<path d="M288.045 311.509C288.55 313.423 291.266 313.648 292.068 311.81C292.462 311.03 292.359 310.133 292.456 309.292C292.808 306.61 292.832 303.908 292.723 301.209C292.573 295.664 292.923 290.128 292.982 284.586C293.073 279.088 292.876 273.593 292.844 268.095C292.844 263.812 292.985 259.532 293.232 255.258C293.282 254.245 293.352 253.222 293.305 252.209C293.293 251.972 293.273 251.741 293.226 251.516C293.173 251.262 293.093 251.02 292.955 250.789C292.482 249.88 291.075 249.816 290.49 250.622C290.454 250.669 290.422 250.719 290.396 250.774C290.396 250.774 290.396 250.772 290.396 250.768C289.717 252.036 289.746 253.564 289.532 254.961C289.37 256.468 289.214 257.978 289.106 259.492C288.421 267.782 288.747 276.102 288.494 284.408C288.347 289.947 287.88 295.483 288.018 301.025C288.059 303.16 288.118 305.293 288.112 307.428C288.177 308.778 287.727 310.189 288.054 311.504L288.045 311.509Z" fill="#00A91C"/>
<path d="M315.863 80.3563C315.725 80.8354 315.89 81.3174 316.099 81.7469C316.528 82.6028 317.021 83.4208 317.489 84.2534C317.762 84.7237 318.038 85.2321 318.373 85.6235V85.6995C318.441 88.5128 318.273 91.3815 318.038 94.1714C317.644 98.4279 317.741 102.702 317.594 106.97C317.347 111.27 317.321 115.576 317.109 119.877C316.939 126.28 317.077 132.69 316.763 139.087C316.789 147.559 316.098 156.011 316.078 164.483C316.022 166.577 315.875 168.669 315.852 170.764C315.828 171.859 315.819 172.952 315.875 174.047C315.899 174.524 316.037 174.95 316.381 175.295C316.557 175.479 316.757 175.607 316.971 175.689C317.865 177.749 318.84 179.797 320.025 181.713C320.615 182.584 321.324 183.942 322.575 183.682C324.339 183.188 327.116 178.847 327.768 177.115C328.235 175.137 327.762 173.083 327.871 171.076C327.706 165.461 327.277 159.873 327.266 154.258C327.222 148.488 327.386 142.722 327.219 136.952C327.177 135.167 326.96 133.391 326.857 131.609C326.787 129.406 326.737 127.209 326.61 125.006C326.46 122.663 326.475 120.312 326.39 117.963C326.281 115.527 325.993 113.108 325.708 110.689C325.144 103.657 324.494 96.6312 323.666 89.6229C323.525 87.9314 323.21 86.2224 323.222 84.528C323.801 83.3565 325.761 81.4138 324.809 80.1898C324.571 79.9502 324.198 79.8597 323.883 79.9911C323.657 80.0846 323.501 80.2599 323.369 80.4556C322.772 79.3601 322.161 78.2675 321.794 77.0668C321.371 75.7844 321.053 74.3792 320.104 73.3596C319.134 72.381 318.17 73.2282 317.882 74.3178C317.365 75.7318 316.939 77.172 316.525 78.6181C316.369 79.2287 316.148 79.7983 315.869 80.3563H315.863Z" fill="#00A91C"/>
<path d="M281.947 50.3744C281.115 49.9041 280.389 51.1252 281.209 51.6306C282.188 52.1273 283.719 53.7545 284.803 53.2052C285.138 53.0212 285.285 52.6297 285.394 52.285C285.609 51.5868 285.8 50.8828 285.955 50.1729C286.038 49.536 286.473 48.3879 285.691 48.0549C285.494 48.0023 285.306 48.0549 285.174 48.2126C284.924 48.5895 284.95 49.092 284.865 49.5243C284.683 50.281 284.327 51.0025 283.998 51.7095C283.287 51.3093 282.635 50.8185 281.95 50.3774L281.947 50.3744Z" fill="#1B1B1B"/>
<path d="M273.822 38.6133C273.123 43.7783 273.337 44.5671 278.839 44.2545C281.037 44.1347 282.953 43.0538 284.934 42.2271C285.342 42.0372 285.801 41.9437 286.168 41.6749C286.7 41.2776 286.9 40.4772 286.556 39.8958C286.086 39.0924 284.937 39.0778 284.29 39.6767C282.445 40.8803 280.72 42.2154 278.536 42.6273C277.405 42.788 276.115 43.083 275.045 42.5543C275.107 40.8891 275.671 39.405 275.971 37.7954C276.649 33.8048 277.258 29.7879 278.225 25.8528C278.277 25.6366 278.345 25.4146 278.295 25.1926C278.236 24.9384 277.91 24.8479 277.713 24.9998C277.572 25.1108 277.487 25.2832 277.413 25.4438C276.573 27.4683 275.988 29.6039 275.35 31.7014C275.157 32.4756 274.939 33.241 274.707 34.0064C274.284 35.5109 274.099 37.0709 273.822 38.6075V38.6133Z" fill="#1B1B1B"/>
<path d="M290.835 30.8427C292.906 30.9859 294.925 29.9838 296.321 28.5027C296.715 27.9827 297.388 27.2845 296.991 26.6097C296.595 25.891 295.813 25.5287 295.116 25.1607C294.602 24.9153 294.073 24.6903 293.512 24.5735C291.966 24.3953 290.364 24.7225 288.963 25.3827C287.699 26.1568 286.817 27.5036 286.221 28.8299C286.632 28.827 287 29.122 287.111 29.5106C287.952 30.5623 289.565 30.6791 290.832 30.8427H290.835ZM294.017 22.6103C295.058 22.9054 296.007 23.4546 296.888 24.071C301.582 27.562 295.078 32.7737 291.099 32.5955C289.283 32.6335 285.953 31.7542 285.298 29.8816C284.625 29.0987 285.874 26.6213 286.371 25.8413C287.755 23.0251 291.067 21.9734 294.02 22.6103H294.017Z" fill="#1B1B1B"/>
<path d="M283.89 25.3934C283.725 25.9134 284.263 26.4451 284.783 26.2844C285.294 26.1267 285.418 25.5249 285.653 25.1101C286.123 24.1343 286.796 23.2638 287.722 22.6736C289.25 21.6366 291.163 21.5723 292.95 21.6687C294.88 21.7914 296.823 22.6211 298.128 24.0525C298.019 24.219 298.263 24.3447 298.366 24.1957C298.942 23.7341 297.214 22.25 296.829 21.9579C295.189 20.7543 293.141 20.3366 291.136 20.3073C289.1 20.1671 286.993 20.9354 285.585 22.4166C284.792 23.2521 284.275 24.3184 283.895 25.3905L283.89 25.3934Z" fill="#1B1B1B"/>
<path d="M288.411 26.0511C287.576 27.1057 287.743 28.9959 288.704 29.9219C288.881 30.0709 289.092 30.1761 289.319 30.2199C289.906 30.6873 290.85 30.7399 291.39 30.1761C293.139 28.5284 290.559 24.2399 288.411 26.0511Z" fill="#1B1B1B"/>
<path d="M268.758 29.1191C266.228 29.3558 268.218 33.9803 270.137 33.4194C270.713 33.2412 271.315 32.7533 271.224 32.0931C271.033 30.7989 270.292 29.1279 268.758 29.1191Z" fill="#1B1B1B"/>
<path d="M279.12 19.9017C278.656 20.8979 279.805 21.8386 280.734 21.2339C283.023 19.3467 284.915 18.8325 287.795 18.4031C289.664 18.0788 291.604 17.8685 293.482 18.2424C294.451 18.4469 295.368 18.8208 296.256 19.259C296.758 19.4928 297.293 19.9456 297.869 19.6856C300.091 18.2044 295.677 16.1828 294.46 15.7826C293.023 15.3181 291.683 14.5703 290.164 14.3512C286.408 13.5449 282.899 14.8682 280.419 17.7487C279.814 18.3651 279.54 19.1831 279.12 19.9047V19.9017Z" fill="#1B1B1B"/>
<path d="M296.758 34.9292C296.461 34.5845 295.841 34.7598 295.856 35.2389C295.9 35.4638 295.841 35.7443 296.061 35.8874C296.455 36.5272 296.714 38.2158 297.739 37.8243C298.127 37.6607 298.324 37.1524 298.086 36.7872C297.648 36.1679 297.255 35.5047 296.755 34.9322L296.758 34.9292Z" fill="#1B1B1B"/>
<path d="M294.052 38.6687C295.057 38.1458 293.952 37.059 293.664 36.3988C293.37 36.0015 292.979 34.868 292.353 35.1309C291.868 35.4406 292.509 36.4572 292.606 36.9013C292.926 37.544 293.026 38.993 294.052 38.6658V38.6687Z" fill="#1B1B1B"/>
<path d="M288.676 36.0537C288.471 36.2874 288.653 36.6116 288.688 36.8775C288.859 37.5465 288.712 38.8728 289.77 38.6566C290.695 38.3353 290.119 37.4063 289.843 36.8132C289.664 36.3721 289.211 35.5074 288.676 36.0507V36.0537Z" fill="#1B1B1B"/>
<path d="M271.06 38.382C270.175 38.7238 271.039 39.7638 271.171 40.3539C271.5 41.0171 271.592 42.5099 272.655 42.171C273.643 41.6335 272.644 40.4912 272.35 39.8018C272.018 39.3314 271.791 38.2359 271.06 38.3849V38.382Z" fill="#1B1B1B"/>
<path d="M268.449 39.7645C268.026 40.0771 268.537 40.7139 268.608 41.1112C268.884 41.6517 268.814 42.902 269.689 42.7355C270.636 42.3645 269.68 41.3596 269.46 40.7811C269.216 40.4335 269.016 39.5279 268.449 39.7645Z" fill="#1B1B1B"/>
<path d="M250.471 196.548C249.008 197.766 250.73 199.931 252.264 198.78C253.674 197.55 251.988 195.455 250.471 196.548Z" fill="#1B1B1B"/>
<path d="M255.262 199.688C255.259 200.494 255.938 201.175 256.749 201.175C257.56 201.175 258.242 200.506 258.245 199.697C258.247 198.894 257.569 198.21 256.758 198.21C255.944 198.21 255.265 198.879 255.262 199.688Z" fill="#1B1B1B"/>
<path d="M193.051 258.44C193.298 258.729 193.568 259.004 193.821 259.284C194.706 260.216 195.52 261.203 196.346 262.188C198.103 264.25 199.672 266.485 201.618 268.393C202.922 269.62 204.359 270.701 205.855 271.688C207.186 272.515 208.506 273.356 209.852 274.157C210.648 274.613 211.503 275.059 212.444 275.024C213.887 274.995 215.095 274.151 216.173 273.286C216.252 273.231 216.329 273.175 216.405 273.12C216.023 274.247 215.541 275.343 215.024 276.418C214.748 277.151 214.066 277.987 214.545 278.767C214.76 279.094 215.133 279.211 215.485 279.339C216.302 279.623 217.158 279.763 217.992 279.988C218.821 280.216 219.585 280.595 220.378 280.917C220.696 281.037 220.998 281.042 221.316 280.917C221.827 280.645 222.03 280.032 222.371 279.593C223.558 277.905 224.46 276.035 225.498 274.253C226.362 272.828 227.038 271.306 227.79 269.821C228.189 269.044 228.639 268.291 229.059 267.525C229.688 266.357 230.111 265.086 230.652 263.877C230.658 263.865 230.664 263.853 230.67 263.841C231.916 261.203 232.736 258.405 233.794 255.688C234.399 254.178 235.016 252.676 235.554 251.139C235.639 250.879 235.733 250.619 235.818 250.354C237.491 251.379 239.18 252.363 241.064 252.98C241.59 253.17 242.119 253.354 242.648 253.529C242.898 253.617 243.171 253.734 243.436 253.748C243.562 256.684 243.63 259.626 243.6 262.571C243.712 265.629 244.059 268.673 244.164 271.732C244.226 277.017 244.308 282.299 244.332 287.586C244.273 289.383 244.164 291.18 244.164 292.979C244.082 297.767 243.988 302.552 244.114 307.341C244.132 308.392 244.206 309.438 244.191 310.49C244.211 311.13 244.611 311.676 245.152 311.962C245.169 312.733 245.319 313.49 245.933 313.978C246.68 314.439 247.453 314.396 248.261 314.571C250.024 314.773 251.793 315.006 253.571 315.03C253.862 315.041 254.15 315.059 254.444 315.085C254.412 315.661 254.373 316.239 254.312 316.815C254.094 319.453 253.965 322.096 253.753 324.731C253.633 326.724 253.727 328.722 253.574 330.711C253.398 333.367 253.119 336.011 252.839 338.658C252.663 340.191 252.648 341.751 252.313 343.262C250.7 343.56 249.057 343.653 247.441 343.977C246.204 344.109 244.967 343.922 243.724 343.939C241.093 344.018 238.478 344.392 235.845 344.395C233.441 344.591 230.593 344.1 228.704 345.926C228.01 346.636 228.445 347.568 229.303 347.877C230.538 348.678 231.804 349.434 233.165 350.004C234.493 350.618 235.93 350.948 237.27 351.532C239.827 352.695 242.48 353.653 245.252 354.173C247.053 354.529 248.872 354.994 250.721 354.938C252.625 354.842 254.594 354.304 256.046 353.031C256.692 352.4 257.203 351.649 257.812 350.989C257.879 350.904 257.979 350.793 258.097 350.667C258.153 351.593 258.153 352.525 258.129 353.454C258.214 354.588 257.8 356.823 259.219 357.217C259.975 357.226 260.727 357.258 261.479 357.384C262.908 357.55 264.35 357.547 265.785 357.477C266.837 357.445 267.577 356.904 267.424 355.783C267.545 353.936 267.736 352.087 268.065 350.267C268.588 346.262 268.9 342.219 269.19 338.193C269.446 334.556 269.558 330.898 270.037 327.279C271.057 320.475 271.591 313.61 271.865 306.739C272.041 304.434 272.223 302.126 272.253 299.815C272.405 294.679 273.205 289.587 272.973 284.44C273.014 282.135 273.219 279.842 273.337 277.537C273.425 275.048 273.352 272.55 273.393 270.061C273.543 266.529 273.496 263 273.413 259.465C273.469 256.462 273.278 253.468 273.205 250.465C273.205 250.105 273.217 249.746 273.228 249.387C274.175 249.211 275.215 249.34 276.176 249.188C279.038 248.887 281.895 248.542 284.742 248.13C286.708 247.853 288.665 247.537 290.62 247.187C291.713 247.032 292.809 246.874 293.902 246.719C298.901 245.998 303.894 245.227 308.863 244.306C311.576 243.74 314.297 243.24 317.024 242.761C318.191 242.533 319.366 242.337 320.498 241.993C320.891 241.876 321.367 241.721 321.65 241.411C324.001 242.168 326.375 242.849 328.773 243.447C335.855 245.58 343.299 246.562 350.696 246.442C354.087 246.456 357.473 246.375 360.829 246.001C364.17 245.428 367.497 244.677 370.735 243.672C374.476 242.469 378.105 240.9 381.555 239.024C382.734 238.344 383.895 237.605 384.911 236.693C386.087 235.7 386.901 234.394 387.824 233.182C387.85 233.141 387.882 233.1 387.915 233.059C388.17 232.744 388.432 232.431 388.696 232.121C389.205 231.522 389.725 230.935 390.222 230.328C390.489 230.009 390.824 229.67 390.927 229.255C390.933 229.229 390.939 229.2 390.945 229.171C391.456 229.118 391.97 229.06 392.484 228.995C395.035 228.674 397.518 228.04 400.058 227.646C400.713 227.59 401.368 227.17 401.456 226.477C401.503 226.22 401.403 225.984 401.412 225.729C402.018 222.528 402.735 219.34 403.114 216.101C403.578 212.659 404.031 209.221 404.366 205.762C405.218 198.97 406.161 192.198 406.523 185.356C407.93 170.218 408.048 154.997 407.93 139.8C407.919 138.223 407.907 136.648 407.886 135.071C407.886 134.469 407.875 133.873 407.869 133.271C407.769 128.509 407.193 123.771 406.993 119.015C406.934 117.011 406.964 115.004 406.893 113C406.875 112.43 406.843 111.86 406.802 111.291C406.775 110.961 406.746 110.633 406.714 110.306C406.258 105.495 405.309 100.748 403.945 96.1114C403.27 93.5464 402.223 91.0983 401.033 88.7291C399.89 86.3861 398.529 84.1455 396.895 82.1122C394.677 79.4771 392.138 77.0436 389.287 75.1009C387.829 74.1573 386.263 73.4007 384.709 72.6353C382.258 71.344 379.669 70.38 377.015 69.5825C374.602 68.7528 372.254 67.7157 369.756 67.1577C364.079 65.846 358.257 65.3582 352.459 64.8849C349.467 64.6892 346.496 64.3006 343.54 63.8011C342.829 63.6988 342.118 63.6141 341.407 63.5411C340.904 63.5089 340.372 63.4272 339.873 63.5119C339.538 62.8312 339.205 62.1534 338.894 61.4669C337.254 58.1716 335.938 54.7332 334.271 51.4496C332.655 48.0842 331.23 44.6311 329.384 41.3825C328.738 40.2403 328.132 39.0747 327.586 37.8828C327.506 37.7396 327.442 37.5848 327.38 37.427C327.603 37.3598 327.818 37.2547 328.018 37.1086C329.076 36.3169 329.258 34.8913 329.284 33.6614C329.384 31.0526 328.306 28.5578 327.069 26.3142C326.131 24.9616 325.161 23.6265 324.338 22.2009C323.801 20.9827 323.539 19.6564 322.866 18.4937C322.196 17.3047 321.291 16.253 320.315 15.3035C319.172 14.284 317.718 13.653 316.742 12.4435C315.71 11.4327 314.982 10.159 313.9 9.19788C312.542 7.97675 310.75 7.29023 308.948 7.0799C308.146 7.02439 307.312 6.85787 306.515 6.98641C306.048 5.88506 305.178 5.01741 304.276 4.24325C303.509 3.58594 302.701 2.9783 301.848 2.42908C299.915 1.25762 297.62 0.582783 295.36 0.503906C293.361 0.609075 291.257 1.31605 289.291 1.39784C287.828 1.42121 286.37 1.56436 284.91 1.72796C282.485 1.82728 280.087 1.26054 277.672 1.10279C275.776 1.00054 273.795 1.50009 272.206 2.53425C271.03 3.29089 270.046 4.31336 268.811 4.98528C267.633 5.54618 266.275 5.5082 265.032 5.86169C264.115 6.11292 263.181 6.34079 262.305 6.71765C261.456 7.10327 260.727 7.73428 260.045 8.35945C257.929 10.1795 256.698 13.3667 257.486 16.0923C257.829 17.2141 258.896 18.2541 259.834 18.7683C260.495 19.2036 261.238 19.6593 262.055 19.6418C262.149 19.6418 262.24 19.633 262.329 19.6213C262.305 20.1851 262.29 20.749 262.299 21.3157C262.146 21.9058 262.149 22.531 262.326 23.0977C262.343 23.1532 262.364 23.1971 262.387 23.2438C262.567 25.5663 263.093 27.8449 263.422 30.1499C263.719 31.7976 263.927 33.4569 264.171 35.1133C264.453 36.8165 265.018 38.4495 265.579 40.0796C266.419 42.4751 267.054 44.9349 267.983 47.2983C268.415 48.3704 268.973 49.3871 269.431 50.4505C270.251 52.3493 270.827 54.1051 271.468 55.9981C272.094 57.7217 272.491 59.6031 273.557 61.1251C274.451 61.8671 275.629 62.2119 276.705 62.6179C279.714 63.6054 282.773 63.8508 285.859 63.7806C289.168 63.4213 292.339 62.2674 295.416 61.0667C297.458 63.6346 298.519 66.74 299.812 69.7139C296.953 70.6984 294.023 71.4638 291.178 72.4951C288.66 73.4328 286.12 74.1047 283.667 75.1623C282.106 75.9423 280.619 76.8946 279.232 77.9463C276.514 80.0818 274.457 82.9243 273.064 86.0619C272.073 88.0689 271.162 90.1226 270.639 92.3048C269.434 96.681 268.659 101.157 268.362 105.685C268.059 110.242 267.557 114.793 267.495 119.365C267.483 124.916 267.371 130.478 267.762 136.02C268.097 145.103 268.526 154.191 269.593 163.224C269.837 165.041 269.981 166.867 270.049 168.699C270.084 169.058 270.084 169.496 270.104 169.94C270.075 170.025 270.046 170.107 270.013 170.183C269.822 170.723 269.546 171.342 269.232 171.792C268.894 172.312 268.606 172.87 268.2 173.341C267.753 173.846 267.204 174.234 266.651 174.614C264.374 176.16 261.756 177.106 259.143 177.907C258.529 178.061 257.862 178.205 257.665 178.73C256.733 178.593 255.793 178.52 254.847 178.573C251.076 178.602 248.249 180.112 246.063 182.54C245.493 181.798 244.435 182.557 243.729 182.777C242.674 183.063 241.616 183.314 240.567 183.612C239.495 183.898 238.41 184.144 237.361 184.503C236.509 183.945 235.574 183.495 234.652 183.11C233.115 182.534 231.449 182.438 229.835 182.245C227.364 182.035 224.807 182.128 222.556 183.264C219.999 184.223 219.647 187.135 218.78 189.358C218.351 190.27 217.628 190.994 217.019 191.783C216.014 193.031 215.239 194.503 215.068 196.11C214.939 197.754 215.256 199.469 216.164 200.871C216.864 201.947 218.271 203.895 219.594 202.919C220.079 203.442 220.872 203.767 221.507 203.954C224.108 204.605 226.82 204.836 229.497 204.83C231.913 204.745 234.331 204.739 236.744 204.585C237.144 204.547 237.546 204.511 237.949 204.476C237.629 205.277 237.323 206.083 236.964 206.869C236.177 208.636 235.313 210.369 234.546 212.148C232.221 217.573 229.929 222.977 227.857 228.502C226.318 231.841 225.213 235.352 223.805 238.744C222.265 242.489 220.487 246.132 218.871 249.845C217.681 252.436 216.282 254.925 214.986 257.461C214.21 258.814 213.372 260.137 212.758 261.577C212.514 262.1 212.235 262.612 211.938 263.108C211.938 263.108 211.938 263.11 211.938 263.114C211.474 262.974 211.013 262.834 210.548 262.696C208.8 262.173 207.166 261.347 205.414 260.83C203.713 260.33 202.058 259.667 200.38 259.1C198.256 258.273 196.172 257.216 193.88 256.944C193.045 256.851 192.511 257.797 193.081 258.437L193.051 258.44ZM238.684 187.518C235.475 186.621 232.213 185.935 228.98 185.134C227.899 184.871 226.72 184.585 225.624 184.915C224.966 185.163 224.645 185.911 224.628 186.571C224.61 187.547 225.359 188.301 226.079 188.873C228.013 190.404 230.417 191.102 232.642 192.096C233.658 192.63 234.37 193.144 235.26 193.743C233.3 193.91 231.39 193.317 229.494 192.914C227.314 192.557 225.101 191.991 222.876 192.189C220.496 192.496 220.54 194.684 222.312 195.858C223.379 196.58 224.675 196.852 225.897 197.205C227.675 197.713 229.421 198.336 231.128 199.049C227.849 200.167 224.252 199.513 220.89 200.22C220.469 200.293 220.02 200.445 219.679 200.708C219.32 200.378 218.871 200.15 218.548 199.773C217.378 198.441 217.158 196.475 217.736 194.842C218.218 193.311 219.435 192.186 220.149 190.778C221.016 189.227 221.019 187.252 222.244 185.899C224.472 184.509 227.508 184.439 229.997 184.608C231.137 184.699 232.283 184.775 233.415 184.959C234.528 185.207 235.595 185.631 236.627 186.11C237.305 186.449 237.928 186.872 238.504 187.363C238.557 187.404 238.613 187.457 238.678 187.515L238.684 187.518ZM244.734 184.208C244.2 184.976 243.715 185.812 243.262 186.691C242.91 187.34 242.522 187.968 242.128 188.593C242.116 188.611 242.11 188.634 242.098 188.651C241.423 188.418 240.747 188.19 240.071 187.95C240.088 187.918 240.106 187.883 240.124 187.842C240.129 187.757 240.124 187.679 240.106 187.603C240.159 187.468 240.185 187.325 240.182 187.179C240.182 187.021 239.936 187.021 239.941 187.179C239.668 186.682 239.333 186.238 238.957 185.835C240.944 185.569 242.842 184.851 244.74 184.205L244.734 184.208ZM300.476 71.233C300.743 71.8378 301.046 72.4308 301.287 73.0443C301.281 73.1465 301.275 73.2459 301.267 73.3423C301.258 73.5993 301.249 73.8593 301.246 74.1193C301.143 74.3969 301.137 74.727 301.225 75.0425C301.199 76.2402 301.184 77.4409 301.175 78.6387C301.19 83.0529 301.261 87.467 301.27 91.8783C301.331 95.1736 301.731 98.4455 301.816 101.738C301.869 105.585 302.304 109.035 302.377 112.816C302.322 117.505 302.657 122.176 302.921 126.853C303.288 134.028 303.488 141.208 303.879 148.38C304.182 157.776 304.22 167.174 304.514 176.569C304.532 178.281 304.479 179.99 304.461 181.701C304.432 182.449 304.34 183.451 304.708 184.062C304.69 184.322 304.673 184.561 304.626 184.743C304.652 185.4 304.161 186.604 304.661 187.124C304.196 187.179 303.729 187.226 303.262 187.273C298.701 187.933 294.108 188.298 289.509 188.564C288.527 188.207 287.534 187.88 286.538 187.553C286.47 187.533 286.405 187.509 286.335 187.486C286.799 186.916 286.32 185.97 286.1 185.225C285.918 184.491 285.727 183.758 285.615 183.01C285.262 180.028 284.745 177.068 284.307 174.1C284.016 171.345 283.514 168.652 283.273 165.935C282.509 160.022 281.751 154.197 281.195 148.272C280.649 141.939 280.516 135.57 279.729 129.254C279.414 126.175 279.023 123.116 278.753 120.037C278.204 115.863 277.151 111.776 276.446 107.63C276.367 107.265 276.387 106.839 276.094 106.57C275.853 106.377 275.5 106.365 275.282 106.608C275.074 106.844 275.053 107.169 275.033 107.47C274.989 108.364 275.05 109.26 275.136 110.151C275.403 113.207 275.814 116.266 276.223 119.275C276.505 123.365 276.978 127.437 277.428 131.512C278.098 137.346 278.259 143.224 278.844 149.067C279.529 155.766 280.84 162.383 281.662 169.064C282.015 171.109 282.274 172.99 282.535 174.997C282.952 177.466 283.343 179.937 283.664 182.42C283.799 183.58 284.102 184.713 284.29 185.862C284.313 186.142 284.34 186.463 284.404 186.767C282.744 186.104 281.11 185.385 279.411 184.819C277.24 184.024 275.08 183.177 272.846 182.56C271.471 182.175 270.09 181.812 268.732 181.371C266.311 180.477 263.807 179.887 261.277 179.411C263.228 178.833 265.147 178.137 266.96 177.217C269.282 176.019 271.001 174.6 271.6 172.049C271.606 172.049 271.612 172.049 271.618 172.049C272.273 171.962 272.805 171.316 272.688 170.647C272.649 170.434 272.62 170.221 272.599 170.001C272.573 169.359 272.611 168.713 272.62 168.073C272.711 165.833 272.455 163.291 272.297 161.196C272.138 158.772 272.02 156.344 271.973 153.913C271.888 149.455 271.627 145 271.577 140.545C271.583 138.313 271.486 136.084 271.353 133.855C271.151 128.413 271.309 122.962 271.327 117.516C271.5 113.508 271.815 109.52 272.035 105.518C272.247 101.919 272.729 98.1943 273.519 94.6974C273.925 92.448 274.562 90.257 275.565 88.1974C276.443 86.1437 277.363 84.0753 278.882 82.3956C280.643 80.3974 282.858 78.8607 285.177 77.5724C287.152 76.696 289.191 75.9744 291.166 75.098C291.866 74.7942 292.571 74.4991 293.276 74.2099C291.663 75.8926 290.243 77.7301 289.127 79.778C288.301 81.2504 287.416 82.7023 286.773 84.2594C286.235 85.4016 286.614 86.4767 287.493 87.321C289.588 89.4711 291.963 91.3612 294.328 93.2104C292.295 94.4403 290.235 95.6527 288.339 97.0871C286.979 98.4806 288.533 103.543 288.806 105.284C289.427 108.378 290.094 111.46 290.646 114.566C291.466 118.019 292.304 121.466 293.1 124.925C294.093 129.205 295.116 133.487 296.421 137.682C297.041 140.212 297.784 142.713 298.41 145.243C298.839 147.262 299.312 149.271 299.871 151.261C300.073 151.974 300.25 152.692 300.45 153.405C300.573 153.835 301.034 154.092 301.458 153.975C302.568 153.586 301.778 152.304 301.634 151.524C301.361 150.571 301.134 149.61 300.908 148.646C300.361 146.479 300.097 144.244 299.474 142.091C298.872 139.552 298.348 136.996 297.69 134.469C296.764 130.049 295.971 125.719 295.037 121.337C294.431 118.089 293.432 114.94 292.882 111.679C292.309 109.088 291.678 106.511 291.087 103.926C290.687 102.121 290.12 100.318 290.099 98.4572C291.475 97.7941 292.733 96.9294 294.017 96.1172C295.01 95.4044 296.253 94.8961 297 93.9087C297.399 93.263 297.023 92.4042 296.306 92.1967C294.981 91.1538 293.955 90.1401 292.691 89.1001C291.319 87.9111 289.82 86.8331 288.677 85.4133C290.235 82.9565 291.707 80.4412 293.253 77.9726C294.369 76.3337 295.592 74.765 296.809 73.3539C297.05 73.018 297.385 72.8018 297.578 72.4921C298.551 72.089 299.53 71.6975 300.476 71.2301V71.233ZM307.22 159.09C307.173 153.221 306.938 147.361 306.639 141.501C306.45 133.102 306.007 124.712 305.631 116.316C305.631 112.687 305.46 109.071 305.131 105.457C304.949 101.276 304.482 97.1192 304.105 92.9534C303.95 89.9473 303.791 86.9412 303.597 83.938C304.052 84.8963 304.543 85.834 305.002 86.763C306.177 89.0855 307.223 91.3729 308.707 93.5347C309.087 94.1424 309.451 94.7646 309.868 95.3518C310.147 95.7374 310.479 96.1727 310.988 96.2487C311.814 96.383 312.231 95.5651 312.51 94.937C313.838 91.7468 314.761 88.396 315.754 85.092C315.966 84.1893 316.192 83.2924 316.436 82.3985C317.23 79.48 318.199 76.6142 319.466 73.8652C320.968 76.8683 322.84 79.6816 324.441 82.6264C325.167 83.9585 325.837 85.314 326.393 86.7279C327.553 89.439 328.488 92.2435 329.117 95.1239C329.276 96.3013 330.084 97.3705 331.268 96.4064C332.552 94.9545 333.263 93.079 334.245 91.4197C334.918 90.1752 335.62 88.9423 336.349 87.73C337.093 86.4942 337.924 85.3082 338.594 84.0257C338.809 83.5875 339.026 83.1464 339.241 82.7023C338.988 89.3221 338.962 96.0938 338.488 102.562C337.886 112.705 336.614 122.684 336.117 132.821C335.896 138.348 335.353 143.452 334.9 148.886C334.7 151.129 334.324 153.35 334.045 155.582C333.684 159.07 333.237 162.643 332.975 166.131C332.808 169.484 332.255 172.8 332.041 176.148C331.406 176.94 330.736 177.705 329.984 178.392C328.976 179.283 327.794 179.931 326.654 180.629C326.146 180.957 325.62 181.252 325.082 181.523C323.927 182.108 322.722 182.59 321.517 183.069C321.391 183.121 321.27 183.171 321.144 183.221C319.66 183.828 318.158 184.404 316.601 184.786C313.392 185.604 310.159 186.329 306.885 186.826C307.015 186.116 306.894 185.251 306.938 184.649C306.929 184.386 306.927 184.126 306.927 183.863C306.997 183.703 307.035 183.533 307.032 183.352C307.018 182.245 307.012 181.138 307.05 180.028C307.144 177.79 307.182 175.546 307.188 173.3C307.126 168.564 307.297 163.826 307.22 159.087V159.09ZM303.362 73.3335C305.216 73.205 307.147 73.1816 308.96 72.9859C311.993 72.8135 315.032 72.7259 318.058 72.4863C318.041 72.5243 318.023 72.5564 318.003 72.5915C317.08 74.5429 316.113 76.4798 315.34 78.4985C314.526 80.5025 313.968 82.5884 313.406 84.6713C312.472 87.5255 311.74 90.4322 310.844 93.2981C310.047 91.9367 309.11 90.6572 308.387 89.252C307.843 88.0981 307.294 86.9441 306.691 85.8194C306.077 84.4259 305.301 83.0996 304.781 81.6652C304.429 80.634 304.117 79.5881 303.885 78.5248C303.712 77.6337 303.579 76.7281 303.506 75.8225C303.479 75.3931 303.471 74.9636 303.468 74.5342C303.468 74.2859 303.382 74.0551 303.247 73.8681C303.333 73.7016 303.374 73.5175 303.359 73.3335H303.362ZM339.861 69.1413C338.773 69.1968 337.692 69.3195 336.608 69.3926C334.371 69.5211 332.132 69.3429 329.893 69.4072C327.609 69.5386 325.32 69.7022 323.028 69.7081C321.497 69.7081 319.969 69.7986 318.449 70.009C315.422 70.3391 312.387 70.5261 309.398 70.713C307.852 70.8503 306.312 71.0256 304.758 71.0548C304.058 71.0928 303.362 71.0782 302.662 71.0986C302.627 71.0986 302.592 71.1103 302.557 71.1162C302.427 70.7715 302.298 70.4297 302.169 70.0849C302.26 69.9301 302.304 69.7607 302.286 69.562C302.26 69.2845 302.022 69.0742 301.76 69.0274C301.596 68.6126 301.434 68.1977 301.272 67.7858C300.388 65.4663 299.633 63.0824 298.237 61.0024C297.437 59.7842 296.327 57.5231 294.549 58.5193C292.013 59.6089 289.406 60.5555 286.732 61.2537C284.992 61.613 283.208 61.4757 281.448 61.4231C279.94 61.2829 278.43 61.0316 276.999 60.5321C276.202 60.2516 275.418 59.9537 274.651 59.5914C274.598 59.533 274.557 59.4658 274.51 59.4015C273.913 58.3732 273.684 57.1725 273.287 56.0624C272.761 54.4498 272.241 52.8343 271.638 51.2509C270.989 49.3988 270.002 47.6927 269.334 45.8464C268.353 42.6563 267.357 39.4749 266.355 36.2935C266.205 35.5573 266.064 34.8182 265.929 34.0791C266.087 34.2106 266.246 34.3391 266.405 34.456C267.897 35.3558 269.796 35.4259 271.456 35.0111C273.14 34.7452 275.071 33.6994 275.144 31.8063C275.174 30.7897 274.607 29.6474 273.698 29.1566C272.364 26.9101 269.476 25.5984 267.195 27.3512C266.369 27.9326 265.635 28.733 265.138 29.6445C265.05 29.1596 264.962 28.6775 264.868 28.1955C264.932 28.1955 265 28.178 265.07 28.1605C265.755 27.9267 265.87 27.0737 266.352 26.6092C267.319 25.7007 268.864 25.5517 270.134 25.7533C271.277 26.0308 272.244 26.7582 273.19 27.4243C273.525 27.6288 273.831 27.9589 274.23 28.0173C274.748 27.9414 274.377 27.3717 274.145 27.1701C272.109 24.8652 269.872 23.3344 266.704 24.4211C265.732 24.6548 264.979 25.3413 264.459 26.1681C264.392 25.8438 264.321 25.5195 264.245 25.1953C264.121 24.5935 264.01 23.9946 263.913 23.3899C264.471 22.8991 264.982 22.3411 265.641 21.9788C266.972 21.4209 268.503 21.5173 269.893 21.789C270.998 22.0081 272.044 22.4404 273.067 22.8962C273.449 23.0656 273.919 22.9312 274.169 22.6069C274.565 22.0753 274.301 21.3712 273.922 20.9096C271.289 17.7107 266.869 17.1966 263.472 19.5103C263.457 19.3087 263.448 19.1013 263.439 18.8997C263.754 18.3856 263.792 17.7078 263.507 17.1703C263.583 16.7642 263.545 16.3085 263.651 15.9287C264.209 13.6237 265.379 11.944 267.38 10.6644C270.163 8.75384 273.534 10.5183 276.561 10.5943C279.676 10.7111 282.3 8.7071 285.239 8.00597C286.626 7.80731 288.048 7.97968 289.424 8.2017C291.013 8.55226 292.542 9.21541 293.917 10.0772C296.097 11.6869 298.448 14.059 301.422 13.3696C301.358 13.4514 301.434 13.5799 301.534 13.5682C301.014 14.9997 300.964 16.5889 301.126 18.0905C301.793 21.5903 304.84 24.167 308.026 25.4728C308.646 27.3103 308.778 29.0894 309.125 30.9591C309.239 32.3088 309.68 32.6389 311.035 32.6009C311.693 32.5834 312.36 32.5776 313.016 32.4724C313.365 32.4519 313.721 32.3059 313.888 31.9758C314.732 29.3787 313.374 25.727 316.442 24.24C317.421 23.6382 318.426 24.4474 319.158 25.0726C319.637 25.5254 320.166 25.9753 320.401 26.6063C320.818 27.9793 320.709 29.5306 319.807 30.6874C318.749 31.1578 319.675 32.1656 320.118 32.7353C320.53 33.2874 320.947 33.8337 321.376 34.3684C322.428 35.6538 323.63 37.0531 325.344 37.3978C325.573 37.4562 325.811 37.503 326.052 37.5322C326.072 37.614 326.099 37.6958 326.116 37.7717C326.687 39.5801 327.512 41.292 328.268 43.0302C329.946 47.1698 331.641 51.2976 333.572 55.3233C334.774 58.1132 335.911 60.9265 337.272 63.6463C337.948 65.0047 338.644 66.2404 339.247 67.6076C339.47 68.1101 339.67 68.6272 339.858 69.1472L339.861 69.1413ZM267.839 28.9375C269.393 27.3804 271.638 28.2218 272.89 29.7205C272.896 30.3252 273.587 30.6962 273.646 31.3068C273.895 33.3313 270.751 34.0032 269.208 33.9652C267.78 33.9477 266.437 33.1764 265.832 31.8735C266.172 30.7488 266.986 29.7059 267.842 28.9405L267.839 28.9375ZM339.908 71.0285C339.893 71.6011 339.875 72.1708 339.843 72.7434C339.864 73.4387 339.417 75.022 339.705 75.8751C339.605 76.9501 339.499 78.0252 339.42 79.1003C338.682 80.3886 337.968 81.6944 337.14 82.9272C334.715 86.1057 332.417 89.3805 330.683 92.9913C329.581 89.065 328.041 85.241 326.213 81.5922C324.909 79.3106 323.795 76.9297 322.411 74.6948C321.914 73.8798 321.464 73.0384 320.974 72.2205C322.284 72.1679 323.592 72.2 324.903 72.165C326.998 72.1182 329.082 71.8553 331.18 71.8348C334.11 71.8261 337.04 71.5953 339.914 71.0315L339.908 71.0285ZM310.427 215.808C306.071 214.675 301.71 213.568 297.302 212.647C294.425 212.054 291.595 211.292 288.777 210.474C287.287 210.121 285.777 209.852 284.301 209.428C278.215 207.81 272.023 206.486 266.175 204.105C264.453 203.451 262.608 203.258 260.836 202.776C259.443 202.399 258.038 201.993 256.622 201.733C256.237 201.415 255.737 201.199 255.299 201C253.116 200.062 250.65 200.284 248.396 199.574C248.434 197.267 249.051 195.002 249.01 192.683V192.47C249.319 192.47 249.622 192.455 249.91 192.487C250.685 192.499 251.461 192.487 252.24 192.499C253.833 192.566 255.423 192.513 257.015 192.551C258.126 192.616 259.237 192.706 260.351 192.683C262.555 192.519 264.759 192.513 266.969 192.616C268.726 192.645 270.445 192.478 272.188 192.35C274.298 192.166 276.411 192.303 278.524 192.224C286.826 191.497 295.186 191.298 303.43 190.016C308.149 189.504 312.781 188.514 317.385 187.386C319.739 186.846 321.938 185.835 324.177 184.962C326.422 184.141 328.464 182.89 330.519 181.684C333.645 179.741 335.506 176.437 337.633 173.545C338.988 171.664 340.04 169.601 341.31 167.667C342.512 165.681 343.831 163.753 344.727 161.602C345.453 159.61 346.211 157.629 346.923 155.634C347.98 152.406 348.889 149.131 350.055 145.938C351.178 142.579 351.701 139.064 352.659 135.658C353.258 133.487 353.878 131.32 354.551 129.17C355.768 125.795 356.964 122.407 357.614 118.872C358.069 116.687 358.507 114.498 359.192 112.369C359.876 110.239 360.776 108.171 361.125 105.948C361.169 105.673 360.814 105.463 360.591 105.644C359.97 106.237 359.756 107.151 359.362 107.899C358.269 110.245 357.082 112.746 356.326 115.197C355.692 117.163 355.198 119.167 354.557 121.13C353.829 123.359 352.888 125.506 352.077 127.703C351.278 129.935 350.611 132.219 349.938 134.489C348.915 137.916 348.36 141.466 347.261 144.869C345.292 150.452 344.016 156.23 341.695 161.652C340.601 163.852 339.229 165.894 337.845 167.918C336.84 169.519 335.788 171.082 334.677 172.616C334.797 171.88 334.921 171.144 335.065 170.41C335.415 168.406 335.523 166.37 335.888 164.369C336.613 161.188 336.934 157.939 337.404 154.72C337.742 152.505 338.098 150.294 338.236 148.059C338.453 144.626 338.865 141.206 339.003 137.77C339.158 132.336 339.602 126.92 340.043 121.504C340.284 118.057 340.704 114.624 340.989 111.177C341.213 107.803 341.351 104.42 341.462 101.04C341.65 94.2563 341.362 87.4758 341.251 80.6983C341.233 79.1295 341.274 77.5607 341.295 75.9949C342.056 75.025 341.906 72.9742 341.994 71.9166C341.994 71.6011 341.994 71.2798 341.988 70.9613C342.976 70.3683 342.241 69.0595 341.927 68.1335C341.909 67.6807 341.88 67.2308 341.85 66.7838C341.812 66.4186 341.792 66.0038 341.559 65.7117C342.379 65.8957 343.208 66.0564 344.01 66.2784C345.133 66.5647 346.255 66.8189 347.39 67.0467C347.487 67.2162 347.613 67.3739 347.725 67.5317C349.714 70.4472 350.431 73.9499 351.501 77.254C352.715 80.8268 353.917 84.4113 355.004 88.025C353.22 88.6765 351.319 88.9365 349.438 89.1351C348.307 89.29 346.99 89.439 346.07 90.0758C345.218 91.0632 346.485 91.8491 347.24 92.3428C347.954 92.8424 348.674 93.3361 349.397 93.8269C350.884 94.8172 352.318 95.8806 353.667 97.052C354.096 97.4581 354.687 97.8058 354.619 98.4689C354.675 101.96 353.679 105.366 352.897 108.74C352.186 112.077 351.589 115.281 350.766 118.562C349.838 122.31 349.194 126.137 347.98 129.812C346.737 133.56 345.953 137.443 344.642 141.173C343.746 143.718 342.617 146.175 341.683 148.708C341.066 150.571 340.528 152.462 339.779 154.284C339.508 155.003 339.197 155.701 338.87 156.397C338.453 157.393 339.967 158.117 340.454 157.063C341.583 154.492 342.55 151.863 343.334 149.172C344.284 146.625 345.309 144.104 346.2 141.533C347.011 138.845 347.854 136.166 348.507 133.435C348.974 131.553 349.676 129.739 350.196 127.872C350.716 126.006 351.143 124.116 351.586 122.231C352.721 117.665 353.758 113.035 354.754 108.454C355.227 106.584 355.7 104.712 356.021 102.807C356.241 101.212 357.023 97.7269 355.789 96.57C353.97 94.5981 351.742 93.0878 349.535 91.5891C351.589 91.443 353.635 90.961 355.542 90.1781C357.19 89.5295 357.543 88.6473 357.243 86.9558C356.941 85.0803 356.25 83.2953 355.727 81.4783C355.11 79.4479 354.328 77.476 353.596 75.4865C352.638 72.7784 351.801 69.936 350.146 67.5609C351.448 67.78 352.753 67.9728 354.058 68.1451C359.885 69.0362 365.839 69.5065 371.493 71.2418C373.959 72.1708 376.457 73.0005 378.972 73.7775C381.297 74.6218 383.504 75.7553 385.74 76.807C389.093 78.4634 391.914 81.0284 394.465 83.716C398.285 88.212 400.775 93.7217 402.253 99.3891C403.19 102.655 403.822 106.006 404.154 109.386C404.236 110.195 404.298 111.007 404.342 111.82C404.422 113.172 404.451 114.531 404.433 115.886C404.366 122.453 405.206 128.991 405.221 135.556C405.221 135.868 405.221 136.187 405.221 136.502C405.23 137.27 405.238 138.039 405.244 138.807C405.38 152.28 405.432 165.763 404.727 179.221C404.145 187.015 403.854 194.83 402.761 202.58C401.985 210.229 401.371 217.953 399.693 225.464C396.605 225.934 393.563 226.737 390.439 226.933C385.696 227.453 380.924 227.269 376.16 227.237C373.415 227.067 370.685 226.988 367.961 226.6C366.162 226.296 364.408 225.916 362.642 225.493C358.492 224.275 354.249 223.223 350.334 221.35C350.011 221.222 349.711 221.222 349.459 221.312C348.439 220.629 347.44 219.857 346.37 219.261C346.62 219.139 346.87 219.013 347.116 218.879C348.947 217.956 350.775 217.012 352.383 215.727C355.695 213.045 358.807 209.98 361.466 206.738C363.497 204.678 365.254 202.388 367 200.086C374.529 190.688 380.571 180.22 386.06 169.546C387.386 166.718 388.614 163.843 389.76 160.936C390.789 158.106 391.738 155.243 392.89 152.456C394.462 148.264 395.761 143.966 396.995 139.666C397.733 136.794 398.2 133.861 399.055 131.019C399.675 128.933 399.852 126.754 400.251 124.621C400.61 122.868 401.11 121.147 401.606 119.43C401.762 119.015 401.733 118.474 401.356 118.182C401.289 117.878 400.989 117.624 400.672 117.759C400.416 117.864 400.284 118.214 400.46 118.445C398.227 122.012 397.68 126.277 396.505 130.245C395.614 133.064 395.003 135.956 394.142 138.781C392.467 144.39 390.419 149.873 388.226 155.298C387.206 158.266 386.143 161.217 384.894 164.097C382.969 169.017 380.204 173.536 377.87 178.266C374.408 184.579 370.688 190.752 366.371 196.53C364.293 199.244 362.327 202.06 359.962 204.541C358.46 206.2 357.279 207.722 355.721 209.241C354.757 210.164 353.746 211.041 352.879 211.806C350.816 213.696 348.424 215.157 345.882 216.323C341.962 218.294 337.527 219.01 333.163 218.841C331.327 218.785 329.487 218.809 327.662 218.581C325.808 218.341 323.968 217.985 322.111 217.763C318.179 217.363 314.265 216.802 310.432 215.814L310.427 215.808ZM255.934 336.767C256.148 335.018 256.348 333.268 256.501 331.512C256.698 329.698 256.736 327.878 256.813 326.058C257.015 323.691 257.212 321.325 257.268 318.953C257.297 318.179 257.318 317.405 257.362 316.633C257.374 316.265 257.427 315.833 257.462 315.395C257.824 315.424 258.185 315.441 258.546 315.444C260.189 315.433 261.826 315.585 263.466 315.558C264.347 315.547 265.229 315.62 266.111 315.684C266.757 315.707 267.43 315.815 268.071 315.71C267.748 320.13 267.23 324.539 266.828 328.953C266.663 332.467 266.581 335.982 266.469 339.499V339.543C266.081 339.411 265.641 339.365 265.261 339.242C263.974 338.923 262.667 338.52 261.403 338.161C259.584 337.691 257.806 337.033 255.937 336.773L255.934 336.767ZM238.992 201.143C237.232 201.316 235.483 201.584 233.729 201.8C230.508 202.186 227.284 202.82 224.028 202.554C222.988 202.449 221.892 202.399 220.937 201.926C224.366 201.251 227.969 201.859 231.36 200.886C232.724 200.489 234.763 199.124 233.053 197.772C231.998 197.012 230.684 196.697 229.465 196.291C228.613 196.016 227.755 195.762 226.888 195.546C225.518 195.122 223.828 195.096 222.779 194.018C223.441 193.866 224.131 193.922 224.804 193.948C227.405 194.076 229.959 194.555 232.509 195.043C233.791 195.23 235.142 195.42 236.412 195.058C237.752 194.672 237.955 193.448 236.938 192.543C235.428 191.1 233.588 190.074 231.587 189.469C229.991 188.812 227.164 188.073 226.206 186.618C228.131 186.896 229.959 187.608 231.848 188.053C234.461 188.722 237.076 189.399 239.659 190.176C240.852 190.6 242.066 190.951 243.292 191.263C244.203 191.508 245.119 191.745 246.019 192.014C246.019 193.761 245.945 195.505 245.678 197.237C245.613 198.309 245.325 199.799 245.648 200.947C243.427 200.93 241.205 201.029 238.992 201.131V201.143ZM216.596 259.401C218.868 255.656 220.887 251.762 222.644 247.745C223.311 246.378 223.981 245.01 224.645 243.64C227.943 245.682 231.357 247.537 234.628 249.629C233.623 251.855 232.474 254.008 231.372 256.187C229.988 259.328 228.416 262.375 226.917 265.46C226.832 265.606 226.75 265.752 226.664 265.898C226.262 265.349 225.477 264.841 225.048 264.531C222.48 262.743 219.579 261.452 217.052 259.611C216.899 259.512 216.746 259.445 216.599 259.401H216.596Z" fill="#1B1B1B"/>
<path d="M316.881 237.789C317.128 237.593 317.134 237.199 316.863 237.009C316.614 236.848 316.314 236.784 316.043 236.664C315.197 236.34 314.36 235.998 313.522 235.651C309.229 233.67 304.724 232.218 300.421 230.255C295.032 227.941 289.642 225.63 284.308 223.194C280.003 221.4 275.692 219.612 271.434 217.708C268.445 216.481 265.445 215.257 262.524 213.889C261.507 213.325 260.649 214.874 261.748 215.397C263.878 216.221 265.953 217.176 268.075 218.029C271.346 219.294 274.552 220.711 277.793 222.052C281.002 223.305 284.208 224.558 287.344 225.987C290.612 227.371 293.841 228.838 297.121 230.191C300.43 231.587 303.689 233.115 307.092 234.278C309.74 235.242 312.332 236.521 314.971 237.482C315.376 237.625 315.623 237.725 316.008 237.83C316.284 237.906 316.637 237.999 316.887 237.789H316.881Z" fill="white"/>
<path d="M245.442 249.781C245.748 247.152 246.544 244.61 246.841 241.981C247.241 239.466 247.264 236.915 247.552 234.391C247.858 231.511 248.219 228.633 248.684 225.773C249.001 224.061 249.086 221.929 250.732 220.909C251.596 220.345 252.716 219.852 253.703 219.679C255.372 219.329 257.083 219.259 258.784 219.273C260.938 219.244 263.092 219.264 265.243 219.334C266.481 219.387 267.715 219.334 268.949 219.27C269.408 219.235 269.884 219.314 270.327 219.174C270.659 219.048 270.786 218.598 270.562 218.315C269.957 217.666 268.855 217.848 268.044 217.798C266.592 217.824 265.149 217.704 263.701 217.602C259.439 217.506 254.934 216.989 250.905 218.66C249.457 219.221 248.072 220.15 247.441 221.61C246.821 222.937 246.624 224.4 246.365 225.826C246.098 227.257 245.948 228.703 245.813 230.152C245.363 233.699 245.292 237.272 245.131 240.839C245.054 241.884 245.034 242.933 244.972 243.979C244.822 245.489 244.534 246.988 244.27 248.484C244.193 248.817 244.105 249.147 244.008 249.471C243.761 250.438 245.237 250.806 245.442 249.781Z" fill="white"/>
<path d="M271.351 247.753C271.724 247.742 271.98 247.341 271.75 247.023C271.589 246.778 271.145 246.687 270.925 246.596C270.307 246.374 269.702 246.126 269.12 245.819C268.206 245.346 267.348 244.776 266.566 244.107C266.082 243.666 265.514 242.822 264.792 243.354C263.766 244.33 265.432 245.264 266.17 245.758C267.73 246.722 269.467 247.727 271.351 247.75V247.753Z" fill="white"/>
<path d="M259.385 251.148C260.49 250.794 261.157 249.69 262.285 249.345C263.752 248.849 265.33 248.805 266.831 248.446C267.213 248.332 267.698 248.302 267.963 247.975C268.263 247.105 266.729 247.4 266.252 247.4C264.604 247.575 262.876 247.511 261.315 248.13C260.343 248.51 259.529 249.167 258.735 249.827C258.465 250.026 258.368 250.4 258.494 250.707C258.638 251.057 259.026 251.233 259.382 251.148H259.385Z" fill="white"/>
<path d="M262.537 256.304C263.918 255.2 264.988 253.78 266.04 252.378C266.287 252.045 266.528 251.712 266.763 251.373C266.88 251.2 267.051 251.019 267.051 250.797C267.065 250.578 266.792 250.423 266.61 250.54C266.466 250.619 266.237 250.599 266.237 250.823C264.706 252.258 263.31 253.844 261.532 254.989C260.677 255.658 261.661 256.944 262.537 256.301V256.304Z" fill="white"/>
<path d="M257.522 213.708C257.792 213.395 257.328 213.161 257.098 213.021C255.356 211.853 253.496 210.632 252.805 208.584C252.634 207.339 250.924 207.623 251.271 208.826C251.38 209.089 251.509 209.343 251.656 209.586C252.514 211.084 253.836 212.148 255.323 212.951C255.82 213.173 257.051 214.061 257.524 213.708H257.522Z" fill="white"/>
<path d="M247.615 214.298C249.555 213.954 251.547 213.927 253.499 214.138C253.763 214.146 254.028 214.199 254.289 214.164C254.451 214.155 254.504 213.962 254.424 213.846C254.357 213.746 254.239 213.717 254.133 213.682C252.852 213.352 251.588 213.121 250.281 212.975C249.282 212.92 248.235 212.651 247.257 212.928C246.493 213.22 246.807 214.415 247.618 214.295L247.615 214.298Z" fill="white"/>
<path d="M313.444 19.6389C314.32 19.5717 315.915 19.1481 316.218 18.2366C316.233 18.0175 315.992 17.8686 315.789 17.9299C315.58 18.0088 315.398 18.1519 315.193 18.2425C314.684 18.4879 314.135 18.631 313.573 18.6865C312.933 18.7216 312.304 18.6106 311.672 18.5288C311.449 18.4996 311.228 18.634 311.166 18.8531C311.102 19.0809 311.237 19.3614 311.481 19.414C312.125 19.5571 312.786 19.6769 313.45 19.636L313.444 19.6389Z" fill="white"/>
<path d="M312.02 16.9014C312.546 16.8021 314.2 16.5537 314.315 15.987C314.315 15.8789 314.218 15.7884 314.109 15.803C313.471 16.0454 312.775 16.1769 312.081 16.2266C310.809 16.3259 309.692 15.4758 308.435 15.5108C307.964 15.5692 306.977 15.5313 307.08 16.2207C307.271 16.7991 307.958 16.396 308.387 16.4135C309.616 16.3902 310.777 17.0738 312.017 16.9043L312.02 16.9014Z" fill="white"/>
<path d="M306.886 13.4774C307.765 13.3693 308.679 13.2291 309.56 13.3781C309.687 13.3927 309.801 13.4862 309.931 13.4511C310.042 13.4219 310.119 13.3197 310.122 13.2086C310.001 12.49 307.409 12.7149 306.792 12.7237C306.295 12.7821 306.389 13.5358 306.883 13.4774H306.886Z" fill="white"/>
<path d="M299.52 8.21028C299.664 8.14601 299.741 7.95612 299.635 7.82466C299.535 7.70489 299.382 7.69904 299.253 7.66983C298.392 7.47994 297.654 7.2141 296.881 6.84308C295.697 6.19162 294.707 5.2451 293.472 4.6842C292.911 4.44172 292.3 4.3015 291.692 4.24015C291.568 4.22846 291.445 4.25184 291.345 4.32779C291.145 4.47386 291.104 4.77768 291.257 4.97049C291.483 5.22757 291.883 5.17791 292.191 5.26847C292.626 5.35319 293.073 5.49926 293.446 5.69791C294.721 6.40196 295.818 7.42444 297.228 7.86848C297.954 8.08174 298.768 8.40894 299.52 8.21028Z" fill="white"/>
<path d="M297.615 5.05576C297.841 4.69643 296.504 3.98654 296.231 3.77912C295.284 3.22698 294.312 2.63395 293.198 2.51125C292.695 2.50541 291.47 2.19574 291.414 2.929C291.411 3.16563 291.614 3.39934 291.864 3.38766C293.836 3.10136 295.637 4.05373 297.286 5.00901C297.327 5.13171 297.535 5.15216 297.612 5.05576H297.615Z" fill="white"/>
<path d="M276.347 6.65972C276.658 6.61297 278.877 6.39679 278.242 5.84173C277.778 5.76578 277.24 5.91477 276.779 5.91769C276.209 5.96151 275.647 5.8651 275.104 5.69567C274.566 5.57589 272.614 4.81634 272.553 5.71612C272.562 6.26825 273.226 6.13971 273.605 6.21567C274.522 6.34129 275.409 6.73859 276.35 6.65972H276.347Z" fill="white"/>
<path d="M276.805 4.25773C277.501 3.63256 274.81 3.30829 274.445 3.21773C274.028 3.19436 273.508 3.04829 273.146 3.31121C272.852 3.57706 273.067 4.12627 273.469 4.10874C274.26 4.05324 275.053 4.07953 275.838 4.19346C276.153 4.20223 276.502 4.37167 276.802 4.25773H276.805Z" fill="white"/>
<path d="M243.721 179.352C243.821 179.934 243.742 180.684 243.327 181.134C243.571 189.638 243.536 198.151 242.778 206.632C242.657 208.002 242.516 209.375 242.352 210.745C242.261 218.157 242.804 225.486 242.078 232.875C242.402 239.716 241.658 246.476 240.827 253.254C240.782 260.736 241.223 268.208 240.292 275.667C240.509 283.858 239.484 291.968 239.201 300.119C239.704 305.061 239.742 309.99 239.146 314.921C238.264 324.15 239.254 333.387 238.552 342.595C238.023 347.077 237.788 351.596 237.753 356.106C237.999 363.287 237.485 370.389 236.577 377.479C236.38 379.001 236.166 380.526 235.939 382.048C235.343 384.508 236.192 393.018 231.925 389.147C229.897 389.518 229.568 386.757 229.512 384.791C229.274 384.192 229.113 383.448 229.571 382.904C229.636 382.27 229.689 381.633 229.742 380.999C230.764 368.236 229.51 355.47 230.638 342.715C230.911 335.21 230.088 327.366 230.976 319.937C231.543 305.21 231.661 290.446 232.722 275.746C233.156 258.626 233.38 241.504 234.626 224.414C234.455 218.835 233.897 213.234 233.494 207.631C233.027 201.172 232.76 194.713 233.527 188.283C233.947 185.721 233.903 183.203 233.774 180.67C233.697 179.197 233.591 177.722 233.533 176.232C233.494 175.812 233.668 175.28 234.153 175.289C234.435 175.312 234.494 175.625 234.723 175.733C236.654 174.424 239.028 174.088 241.018 172.911C240.938 172.087 241.502 170.904 242.493 171.161C243.577 171.693 243.457 173.761 243.704 175.268C243.765 175.645 243.848 175.981 243.98 176.256C244.291 177.264 244.747 178.59 243.721 179.352Z" fill="#00A91C"/>
</svg>
