<svg width="289" height="348" viewBox="0 0 289 348" fill="none" xmlns="http://www.w3.org/2000/svg">
<path d="M68.5081 95.8799C66.6789 95.3345 64.7757 96.292 64.2316 98.0614C63.6211 99.895 64.5689 101.805 66.4081 102.35C68.1216 103.029 70.0986 101.926 70.6845 100.169C71.2286 98.3995 70.2734 96.4919 68.5081 95.8799Z" fill="#8ABD56"/>
<path d="M94.1855 56.8026C92.6861 57.8934 92.3463 60.0058 93.4345 61.5703C94.5695 63.0806 96.6967 63.3348 98.1911 62.3205C99.6831 61.2298 100.023 59.0507 98.9396 57.5553C97.78 56.0598 95.6774 55.7118 94.1855 56.8026Z" fill="#8ABD56"/>
<path d="M146.342 44.4863C146.389 39.9925 139.121 40.0049 139.212 44.4863C139.172 46.2952 140.903 48.1362 142.74 47.8228C142.814 47.8228 142.88 47.8894 142.88 47.8894H142.947C144.783 47.8894 146.275 46.3199 146.342 44.4863Z" fill="#8ABD56"/>
<path d="M189.267 63.1398C190.355 63.1398 191.369 62.6611 192.051 61.7751C193.132 60.2056 192.795 58.1006 191.301 57.0099C187.812 54.3323 183.695 59.8281 187.295 62.4538C187.905 62.9325 188.583 63.1398 189.264 63.1398H189.267Z" fill="#8ABD56"/>
<path d="M217.859 102.827C218.199 102.827 218.536 102.753 218.947 102.686C220.713 102.074 221.66 100.167 221.116 98.3998C220.506 96.5563 218.603 95.6087 216.837 96.1516C215.072 96.7636 214.053 98.6712 214.661 100.438C215.139 101.934 216.434 102.824 217.857 102.824L217.859 102.827Z" fill="#8ABD56"/>
<path d="M12.2312 315.855H3.39509C1.51905 315.855 0 317.378 0 319.258V331.516C0 340.153 7.01177 347.179 15.6263 347.179H272.501C281.116 347.179 288.127 340.153 288.127 331.516V319.258C288.127 317.375 286.608 315.855 284.732 315.855H275.899V161.222C275.899 153.624 270.879 147.252 264.012 145.07C278.073 70.5878 218.234 -0.767981 142.606 0.00690109C66.5453 -0.812401 6.58338 71.4515 21.3849 146.205C15.971 149.053 12.2312 154.677 12.2312 161.222V315.855ZM142.606 6.81303C214.181 6.06776 270.78 73.7515 257.279 144.204H244.063C257.468 81.0956 207.101 19.1889 142.606 19.9293C78.129 19.184 27.7369 81.103 41.1572 144.204C40.7042 144.221 27.8378 144.125 27.9609 144.33C14.3805 73.8428 70.9818 6.06529 142.606 6.81303ZM141.831 62.5823C139.952 62.5823 138.436 64.1049 138.436 65.9854V124.074C138.436 124.978 138.793 125.844 139.43 126.48L157.107 144.204H48.1246C34.5344 84.9503 81.854 25.9877 142.609 26.7379C203.349 25.9852 250.703 84.9552 237.095 144.204H166.709L145.226 122.665V65.9854C145.226 64.1025 143.707 62.5823 141.831 62.5823ZM19.0214 161.222C19.0312 155.536 23.7829 150.948 29.379 151.01C34.2168 151.005 45.2515 151.013 49.8751 151.01C60.7522 151.018 150.677 151.005 163.898 151.01C191.282 151.015 228.638 151.005 255.841 151.01C262.397 150.181 269.074 153.897 269.104 161.222V315.855H19.0214V161.222ZM272.499 322.664H281.332V331.518C281.332 336.397 277.366 340.373 272.499 340.373H15.6263C10.7589 340.373 6.79265 336.397 6.79265 331.518V322.664H272.501H272.499Z" fill="#1FA8B6"/>
<path d="M248.037 168.727C235.73 168.759 152.192 168.702 137.957 168.727C136.081 168.727 134.561 170.249 134.561 172.13C134.552 176.261 134.569 224.644 134.561 227.011V240.127C134.768 242.948 133.36 249.068 137.957 249.097H248.037C249.916 249.097 251.432 247.575 251.432 245.694V172.13C251.425 170.269 249.83 168.796 248.037 168.727ZM244.642 180.098V242.291H141.352V175.533H244.642V180.098Z" fill="#8ABD56"/>
<path d="M223.575 217.769C206.888 217.769 182.172 217.769 165.453 217.769C160.388 218.055 161.203 225.313 166.285 224.575C175.291 224.575 205.231 224.575 213.703 224.575H223.575C227.997 224.56 228.032 217.783 223.575 217.766V217.769Z" fill="#8ABD56"/>
<path d="M165.385 200.05H197.499C201.931 200.035 201.948 193.261 197.499 193.244H165.385C160.953 193.261 160.936 200.033 165.385 200.05Z" fill="#8ABD56"/>
<path d="M216.763 200.05H223.184C227.62 200.033 227.625 193.261 223.184 193.244C221.677 193.254 218.233 193.239 216.763 193.244C212.307 193.271 212.383 199.941 216.763 200.05Z" fill="#8ABD56"/>
<path d="M248.032 266.809H205.223C203.345 266.809 201.828 268.331 201.828 270.212V294.736C201.828 296.617 203.347 298.139 205.223 298.139H248.032C249.911 298.139 251.427 296.617 251.427 294.736V270.212C251.427 268.331 249.908 266.809 248.032 266.809ZM244.637 291.333H208.618V273.617H244.637V291.333Z" fill="#8ABD56"/>
<path d="M180.761 266.809H137.95C136.074 266.809 134.555 268.331 134.555 270.212V294.736C134.555 296.617 136.074 298.139 137.95 298.139H180.761C182.637 298.139 184.157 296.617 184.157 294.736V270.212C184.157 268.331 182.637 266.809 180.761 266.809ZM177.366 291.333H141.345V273.617H177.366V291.333Z" fill="#8ABD56"/>
<path d="M59.7946 194.246C59.7798 194.228 59.7601 194.226 59.7454 194.213C58.5538 192.943 56.2272 192.943 55.0331 194.213C50.4193 198.786 42.3661 206.92 37.6933 211.587C34.537 214.657 39.424 219.572 42.4942 216.399C44.1412 214.748 52.5465 206.315 53.9941 204.864V270.211C53.9941 272.094 55.5132 273.614 57.3892 273.614C59.2653 273.614 60.7843 272.092 60.7843 270.211C60.7843 261.934 60.7843 211.964 60.7843 204.862L72.2917 216.396C75.4431 219.53 80.2218 214.743 77.0926 211.584L59.7946 194.243V194.246Z" fill="#8ABD56"/>
<path d="M114.046 250.469L102.546 261.996C102.541 250.032 102.551 231.161 102.546 219.323C102.556 214.513 102.541 201.614 102.546 196.647C102.546 194.766 101.027 193.244 99.1506 193.244C97.2745 193.244 95.7555 194.766 95.7555 196.647C95.7629 201.316 95.7506 211.49 95.7555 216.061C95.753 228.555 95.758 249.358 95.7555 261.993L84.2555 250.466C81.1977 247.303 76.286 252.199 79.4546 255.279L96.7477 272.612C98.023 273.935 100.283 273.935 101.558 272.612L118.851 255.279C122.003 252.209 117.126 247.293 114.051 250.466L114.046 250.469Z" fill="#8ABD56"/>
</svg>
